<?xml version="1.0" encoding="UTF-8"?>
<svg version="1.1" xmlns="http://www.w3.org/2000/svg" width="1128" height="273">
<path d="M0 0 C26.8245211 -0.02333088 53.64904068 -0.04098011 80.47356987 -0.05181217 C92.92785862 -0.05697472 105.38214107 -0.06401666 117.83642578 -0.07543945 C128.68796198 -0.08538752 139.53949362 -0.09185372 150.39103425 -0.09408849 C156.14008849 -0.09539539 161.8891297 -0.09847993 167.63817978 -0.10573006 C173.04382049 -0.1124922 178.44944274 -0.11461656 183.85508728 -0.11310768 C185.84414393 -0.11338392 187.83320117 -0.11538789 189.82225418 -0.11920547 C192.5278373 -0.12414574 195.23334973 -0.12299703 197.93893433 -0.12025452 C198.73464399 -0.12316736 199.53035366 -0.1260802 200.35017574 -0.12908131 C205.77175758 -0.11412121 205.77175758 -0.11412121 208 1 C210.32914823 1.36141955 212.66253478 1.69699525 215 2 C215 2.66 215 3.32 215 4 C215.99 3.67 216.98 3.34 218 3 C224.20797433 5.7458348 227.75266984 9.82251575 232 15 C232.66 15.66 233.32 16.32 234 17 C236.10444124 19.9972345 237.83891932 22.51675796 239 26 C238.67 26.66 238.34 27.32 238 28 C238.66 28 239.32 28 240 28 C239.67 29.32 239.34 30.64 239 32 C239.66 32 240.32 32 241 32 C241.02334114 59.1811311 241.04098516 86.36226071 241.05181217 113.54339981 C241.05697254 126.16353948 241.06401032 138.78367292 241.07543945 151.40380859 C241.08539418 162.40112523 241.09185532 173.39843737 241.09408849 184.39575839 C241.09539425 190.22088856 241.09847165 196.04600585 241.10573006 201.8711319 C241.11250269 207.35064861 241.11461441 212.83014709 241.11310768 218.30966759 C241.11338345 220.32368506 241.11538121 222.33770313 241.11920547 224.351717 C241.12416208 227.09601183 241.12299095 229.84023733 241.12025452 232.58453369 C241.12462378 233.78686893 241.12462378 233.78686893 241.12908131 235.01349378 C241.11960637 238.515918 240.93976815 241.63034603 240 245 C239.34 245 238.68 245 238 245 C238.33 245.99 238.66 246.98 239 248 C237.31079956 251.94146768 235.95021795 255.02489103 232 257 C231.87625 257.598125 231.7525 258.19625 231.625 258.8125 C230.78162141 261.76432508 229.34443145 263.06929175 227 265 C226.01 265 225.02 265 224 265 C223.67 265.66 223.34 266.32 223 267 C221.66666667 267.33333333 220.33333333 267.66666667 219 268 C218.67 268.66 218.34 269.32 218 270 C212.6407767 272.21359223 212.6407767 272.21359223 209 271 C209 271.66 209 272.32 209 273 C181.55810126 273.02334094 154.116204 273.04098507 126.67429733 273.05181217 C113.93308938 273.05697258 101.19188759 273.06401045 88.45068359 273.07543945 C77.34789153 273.08539405 66.24510392 273.09185529 55.14230752 273.09408849 C49.26128605 273.09539427 43.38027734 273.09847181 37.49925995 273.10573006 C31.96721363 273.11250248 26.43518537 273.11461445 20.9031353 273.11310768 C18.86976715 273.11338346 16.83639841 273.11538134 14.80303383 273.11920547 C12.03246484 273.12416176 9.26196454 273.12299107 6.49139404 273.12025452 C5.68205532 273.12316736 4.87271659 273.1260802 4.03885245 273.12908131 C0.51943707 273.11964968 -2.61391535 272.94539604 -6 272 C-6 271.34 -6 270.68 -6 270 C-6.99 270.33 -7.98 270.66 -9 271 C-9 270.34 -9 269.68 -9 269 C-9.99 269.33 -10.98 269.66 -12 270 C-17.33077118 267.34459713 -22.114525 263.49258047 -26 259 C-26.495 257.515 -26.495 257.515 -27 256 C-27.47050781 255.54109375 -27.94101562 255.0821875 -28.42578125 254.609375 C-32.26210977 250.68737165 -34.26107919 244.30380175 -34.25 238.875 C-34.12625 237.451875 -34.12625 237.451875 -34 236 C-34.33 236 -34.66 236 -35 236 C-35.04673887 210.07868375 -35.08199812 184.15737382 -35.10362434 158.2360239 C-35.11393306 146.20005954 -35.1279857 134.16412138 -35.15087891 122.12817383 C-35.17082512 111.6365782 -35.18371938 101.14500155 -35.18817699 90.65338749 C-35.19078227 85.09915279 -35.19689748 79.54497237 -35.21146011 73.99075508 C-35.22506343 68.7599025 -35.22921706 63.52912642 -35.22621536 58.29825783 C-35.22676429 56.38147821 -35.2307253 54.46469596 -35.23841095 52.54793167 C-35.24841526 49.92354956 -35.24594897 47.29945332 -35.24050903 44.67506409 C-35.24633472 43.92309 -35.2521604 43.17111591 -35.25816262 42.39635473 C-35.2283978 37.05497331 -34.33233092 32.16656909 -33 27 C-32.34 27 -31.68 27 -31 27 C-31.33 26.01 -31.66 25.02 -32 24 C-30.22445479 20.51013529 -28.75847687 17.75847687 -26 15 C-24.50474756 13.15904853 -23.01443269 11.3147622 -21.53515625 9.4609375 C-20 8 -20 8 -17 8 C-16.67 7.34 -16.34 6.68 -16 6 C-13.0625 4.3125 -13.0625 4.3125 -10 3 C-9.34 3.33 -8.68 3.66 -8 4 C-7.67 3.34 -7.34 2.68 -7 2 C-6.34 2.33 -5.68 2.66 -5 3 C-5 2.34 -5 1.68 -5 1 C-3.35 1 -1.7 1 0 1 C0 0.67 0 0.34 0 0 Z M101 44 C101 44.66 101 45.32 101 46 C100.01 45.67 99.02 45.34 98 45 C95.42414232 46.82194812 93.22875556 48.77124444 91 51 C89.54819909 52.22083259 88.09523531 53.44034909 86.6328125 54.6484375 C85.12071538 55.9000777 83.62222817 57.1681109 82.125 58.4375 C79.79448232 60.38877333 77.38813605 62.20225385 74.9375 64 C71.66248052 66.42824639 68.84765279 69.07538362 66 72 C64.34466005 73.34736973 62.67987227 74.68334336 61 76 C60.34 76.66 59.68 77.32 59 78 C57.33333333 79.33333333 55.66666667 80.66666667 54 82 C53.34 82.66 52.68 83.32 52 84 C50.84189544 84.86573993 49.67383183 85.71820702 48.5 86.5625 C42.62763683 90.91837378 37.16871315 95.83128685 32 101 C30.79683004 101.8614245 29.58771502 102.71456579 28.375 103.5625 C24.25607269 106.59552829 21.1009754 110.10873236 17.859375 114.046875 C15.99902868 116.0010203 14.47154922 116.9720105 12 118 C12 118.66 12 119.32 12 120 C10.515 120.495 10.515 120.495 9 121 C8.05292914 125.56627009 8.05292914 125.56627009 8.5625 130.125 C11.28844961 133.68058645 14.37272764 136.36496688 18.5625 138 C23.11937439 138 25.54559375 135.44383866 28.6875 132.375 C29.8321875 131.199375 29.8321875 131.199375 31 130 C31.99 129.505 31.99 129.505 33 129 C33 128.34 33 127.68 33 127 C33.9590625 126.814375 33.9590625 126.814375 34.9375 126.625 C35.9584375 126.315625 35.9584375 126.315625 37 126 C37.33 125.34 37.66 124.68 38 124 C39.6396721 122.63360658 41.31110128 121.3050581 43 120 C46.33815455 117.36052896 49.32282975 114.71479081 52.25 111.625 C54.9987758 109.00116856 57.82502325 107.07063701 61 105 C62.02104551 104.02149805 63.0206121 103.02019573 64 102 C65.48403837 100.77405526 66.96837373 99.54845659 68.45703125 98.328125 C69.89686658 97.08877307 71.23544218 95.73442508 72.5625 94.375 C74.92051801 92.07744399 77.16822195 90.63945045 80 89 C81.02104551 88.02149805 82.0206121 87.02019573 83 86 C84.66270287 84.66172696 86.32916181 83.32810215 88 82 C88.99 81.01 88.99 81.01 90 80 C91.44350605 78.78614264 92.88857524 77.57399705 94.34765625 76.37890625 C95.45870064 75.45172264 96.54997856 74.50038092 97.62109375 73.52734375 C99.0175345 72.27716363 100.504558 71.12988951 102 70 C105.15831622 71.05277207 105.81762951 71.64975486 108 74 C111.48041056 77.79176482 111.48041056 77.79176482 116 80 C117.68816933 81.64488294 119.35353315 83.31337542 121 85 C121.66 85.495 122.32 85.99 123 86.5 C125 88 125 88 127.25 90.3125 C130.02058082 93.02011307 132.8993335 95.23893809 136.015625 97.5234375 C138.77385672 99.57582252 141.37327337 101.78187529 144 104 C144.86625 104.680625 145.7325 105.36125 146.625 106.0625 C149 108 149 108 151.125 110.1875 C152.9666059 112.22886406 152.9666059 112.22886406 156 113 C157.67067133 114.99665598 159.33752986 116.99651034 161 119 C161.66 119 162.32 119 163 119 C165.63875767 121.49612212 168.11723822 124.12282099 170.625 126.75 C172.86533112 129.19004674 172.86533112 129.19004674 176 130 C176.721875 130.969375 177.44375 131.93875 178.1875 132.9375 C180.7221654 136.09056268 183.04466209 137.26292305 187 138.01953125 C190.52542487 137.98510327 192.4727856 136.2806569 195 134 C195.33 133.01 195.66 132.02 196 131 C196.66 130.34 197.32 129.68 198 129 C198.66758785 125.62751384 198.66758785 125.62751384 198 122 C195.25814691 119.17345127 195.25814691 119.17345127 192 117 C190.14573489 115.21990549 188.39618602 113.36440634 186.625 111.5 C184.15046885 108.95789077 184.15046885 108.95789077 181.375 107.4375 C178.83504531 105.900159 177.73213628 104.36200402 176 102 C175.01 101.67 174.02 101.34 173 101 C172.99413376 100.42814972 172.98826752 99.85629944 172.98222351 99.26712036 C172.91842516 93.32993053 172.83404189 87.39328962 172.73754883 81.45654297 C172.70423784 79.23916854 172.67622537 77.02170806 172.65356445 74.80419922 C172.62013181 71.62169623 172.56782218 68.43998635 172.51171875 65.2578125 C172.50213387 63.76400558 172.50213387 63.76400558 172.49235535 62.24002075 C172.47256119 61.31921722 172.45276703 60.3984137 172.43237305 59.44970703 C172.42126999 58.6369632 172.41016693 57.82421936 172.39872742 56.98684692 C172.16278126 54.59816831 172.16278126 54.59816831 169 53 C165.33852577 52.42373149 161.63816606 52.34962442 157.9375 52.1875 C156.40899414 52.09178711 156.40899414 52.09178711 154.84960938 51.99414062 C153.87701172 51.94837891 152.90441406 51.90261719 151.90234375 51.85546875 C150.56417603 51.78815552 150.56417603 51.78815552 149.19897461 51.71948242 C148.47331299 51.81205322 147.74765137 51.90462402 147 52 C144.91254955 55.13117567 144.72346004 56.06946224 144.5859375 59.66796875 C144.52792969 61.00698242 144.52792969 61.00698242 144.46875 62.37304688 C144.4378125 63.30181641 144.406875 64.23058594 144.375 65.1875 C144.31699219 66.59805664 144.31699219 66.59805664 144.2578125 68.03710938 C144.16356813 70.3578771 144.07795975 72.67863748 144 75 C142.0625 74.6875 142.0625 74.6875 140 74 C139.67 73.01 139.34 72.02 139 71 C137.03501678 69.61558 135.02951535 68.28796166 133 67 C130.33369142 64.98401058 127.98997962 62.98943798 125.6875 60.5625 C122.90929103 57.91351006 120.12301537 56.1479212 116.8515625 54.1875 C114.57094604 52.72482616 112.84656226 50.97391138 111 49 C107.70139932 46.03971734 105.43947626 44.50736871 101 44 Z M23.5 143.4375 C19.67020571 149.98006524 19.70510524 157.67487103 19.8125 165.0625 C19.81314453 165.90876953 19.81378906 166.75503906 19.81445312 167.62695312 C19.84192976 171.58664086 20.00347605 175.4385401 20.54296875 179.36328125 C20.90924974 182.27787617 21.03821534 184.29936946 20.5 187.125 C19.82807717 190.86040173 19.82807717 190.86040173 20.5 194 C21.02514784 197.15088704 20.72076679 199.78170966 20.265625 202.92578125 C19.49785342 208.92117405 19.93499003 214.26386119 22 220 C22.66 220.66 23.32 221.32 24 222 C24.99 222 25.98 222 27 222 C27 222.66 27 223.32 27 224 C30.2148082 225.07160273 32.55109778 225.13910844 35.93231201 225.16062927 C37.17161469 225.1706749 38.41091736 225.18072052 39.68777466 225.19107056 C41.06365906 225.19710054 42.43954411 225.20298554 43.81542969 225.20874023 C45.26262641 225.21827975 46.70982084 225.22817096 48.15701294 225.23838806 C52.91193947 225.26976089 57.66688343 225.29003798 62.421875 225.30859375 C63.23112458 225.31189107 64.04037416 225.31518839 64.87414646 225.31858563 C72.50745505 225.34936495 80.14076762 225.37606954 87.77412033 225.39300442 C97.53385167 225.41491163 107.29303293 225.45688753 117.05254436 225.52644199 C123.91719788 225.57370224 130.78170308 225.5979406 137.64651418 225.6052013 C141.74547153 225.6101544 145.84380871 225.62520163 149.94258881 225.6649456 C153.80057325 225.70186215 157.65758463 225.710206 161.51571274 225.69693947 C162.92863995 225.69699334 164.34161083 225.70725675 165.75437546 225.7286911 C174.57118341 226.00073535 174.57118341 226.00073535 182.33331299 222.39393616 C185.34833241 219.1887789 185.9120228 216.41196322 186 212 C186.0419046 210.92485641 186.0838092 209.84971283 186.12698364 208.74198914 C186.12777924 207.6266127 186.12857483 206.51123627 186.12939453 205.36206055 C186.13412277 203.45054451 186.13412277 203.45054451 186.13894653 201.50041199 C186.13715738 200.12918055 186.13510659 198.75794943 186.1328125 197.38671875 C186.13348689 195.96661869 186.13445804 194.54651874 186.13571167 193.12641907 C186.13717988 190.1636138 186.13506078 187.20083884 186.13037109 184.23803711 C186.12464816 180.43709015 186.12797446 176.63621341 186.13394356 172.83526897 C186.13755067 169.90911831 186.13641035 166.98298442 186.13381577 164.05683327 C186.13314826 162.65456954 186.13396878 161.2523043 186.13629532 159.85004234 C186.13882706 157.89701745 186.13428593 155.94398721 186.12939453 153.9909668 C186.12859894 152.87956833 186.12780334 151.76816986 186.12698364 150.62309265 C186.17772254 148.01924341 186.17772254 148.01924341 185 146 C184.34 146 183.68 146 183 146 C182.67 145.01 182.34 144.02 182 143 C181.01 143.33 180.02 143.66 179 144 C179 143.34 179 142.68 179 142 C174.07008655 141.71000509 170.90748231 141.80296902 167 145 C167 145.99 167 146.98 167 148 C166.34 148 165.68 148 165 148 C165 167.14 165 186.28 165 206 C152.13 206 139.26 206 126 206 C126.04640625 202.22046875 126.0928125 198.4409375 126.140625 194.546875 C126.17181222 190.88982486 126.1961049 187.23278949 126.21972656 183.57568359 C126.23985272 181.03232197 126.26715637 178.48900667 126.30175781 175.94580078 C126.3502297 172.29187596 126.37295916 168.63856244 126.390625 164.984375 C126.41127014 163.84570984 126.43191528 162.70704468 126.45318604 161.53387451 C126.45348816 160.47307678 126.45379028 159.41227905 126.45410156 158.31933594 C126.46742523 156.92035065 126.46742523 156.92035065 126.48101807 155.49310303 C125.85248192 152.23541798 124.5428897 151.05931201 122 149 C118.08262453 147.7454157 114.14432918 147.87099485 110.0546875 147.8671875 C109.07715012 147.86575241 109.07715012 147.86575241 108.0798645 147.86428833 C106.70998029 147.86361103 105.3400928 147.86543376 103.97021484 147.86962891 C101.87460146 147.87500102 99.77920069 147.86965982 97.68359375 147.86328125 C96.34895786 147.86394177 95.01432211 147.8652224 93.6796875 147.8671875 C91.86573486 147.86887939 91.86573486 147.86887939 90.01513672 147.87060547 C86.6995055 148.01289572 84.75636301 148.25441651 82.35546875 150.62109375 C80.51024221 153.85954609 80.47794361 156.33082753 80.3125 160.0625 C80.27906494 160.79968262 80.24562988 161.53686523 80.21118164 162.29638672 C79.66698576 176.84125831 79.94448755 191.4557371 80 206 C67.13 206 54.26 206 41 206 C41.05800781 201.79894531 41.11601563 197.59789062 41.17578125 193.26953125 C41.2079502 189.91368605 41.23505893 186.55788458 41.25875092 183.20197296 C41.28512405 179.66257138 41.32034704 176.12377122 41.37719727 172.5847168 C41.44206064 168.52126339 41.46620732 164.45844402 41.48828125 160.39453125 C41.51408768 159.1297847 41.5398941 157.86503815 41.56648254 156.56196594 C41.83748329 149.56673499 41.83748329 149.56673499 38.62792969 143.70214844 C33.86127379 140.6147158 28.42961004 140.60297423 23.5 143.4375 Z M32 225 C32 225.33 32 225.66 32 226 C44.87 226 57.74 226 71 226 C71 225.67 71 225.34 71 225 C58.13 225 45.26 225 32 225 Z M72 225 C76 226 76 226 76 226 Z M77 225 C77 225.33 77 225.66 77 226 C80.63 226 84.26 226 88 226 C88 225.67 88 225.34 88 225 C84.37 225 80.74 225 77 225 Z M90 225 C90 225.33 90 225.66 90 226 C91.98 226 93.96 226 96 226 C96 225.67 96 225.34 96 225 C94.02 225 92.04 225 90 225 Z M98 225 C98 225.33 98 225.66 98 226 C99.98 226 101.96 226 104 226 C104 225.67 104 225.34 104 225 C102.02 225 100.04 225 98 225 Z M118 225 C118 225.33 118 225.66 118 226 C121.3 226 124.6 226 128 226 C128 225.67 128 225.34 128 225 C124.7 225 121.4 225 118 225 Z M133 225 C133 225.33 133 225.66 133 226 C146.86 226 160.72 226 175 226 C175 225.67 175 225.34 175 225 C161.14 225 147.28 225 133 225 Z " fill="#00E872" transform="translate(40,0)"/>
<path d="M0 0 C0.99 0 1.98 0 3 0 C3 0.66 3 1.32 3 2 C8.94 1.67 14.88 1.34 21 1 C21 0.67 21 0.34 21 0 C22.98 0 24.96 0 27 0 C28.23211948 2.46423896 28.15779908 4.15234663 28.20532227 6.90869141 C28.2352401 8.44005234 28.2352401 8.44005234 28.26576233 10.00234985 C28.28247482 11.10759003 28.29918732 12.2128302 28.31640625 13.3515625 C28.33718735 14.4807309 28.35796844 15.60989929 28.37937927 16.77328491 C28.44491335 20.39045972 28.50377774 24.00770881 28.5625 27.625 C28.60568154 30.07292444 28.64929571 32.52084128 28.69335938 34.96875 C28.80059867 40.9790875 28.90235787 46.98949935 29 53 C29.433125 52.525625 29.86625 52.05125 30.3125 51.5625 C32 50 32 50 35 49 C35.474375 48.484375 35.94875 47.96875 36.4375 47.4375 C38 46 38 46 42 46 C42 45.34 42 44.68 42 44 C48.625 41.875 48.625 41.875 52 43 C52 42.34 52 41.68 52 41 C54.95839355 40.97310551 57.91654427 40.95321259 60.875 40.9375 C61.71675781 40.92912109 62.55851563 40.92074219 63.42578125 40.91210938 C64.23144531 40.90888672 65.03710938 40.90566406 65.8671875 40.90234375 C66.61081543 40.89710693 67.35444336 40.89187012 68.12060547 40.88647461 C70 41 70 41 72 42 C73.99960012 42.039992 76.00047242 42.04346799 78 42 C78 42.66 78 43.32 78 44 C80.31 44.33 82.62 44.66 85 45 C85.33 45.99 85.66 46.98 86 48 C87.65 48.33 89.3 48.66 91 49 C91.103125 49.598125 91.20625 50.19625 91.3125 50.8125 C92.1141384 53.36316765 92.90032564 54.36691995 95 56 C97.10332891 56.71447643 97.10332891 56.71447643 99 57 C99.495 59.97 99.495 59.97 100 63 C100.66 63 101.32 63 102 63 C102.28875 63.969375 102.5775 64.93875 102.875 65.9375 C103.64214682 69.10664203 103.64214682 69.10664203 106 70 C106 71.32 106 72.64 106 74 C106.66 74.33 107.32 74.66 108 75 C108.28912648 76.95963506 108.5725666 78.92199997 108.75390625 80.89453125 C108.94228129 82.9746306 108.94228129 82.9746306 109.50927734 84.83374023 C110.04864844 87.21475505 110.1132965 89.32574676 110.09765625 91.765625 C110.09282227 93.09980469 110.09282227 93.09980469 110.08789062 94.4609375 C110.07532227 95.84152344 110.07532227 95.84152344 110.0625 97.25 C110.05798828 98.18585938 110.05347656 99.12171875 110.04882812 100.0859375 C110.03706918 102.39069041 110.02063426 104.69531227 110 107 C109.01 107.495 109.01 107.495 108 108 C108.20625 108.556875 108.4125 109.11375 108.625 109.6875 C109.11259758 112.69435172 108.23639992 114.25244463 107 117 C106.64141484 118.32676508 106.2981424 119.65835921 106 121 C105.34 121 104.68 121 104 121 C104.33 121.99 104.66 122.98 105 124 C104.67 124.66 104.34 125.32 104 126 C102.515 126.495 102.515 126.495 101 127 C99.77201211 128.5227504 99.77201211 128.5227504 98.8125 130.375 C98.29623047 131.28378906 98.29623047 131.28378906 97.76953125 132.2109375 C96.80243534 134.13472229 96.80243534 134.13472229 97 137 C96.1028125 137.2165625 96.1028125 137.2165625 95.1875 137.4375 C93.43849596 137.8872439 91.71322977 138.42892341 90 139 C89.40929986 140.94603274 89.40929986 140.94603274 89 143 C88.34 143.66 87.68 144.32 87 145 C87 145.99 87 146.98 87 148 C86.05125 148.4125 85.1025 148.825 84.125 149.25 C80.99283376 151.0040131 80.13499394 151.70851757 79 155 C78.34 155 77.68 155 77 155 C76.7215625 155.9590625 76.7215625 155.9590625 76.4375 156.9375 C75.7259375 157.9584375 75.7259375 157.9584375 75 159 C72.67843403 159.40729228 70.3431213 159.74438677 68 160 C67.67 160.66 67.34 161.32 67 162 C62.59161634 162.73473061 58.46251531 163 54 163 C53.67 163.33 53.34 163.66 53 164 C44.61131389 164.48396266 34.71829526 164.40127262 28 159 C27.13375 159 26.2675 159 25.375 159 C24.59125 159 23.8075 159 23 159 C22.34 158.01 21.68 157.02 21 156 C20.13375 155.154375 19.2675 154.30875 18.375 153.4375 C16 151 16 151 16 149 C15.34 149 14.68 149 14 149 C14.33 152.63 14.66 156.26 15 160 C13.68 160 12.36 160 11 160 C9.66651202 160.33271413 8.33318158 160.66606024 7 161 C5.55901569 161.07766084 4.11491371 161.10796367 2.671875 161.09765625 C1.9509668 161.09515869 1.23005859 161.09266113 0.48730469 161.09008789 C-0.41600586 161.08098389 -1.31931641 161.07187988 -2.25 161.0625 C-3.76535773 161.05113088 -5.28071854 161.04016874 -6.79608154 161.02952576 C-7.58349102 161.02397391 -8.3709005 161.01842207 -9.18217087 161.01270199 C-9.78205448 161.00851033 -10.3819381 161.00431868 -11 161 C-10.8934182 159.58402023 -10.8934182 159.58402023 -10.78468323 158.13943481 C-9.7895859 143.60896086 -9.86898258 129.07697159 -9.89860606 114.52026892 C-9.90494485 110.86883073 -9.90545159 107.21739132 -9.90663147 103.56594849 C-9.90971424 96.68167611 -9.91788556 89.79742 -9.92798096 82.91315472 C-9.93923809 75.06282847 -9.94467651 67.21250136 -9.94967639 59.36216903 C-9.96007146 43.24143629 -9.97781677 27.12072088 -10 11 C-6.37 11.66 -2.74 12.32 1 13 C0.67 8.71 0.34 4.42 0 0 Z M40 76 C40 76.66 40 77.32 40 78 C39.01 77.67 38.02 77.34 37 77 C37 77.66 37 78.32 37 79 C35.35 78.67 33.7 78.34 32 78 C27.67114549 85.0835801 25.85746524 89.72584924 25.875 98.125 C25.87242187 99.36507812 25.86984375 100.60515625 25.8671875 101.8828125 C25.78331189 104.90723573 25.78331189 104.90723573 27 107 C27 107.99 27 108.98 27 110 C27.66 110 28.32 110 29 110 C30.20628008 112.33214148 31.1654738 114.49642139 32 117 C32.66 117 33.32 117 34 117 C34.061875 117.78375 34.12375 118.5675 34.1875 119.375 C34.73288333 122.21051624 34.73288333 122.21051624 37.375 123.3125 C40.03143 124.1266797 40.03143 124.1266797 43 124 C42.67 124.99 42.34 125.98 42 127 C43.98 126.505 43.98 126.505 46 126 C46.33 126.99 46.66 127.98 47 129 C47 128.34 47 127.68 47 127 C50 128 50 128 52 130 C55.58343976 130.16677282 55.58343976 130.16677282 59 130 C59 129.34 59 128.68 59 128 C59.9075 127.87625 60.815 127.7525 61.75 127.625 C64.63501673 127.07018909 66.55508398 126.57173173 69 125 C71.29013653 121.5647952 71.17842973 120.014669 71 116 C71.66 116 72.32 116 73 116 C72.91621094 115.35933594 72.83242188 114.71867187 72.74609375 114.05859375 C72.12335395 108.76924686 71.97682815 104.22954501 73 99 C72.34 99 71.68 99 71 99 C71.495 97.515 71.495 97.515 72 96 C71.34 96 70.68 96 70 96 C70.495 94.515 70.495 94.515 71 93 C70.34 93 69.68 93 69 93 C68.505 91.02 68.505 91.02 68 89 C67.34 89 66.68 89 66 89 C66 88.01 66 87.02 66 86 C65.34 86 64.68 86 64 86 C64 85.34 64 84.68 64 84 C62.15811388 81.94729537 62.15811388 81.94729537 60 81 C59.34 81.33 58.68 81.66 58 82 C57.67 80.68 57.34 79.36 57 78 C55.35 78.33 53.7 78.66 52 79 C51.67 78.34 51.34 77.68 51 77 C48.24921116 76.08307039 46.64051087 75.89113917 43.8125 75.9375 C42.554375 75.958125 41.29625 75.97875 40 76 Z M-5 159 C-1 160 -1 160 -1 160 Z " fill="#FFFFFF" transform="translate(608,49)"/>
<path d="M0 0 C35.5 0 35.5 0 46 7 C47.32594105 7.36162029 48.65938457 7.69728039 50 8 C50.99 8.495 50.99 8.495 52 9 C52.495 10.485 52.495 10.485 53 12 C53.99 12 54.98 12 56 12 C56.226875 12.556875 56.45375 13.11375 56.6875 13.6875 C58.95600449 17.68438886 61.61899946 20.53966649 66 22 C66 23.32 66 24.64 66 26 C66.99 26 67.98 26 69 26 C69 27.32 69 28.64 69 30 C69.99 30.33 70.98 30.66 72 31 C72.12375 31.7425 72.2475 32.485 72.375 33.25 C72.96470061 35.8446827 73.76172039 37.66912074 75 40 C76.54566807 43.43481794 77 45.12009033 77 49 C72.71 49 68.42 49 64 49 C64.33 50.65 64.66 52.3 65 54 C65.66 54 66.32 54 67 54 C67 56 67 58 67 60 C53.635 60.495 53.635 60.495 40 61 C39.01 57.04 39.01 57.04 38 53 C37.34 53 36.68 53 36 53 C36 52.01 36 51.02 36 50 C34.515 49.505 34.515 49.505 33 49 C33 47.68 33 46.36 33 45 C31.35 44.67 29.7 44.34 28 44 C28 43.34 28 42.68 28 42 C27.01 42 26.02 42 25 42 C24.67 41.34 24.34 40.68 24 40 C21.99085607 39.08886335 21.99085607 39.08886335 19.625 38.375 C18.43777344 37.98441406 18.43777344 37.98441406 17.2265625 37.5859375 C14.90019091 36.87275335 14.90019091 36.87275335 12 37 C10.32900023 36.68911632 8.66128463 36.35919668 7 36 C7 35.34 7 34.68 7 34 C1.23796287 35.08980179 -4.36543688 36.36085437 -10 38 C-12.38995332 38.49904409 -14.78101473 38.98215873 -17.1796875 39.4375 C-18.08074219 39.7159375 -18.08074219 39.7159375 -19 40 C-19.495 40.99 -19.495 40.99 -20 42 C-21.32 41.67 -22.64 41.34 -24 41 C-24 41.66 -24 42.32 -24 43 C-24.66 43 -25.32 43 -26 43 C-26 43.99 -26 44.98 -26 46 C-26.474375 46.433125 -26.94875 46.86625 -27.4375 47.3125 C-29.64638049 49.69809093 -29.57009606 51.8064279 -30 55 C-30.60530418 57.35501156 -31.30106724 59.67022414 -32 62 C-32.66 62 -33.32 62 -34 62 C-33.91621094 62.60328125 -33.83242188 63.2065625 -33.74609375 63.828125 C-33.59333984 65.02695313 -33.59333984 65.02695313 -33.4375 66.25 C-33.28087891 67.43335937 -33.28087891 67.43335937 -33.12109375 68.640625 C-32.99972651 71.00532874 -33.30366743 72.7511037 -34 75 C-33.67 75 -33.34 75 -33 75 C-33.33 77.97 -33.66 80.94 -34 84 C-33.34 84 -32.68 84 -32 84 C-32.061875 85.051875 -32.12375 86.10375 -32.1875 87.1875 C-31.98772407 91.24961049 -31.28727988 92.74502479 -29 96 C-27 99.68421053 -27 99.68421053 -27 102 C-25.7934375 103.1446875 -25.7934375 103.1446875 -24.5625 104.3125 C-21.92701463 107.07654563 -21.31813933 108.28837448 -21 112 C-19.02 111.505 -19.02 111.505 -17 111 C-16.34 112.65 -15.68 114.3 -15 116 C-13.2984375 116.185625 -13.2984375 116.185625 -11.5625 116.375 C-9.7990625 116.684375 -9.7990625 116.684375 -8 117 C-7.67 117.66 -7.34 118.32 -7 119 C-5.01703554 119.65352948 -5.01703554 119.65352948 -2.6875 120.0625 C-1.90761719 120.21847656 -1.12773437 120.37445313 -0.32421875 120.53515625 C0.44277344 120.68855469 1.20976562 120.84195313 2 121 C3.33531635 121.32529853 4.66939662 121.65593093 6 122 C6 122.66 6 123.32 6 124 C9.63 124 13.26 124 17 124 C17 123.34 17 122.68 17 122 C18.98 122.495 18.98 122.495 21 123 C21 122.34 21 121.68 21 121 C21.94875 121.04125 22.8975 121.0825 23.875 121.125 C27.10244856 121.34973818 27.10244856 121.34973818 29 119 C31.625 118.375 31.625 118.375 34 118 C34 117.34 34 116.68 34 116 C35.32 116 36.64 116 38 116 C38.66 114.02 39.32 112.04 40 110 C41.32 110 42.64 110 44 110 C44.33 107.69 44.66 105.38 45 103 C45.99 102.67 46.98 102.34 48 102 C48.99 100.02 48.99 100.02 50 98 C58.25 98 66.5 98 75 98 C76.01689708 103.0844854 75.73615991 104.40428259 74 109 C74 109.66 74 110.32 74 111 C73.525625 111.391875 73.05125 111.78375 72.5625 112.1875 C70.27580246 114.84006914 70.44115595 117.59679694 70 121 C69.01 121.495 69.01 121.495 68 122 C68 122.66 68 123.32 68 124 C66.68 123.67 65.36 123.34 64 123 C64.33 124.32 64.66 125.64 65 127 C64.0409375 127.680625 64.0409375 127.680625 63.0625 128.375 C60.90297594 129.83921726 60.90297594 129.83921726 60 132 C59.34 132 58.68 132 58 132 C58 132.66 58 133.32 58 134 C57.01 134.66 56.02 135.32 55 136 C54.67 136.99 54.34 137.98 54 139 C53.34 139.66 52.68 140.32 52 141 C51.01 141 50.02 141 49 141 C48.67 142.32 48.34 143.64 48 145 C47.01 145 46.02 145 45 145 C44.67 145.66 44.34 146.32 44 147 C41.4375 147.625 41.4375 147.625 39 148 C39.33 149.32 39.66 150.64 40 152 C39.030625 152.12375 38.06125 152.2475 37.0625 152.375 C36.051875 152.58125 35.04125 152.7875 34 153 C33.67 153.66 33.34 154.32 33 155 C31.35 154.67 29.7 154.34 28 154 C28 154.66 28 155.32 28 156 C14.48745468 160.0537636 -0.0376583 159.12641959 -14 159 C-14 158.34 -14 157.68 -14 157 C-14.57492187 157.19464844 -15.14984375 157.38929688 -15.7421875 157.58984375 C-18.43083777 158.07826638 -19.63847777 157.62612643 -22.125 156.5625 C-24.96778254 155.32825227 -24.96778254 155.32825227 -28 155 C-28 154.01 -28 153.02 -28 152 C-28.5775 152.20625 -29.155 152.4125 -29.75 152.625 C-32.60648841 153.1010814 -33.64590418 152.64786707 -36 151 C-36.268125 150.34 -36.53625 149.68 -36.8125 149 C-37.93385121 146.58103836 -37.93385121 146.58103836 -41.5 146.0625 C-42.655 145.711875 -43.81 145.36125 -45 145 C-46.125 142.6875 -46.125 142.6875 -47 140 C-49.27110728 137.14515489 -49.27110728 137.14515489 -52 135 C-53.32 135 -54.64 135 -56 135 C-56 134.01 -56 133.02 -56 132 C-56.66 131.67 -57.32 131.34 -58 131 C-59.07657823 127.77026531 -59.46617188 124.35549101 -60 121 C-61.98 121.495 -61.98 121.495 -64 122 C-64.103125 120.783125 -64.20625 119.56625 -64.3125 118.3125 C-64.65541916 115.46478003 -64.93962623 114.0955918 -66.5 111.625 C-69.35058876 106.63646967 -69.05819008 100.58193809 -69 94.9375 C-69 93.968125 -69 92.99875 -69 92 C-69.33 91.67 -69.66 91.34 -70 91 C-70.09851171 89.16884117 -70.12972629 87.33380067 -70.125 85.5 C-70.12757813 84.4996875 -70.13015625 83.499375 -70.1328125 82.46875 C-70 80 -70 80 -69 79 C-69 77.08722363 -69.00283428 75.17438416 -69.0234375 73.26171875 C-68.97019057 68.12339049 -68.44362718 63.58180097 -66 59 C-65.61709538 57.00889599 -65.27395385 55.00899487 -65 53 C-64.34 53 -63.68 53 -63 53 C-62.505 50.03 -62.505 50.03 -62 47 C-61.01 47 -60.02 47 -59 47 C-58.67 44.69 -58.34 42.38 -58 40 C-57.34 40 -56.68 40 -56 40 C-55.87625 39.360625 -55.7525 38.72125 -55.625 38.0625 C-55.41875 37.381875 -55.2125 36.70125 -55 36 C-54.01 35.505 -54.01 35.505 -53 35 C-53 34.34 -53 33.68 -53 33 C-52.34 33 -51.68 33 -51 33 C-51 32.34 -51 31.68 -51 31 C-50.360625 30.525625 -49.72125 30.05125 -49.0625 29.5625 C-46.71627037 28.0908635 -46.71627037 28.0908635 -46 25 C-45.01 25 -44.02 25 -43 25 C-43 24.01 -43 23.02 -43 22 C-42.34 22 -41.68 22 -41 22 C-41 21.34 -41 20.68 -41 20 C-40.34 20 -39.68 20 -39 20 C-38.7525 19.38125 -38.505 18.7625 -38.25 18.125 C-36.77229238 15.61289704 -35.56044823 15.23892656 -33 14 C-32.67 13.01 -32.34 12.02 -32 11 C-28.535 10.505 -28.535 10.505 -25 10 C-25 9.34 -25 8.68 -25 8 C-21.535 7.505 -21.535 7.505 -18 7 C-18 6.34 -18 5.68 -18 5 C-5.78571429 0.07142857 -5.78571429 0.07142857 0 2 C0 1.34 0 0.68 0 0 Z " fill="#FFFFFF" transform="translate(397,52)"/>
<path d="M0 0 C1.32 0.33 2.64 0.66 4 1 C4 1.66 4 2.32 4 3 C11.59 2.67 19.18 2.34 27 2 C27 1.34 27 0.68 27 0 C27.99 0.33 28.98 0.66 30 1 C29.98120789 2.35944481 29.98120789 2.35944481 29.96203613 3.74635315 C29.84328008 12.35061312 29.72552387 20.95488609 29.60884857 29.55917454 C29.54885243 33.98110767 29.48849004 38.40303513 29.42724609 42.82495117 C29.36799021 47.10435246 29.30975453 51.38376659 29.25218201 55.66319084 C29.23021151 57.28358377 29.20789332 58.90397203 29.18519592 60.52435493 C29.04316985 70.68381246 28.97054663 80.83946564 29 91 C32.55964906 88.27684787 32.55964906 88.27684787 35.5 84.9375 C37 83 37 83 39.5 81.5625 C42.45512904 79.71554435 43.23469944 77.96570494 45 75 C45.9900048 74.09026586 47.01359813 73.21614836 48.0625 72.375 C51.11806718 70.14603047 51.11806718 70.14603047 53 67 C53.99 66.67 54.98 66.34 56 66 C57.03565785 64.69417053 58.03126968 63.35622245 59 62 C60.93967379 59.99775609 62.93439699 58.06348679 64.9375 56.125 C67.17442843 54.00887347 67.17442843 54.00887347 68.703125 50.890625 C70.76860231 48.39716591 71.86613289 48.0208654 75.12329102 47.51318359 C79.03038608 47.4087612 82.90908691 47.47682221 86.8125 47.625 C88.18679094 47.65511878 89.56114499 47.68249128 90.93554688 47.70703125 C94.29196969 47.77769278 97.64518065 47.87632295 101 48 C101.22479437 53.25728777 100.51584434 55.05799271 97 59 C96.67 59.99 96.34 60.98 96 62 C95.34 62 94.68 62 94 62 C93.731875 62.639375 93.46375 63.27875 93.1875 63.9375 C92 66 92 66 89 67 C87.50546296 68.69151518 87.50546296 68.69151518 86.125 70.75 C83.66946561 74.16453663 81.02067778 77.06322994 78 80 C77.34 80.99 76.68 81.98 76 83 C75.236875 83.4125 74.47375 83.825 73.6875 84.25 C70.55436706 86.29017959 69.20180931 88.41012493 67.30859375 91.57421875 C66.87675781 92.04472656 66.44492188 92.51523438 66 93 C64.68 93 63.36 93 62 93 C60.52952664 96.91063224 60.52952664 96.91063224 60 101 C61.64488294 102.68816933 63.31337542 104.35353315 65 106 C65.99 107.485 65.99 107.485 67 109 C67.99 109 68.98 109 70 109 C70.061875 109.763125 70.12375 110.52625 70.1875 111.3125 C71.25880308 114.85604096 72.84595327 115.2652743 76 117 C76.33 117.99 76.66 118.98 77 120 C78.28965176 121.37562854 79.62689293 122.70766393 81 124 C81.53625 124.5775 82.0725 125.155 82.625 125.75 C83.93693693 127.22422426 83.93693693 127.22422426 86 127 C86.0825 127.61875 86.165 128.2375 86.25 128.875 C86.4975 129.57625 86.745 130.2775 87 131 C87.639375 131.268125 88.27875 131.53625 88.9375 131.8125 C91 133 91 133 92.25 136.625 C92.62125 138.295625 92.62125 138.295625 93 140 C94.32 140 95.64 140 97 140 C97 140.99 97 141.98 97 143 C98.98 143.99 98.98 143.99 101 145 C101 149.29 101 153.58 101 158 C98.03 158 95.06 158 92 158 C92.33 159.32 92.66 160.64 93 162 C93.66 162.33 94.32 162.66 95 163 C97 164 97 164 97.8125 166 C98 168 98 168 97 170 C85.66666667 170 74.33333333 170 63 170 C63 169.01 63 168.02 63 167 C62.4225 166.814375 61.845 166.62875 61.25 166.4375 C58.49131637 164.67500768 57.62689929 162.59266183 56.1484375 159.7421875 C54.36583941 157.03797407 51.69403665 155.71438696 49 154 C49 153.01 49 152.02 49 151 C47.68 150.67 46.36 150.34 45 150 C44.8453125 149.0409375 44.8453125 149.0409375 44.6875 148.0625 C44.460625 147.381875 44.23375 146.70125 44 146 C43.01 145.67 42.02 145.34 41 145 C40.64587656 143.67203709 40.31478446 142.33783393 40 141 C38.60411246 139.35405861 38.60411246 139.35405861 37 138 C36.01 137.01 36.01 137.01 35 136 C34.34 136 33.68 136 33 136 C32.8453125 135.0409375 32.8453125 135.0409375 32.6875 134.0625 C32.460625 133.381875 32.23375 132.70125 32 132 C31.01 131.67 30.02 131.34 29 131 C29 139.91 29 148.82 29 158 C25.33333333 158 21.66666667 158 18 158 C17.979375 159.258125 17.95875 160.51625 17.9375 161.8125 C17.92589844 162.52019531 17.91429687 163.22789062 17.90234375 163.95703125 C17.91736783 166.20305461 17.91736783 166.20305461 19 169 C15.25006521 169.05811773 11.50024648 169.09363593 7.75 169.125 C6.68652344 169.14175781 5.62304688 169.15851563 4.52734375 169.17578125 C2.99013672 169.18544922 2.99013672 169.18544922 1.421875 169.1953125 C0.47924805 169.20578613 -0.46337891 169.21625977 -1.43457031 169.22705078 C-4.09951941 168.99119213 -5.71863092 168.35661659 -8 167 C-8 167.66 -8 168.32 -8 169 C-9.32 169 -10.64 169 -12 169 C-12.02341046 156.68870037 -12.04105867 144.37740623 -12.05181217 132.06608868 C-12.05697933 126.34637846 -12.06396138 120.62668373 -12.07543945 114.90698242 C-12.16357493 69.84050827 -12.16357493 69.84050827 -11.22485352 49.31713867 C-10.88281041 41.81407642 -10.88725465 34.32224764 -10.9375 26.8125 C-10.94255698 25.44205904 -10.94711202 24.07161615 -10.95117188 22.70117188 C-10.96259866 19.46739276 -10.9787706 16.23372679 -11 13 C-10.34 12.67 -9.68 12.34 -9 12 C-8.34 12.33 -7.68 12.66 -7 13 C-7 13.66 -7 14.32 -7 15 C-4.69 15 -2.38 15 0 15 C0 10.05 0 5.1 0 0 Z " fill="#00E771" transform="translate(1027,44)"/>
<path d="M0 0 C1.10859375 0.0721875 2.2171875 0.144375 3.359375 0.21875 C4.82291241 0.3125665 6.28645431 0.40631282 7.75 0.5 C8.47960937 0.54769531 9.20921875 0.59539062 9.9609375 0.64453125 C13.31810164 0.85816897 16.63436276 1 20 1 C21.33333333 1 22.66666667 1 24 1 C24 1.66 24 2.32 24 3 C24.5775 2.7525 25.155 2.505 25.75 2.25 C26.4925 2.1675 27.235 2.085 28 2 C29.37562854 3.28965176 30.70766393 4.62689293 32 6 C33.32860925 6.35169068 34.66158328 6.68770276 36 7 C36.99 8.485 36.99 8.485 38 10 C39.64155367 11.77834981 40.82635771 12.91317885 43 14 C43 14.99 43 15.98 43 17 C43.66 17 44.32 17 45 17 C45.0825 17.5775 45.165 18.155 45.25 18.75 C45.8493544 21.16132427 45.8493544 21.16132427 48 22.8125 C50.66764344 25.73023501 50.7028631 28.13722032 51 32 C50.34 32 49.68 32 49 32 C49 32.99 49 33.98 49 35 C50.485 35.495 50.485 35.495 52 36 C51.67 36.99 51.34 37.98 51 39 C50.90985187 41.37644017 50.88243701 43.75539895 50.88647461 46.13354492 C50.88632858 46.85574722 50.88618256 47.57794952 50.8860321 48.32203674 C50.88672855 50.70821134 50.8945084 53.09430779 50.90234375 55.48046875 C50.90420888 57.1352789 50.90563234 58.79008961 50.90663147 60.44490051 C50.91044915 64.79981003 50.92027305 69.15468618 50.93133545 73.50958252 C50.94156567 77.95364938 50.94613255 82.39772163 50.95117188 86.84179688 C50.96189598 95.56121323 50.97896343 104.28060246 51 113 C49.515 113.495 49.515 113.495 48 114 C47.34 113.34 46.68 112.68 46 112 C46 112.66 46 113.32 46 114 C44.02 114.33 42.04 114.66 40 115 C39.91995518 118.5219721 39.95994298 121.61981469 41 125 C39.68 125 38.36 125 37 125 C37 124.34 37 123.68 37 123 C36.01 123 35.02 123 34 123 C34 123.66 34 124.32 34 125 C26.66666667 125 19.33333333 125 12 125 C10 118.375 10 118.375 10 115 C10.66 114.34 11.32 113.68 12 113 C11.34 111.35 10.68 109.7 10 108 C10.66 107.34 11.32 106.68 12 106 C12.16687448 103.41645782 12.16687448 103.41645782 12 101 C11.34 100.67 10.68 100.34 10 100 C10 97.66666667 10 95.33333333 10 93 C9.979375 91.824375 9.95875 90.64875 9.9375 89.4375 C10 86 10 86 11 85 C10.7834375 84.13375 10.7834375 84.13375 10.5625 83.25 C9.93535809 80.74143235 9.93551611 78.57935565 10 76 C10 74.68 10 73.36 10 72 C10.14553627 70.62260319 10.31216104 69.24726794 10.5 67.875 C10.97569348 64.18837551 10.95291241 61.22036397 10.5625 57.5625 C10.48128906 56.78003906 10.40007812 55.99757812 10.31640625 55.19140625 C10.04137835 52.82844775 10.04137835 52.82844775 9 50 C9.33 49.67 9.66 49.34 10 49 C9.360625 48.401875 8.72125 47.80375 8.0625 47.1875 C6 45 6 45 5 42 C4.175 41.67 3.35 41.34 2.5 41 C1.675 40.67 0.85 40.34 0 40 C-0.33 39.01 -0.66 38.02 -1 37 C-3.97 37.495 -3.97 37.495 -7 38 C-7 37.34 -7 36.68 -7 36 C-9.64 36 -12.28 36 -15 36 C-15.33 36.99 -15.66 37.98 -16 39 C-16.99 38.34 -17.98 37.68 -19 37 C-19.33 37.99 -19.66 38.98 -20 40 C-20.99 40 -21.98 40 -23 40 C-23 40.66 -23 41.32 -23 42 C-23.66 42 -24.32 42 -25 42 C-24.505 43.98 -24.505 43.98 -24 46 C-24.66 46 -25.32 46 -26 46 C-26 46.78038635 -26 47.56077271 -26 48.36480713 C-26 69.90987142 -26 91.45493571 -26 113 C-29.63 113 -33.26 113 -37 113 C-36.67 116.63 -36.34 120.26 -36 124 C-43.59 124 -51.18 124 -59 124 C-59 123.34 -59 122.68 -59 122 C-59.66 122 -60.32 122 -61 122 C-61 122.66 -61 123.32 -61 124 C-62.32 124 -63.64 124 -65 124 C-64.9285376 123.19412445 -64.8570752 122.3882489 -64.78344727 121.55795288 C-64.05852462 112.59843126 -63.87682913 103.73190331 -63.92483521 94.74873734 C-63.93786936 92.28165072 -63.94418192 89.81461934 -63.94897461 87.34750366 C-63.96218141 81.22392899 -63.98638257 75.10040786 -64.01037598 68.97686768 C-64.03030762 63.78155163 -64.0458612 58.58625588 -64.05593872 53.3909111 C-64.06229423 50.99173971 -64.07479628 48.59265591 -64.08764648 46.19351196 C-64.1142684 38.81310806 -64.03021244 31.44095731 -63.68359375 24.06787109 C-63.6261499 22.7793222 -63.56870605 21.49077332 -63.50952148 20.16317749 C-62.9879577 16.92523977 -62.60516131 15.89184073 -60 14 C-59.01 14.66 -58.02 15.32 -57 16 C-57 15.67 -57 15.34 -57 15 C-55.35 15 -53.7 15 -52 15 C-52.02320313 14.31292969 -52.04640625 13.62585938 -52.0703125 12.91796875 C-52.08835937 12.01691406 -52.10640625 11.11585937 -52.125 10.1875 C-52.14820313 9.29417969 -52.17140625 8.40085937 -52.1953125 7.48046875 C-52 5 -52 5 -50 2 C-49.34 2 -48.68 2 -48 2 C-48 2.99 -48 3.98 -48 5 C-47.34 5 -46.68 5 -46 5 C-46.33 4.01 -46.66 3.02 -47 2 C-41.39 2 -35.78 2 -30 2 C-30 2.66 -30 3.32 -30 4 C-29.34 4 -28.68 4 -28 4 C-28 3.34 -28 2.68 -28 2 C-26.68 2.33 -25.36 2.66 -24 3 C-24 3.99 -24 4.98 -24 6 C-24.66 6 -25.32 6 -26 6 C-25.43260132 10.12973628 -25.43260132 10.12973628 -24 14 C-21.12579877 11.28395285 -21.12579877 11.28395285 -19 8 C-16.4375 7.375 -16.4375 7.375 -14 7 C-13.67 6.01 -13.34 5.02 -13 4 C-10.56640625 3.015625 -10.56640625 3.015625 -7.5625 2.25 C-6.57378906 1.98703125 -5.58507812 1.7240625 -4.56640625 1.453125 C-2 1 -2 1 0 2 C0 1.34 0 0.68 0 0 Z M12 109 C13 111 13 111 13 111 Z M12 116 C13 118 13 118 13 118 Z " fill="#00E872" transform="translate(956,88)"/>
<path d="M0 0 C9.57 0 19.14 0 29 0 C29.02760158 10.27085558 29.05107395 20.54162569 29.0625 30.8125 C29.06335602 31.57649612 29.06421204 32.34049225 29.06509399 33.12763977 C29.09341526 61.76817627 28.67378551 90.36411592 28 119 C52.75 119.33 77.5 119.66 103 120 C103 128.91 103 137.82 103 147 C99.7 147 96.4 147 93 147 C93 147.66 93 148.32 93 149 C93 152 93 155 93 158 C92.01 158 91.02 158 90 158 C90 157.34 90 156.68 90 156 C87.69 156 85.38 156 83 156 C83 156.66 83 157.32 83 158 C67.82 158 52.64 158 37 158 C37 157.34 37 156.68 37 156 C36.34 156 35.68 156 35 156 C35 156.66 35 157.32 35 158 C30.23519254 158.02501716 25.47042466 158.04300757 20.70556641 158.05493164 C19.08999972 158.05991102 17.47443742 158.06669694 15.85888672 158.07543945 C13.51528836 158.08778948 11.17175035 158.09329228 8.828125 158.09765625 C8.12447815 158.10281754 7.4208313 158.10797882 6.69586182 158.11329651 C0.4318431 158.11397258 -5.76575704 157.57993436 -12 157 C-11.89023589 144.90369425 -11.77725612 132.80742261 -11.66066074 120.71118069 C-11.60655421 115.08847192 -11.55337483 109.46575828 -11.50268555 103.84301758 C-11.22275285 72.88915387 -10.73644913 41.94645751 -10 11 C-6.05523353 10.19311595 -4.00001715 9.99999571 0 11 C0 7.37 0 3.74 0 0 Z " fill="#00E872" transform="translate(732,53)"/>
<path d="M0 0 C0.99 0.33 1.98 0.66 3 1 C3.33 1 3.66 1 4 1 C4.99 1 5.98 1 7 1 C6.86160047 5.12528499 6.7130259 9.25014108 6.5625 13.375 C6.52318359 14.550625 6.48386719 15.72625 6.44335938 16.9375 C6.40146484 18.05898437 6.35957031 19.18046875 6.31640625 20.3359375 C6.27974854 21.37282715 6.24309082 22.4097168 6.20532227 23.47802734 C6 26 6 26 5 28 C4.01 28 3.02 28 2 28 C2 27.34 2 26.68 2 26 C0.02 26.33 -1.96 26.66 -4 27 C-3.97679687 27.77085938 -3.95359375 28.54171875 -3.9296875 29.3359375 C-3.91164063 30.33882812 -3.89359375 31.34171875 -3.875 32.375 C-3.85179687 33.37273437 -3.82859375 34.37046875 -3.8046875 35.3984375 C-4 38 -4 38 -6 40 C-6.33 39.67 -6.66 39.34 -7 39 C-9.01594582 38.76572222 -11.038474 38.58663876 -13.0625 38.4375 C-14.16722656 38.35371094 -15.27195312 38.26992187 -16.41015625 38.18359375 C-17.26480469 38.12300781 -18.11945312 38.06242187 -19 38 C-19 38.66 -19 39.32 -19 40 C-20.32 39.67 -21.64 39.34 -23 39 C-23 39.66 -23 40.32 -23 41 C-23.78375 41.2475 -24.5675 41.495 -25.375 41.75 C-28.07030317 42.75828628 -28.07030317 42.75828628 -29.25 44.875 C-29.9709621 46.91772594 -30.55057325 48.88127388 -31 51 C-31.17135468 51.76782806 -31.34270935 52.53565613 -31.51925659 53.32675171 C-31.98146269 55.89692041 -32.12684882 58.22730565 -32.12939453 60.83447266 C-32.13412277 62.23084457 -32.13412277 62.23084457 -32.13894653 63.65542603 C-32.1369223 64.64827606 -32.13489807 65.6411261 -32.1328125 66.6640625 C-32.13376923 67.69308685 -32.13472595 68.72211121 -32.13571167 69.78231812 C-32.13639091 71.95253562 -32.13455448 74.12275517 -32.13037109 76.29296875 C-32.12500832 79.61983782 -32.13033038 82.94657256 -32.13671875 86.2734375 C-32.13605814 88.3828128 -32.13477733 90.49218801 -32.1328125 92.6015625 C-32.13483673 93.598461 -32.13686096 94.5953595 -32.13894653 95.62246704 C-32.13579437 96.54707733 -32.13264221 97.47168762 -32.12939453 98.42431641 C-32.12859894 99.2375235 -32.12780334 100.05073059 -32.12698364 100.88858032 C-32.07984255 103.19164772 -32.07984255 103.19164772 -31 106 C-31.33 106.66 -31.66 107.32 -32 108 C-39.75 108.125 -39.75 108.125 -42 107 C-42 109.31 -42 111.62 -42 114 C-41.34 114.33 -40.68 114.66 -40 115 C-40.66 116.32 -41.32 117.64 -42 119 C-45.58331625 119.02907084 -49.16660208 119.04682263 -52.75 119.0625 C-53.76578125 119.07087891 -54.7815625 119.07925781 -55.828125 119.08789062 C-56.8078125 119.09111328 -57.7875 119.09433594 -58.796875 119.09765625 C-59.69760742 119.10289307 -60.59833984 119.10812988 -61.52636719 119.11352539 C-63.83389804 119.00762312 -65.79134405 118.65132813 -68 118 C-68.33 116.68 -68.66 115.36 -69 114 C-68.34 114 -67.68 114 -67 114 C-67 99.48 -67 84.96 -67 70 C-67.66 70 -68.32 70 -69 70 C-68.67 68.68 -68.34 67.36 -68 66 C-67.34 66.33 -66.68 66.66 -66 67 C-66.08378906 66.0821875 -66.16757812 65.164375 -66.25390625 64.21875 C-66.8019414 57.61457959 -67.17599657 51.53331426 -66 45 C-66.66 45 -67.32 45 -68 45 C-68 43.68 -68 42.36 -68 41 C-67.34 41 -66.68 41 -66 41 C-66 38.36 -66 35.72 -66 33 C-66.66 33 -67.32 33 -68 33 C-68.125 26.25 -68.125 26.25 -67 24 C-67.165 22.845 -67.33 21.69 -67.5 20.5 C-68 17 -68 17 -67 15 C-63.7 15 -60.4 15 -57 15 C-57 13.02 -57 11.04 -57 9 C-57.33 9 -57.66 9 -58 9 C-58 7.02 -58 5.04 -58 3 C-56.80310547 3.23203125 -56.80310547 3.23203125 -55.58203125 3.46875 C-50.46728527 4.22731647 -45.35496841 4.38720181 -40.19335938 4.60546875 C-34.10333469 4.89666531 -34.10333469 4.89666531 -33 6 C-32.92820036 7.51928038 -32.91607993 9.04167482 -32.9375 10.5625 C-32.94652344 11.38878906 -32.95554687 12.21507813 -32.96484375 13.06640625 C-32.97644531 13.70449219 -32.98804688 14.34257813 -33 15 C-32.38125 14.34 -31.7625 13.68 -31.125 13 C-29 11 -29 11 -27 11 C-27 9.68 -27 8.36 -27 7 C-25.68 7 -24.36 7 -23 7 C-22.67 6.34 -22.34 5.68 -22 5 C-20.68 5 -19.36 5 -18 5 C-18 4.34 -18 3.68 -18 3 C-16.25 1.875 -16.25 1.875 -14 1 C-11.75 1.875 -11.75 1.875 -10 3 C-10 2.34 -10 1.68 -10 1 C-9.36191406 1.01160156 -8.72382812 1.02320312 -8.06640625 1.03515625 C-7.24011719 1.04417969 -6.41382813 1.05320312 -5.5625 1.0625 C-4.32693359 1.07990234 -4.32693359 1.07990234 -3.06640625 1.09765625 C-1.00836062 1.23267348 -1.00836062 1.23267348 0 0 Z " fill="#FFFFFF" transform="translate(545,90)"/>
<path d="M0 0 C1.084021 0.00523682 2.16804199 0.01047363 3.28491211 0.01586914 C4.45473633 0.0190918 5.62456055 0.02231445 6.82983398 0.02563477 C8.0615332 0.03401367 9.29323242 0.04239258 10.56225586 0.05102539 C12.41560547 0.05779297 12.41560547 0.05779297 14.30639648 0.06469727 C17.37089703 0.07652931 20.43530307 0.09301366 23.49975586 0.11352539 C23.49975586 0.77352539 23.49975586 1.43352539 23.49975586 2.11352539 C24.15975586 2.11352539 24.81975586 2.11352539 25.49975586 2.11352539 C25.49975586 5.08352539 25.49975586 8.05352539 25.49975586 11.11352539 C27.97475586 11.60852539 27.97475586 11.60852539 30.49975586 12.11352539 C30.16975586 13.10352539 29.83975586 14.09352539 29.49975586 15.11352539 C28.83975586 15.11352539 28.17975586 15.11352539 27.49975586 15.11352539 C27.49975586 15.77352539 27.49975586 16.43352539 27.49975586 17.11352539 C26.50975586 17.60852539 26.50975586 17.60852539 25.49975586 18.11352539 C24.54319238 36.76177133 24.37140012 55.36894874 24.43109131 74.0345459 C24.4415553 77.66959015 24.44593687 81.30464212 24.45092773 84.93969727 C24.46146578 91.9976578 24.47839591 99.05558856 24.49975586 106.11352539 C23.83975586 106.11352539 23.17975586 106.11352539 22.49975586 106.11352539 C22.49975586 106.77352539 22.49975586 107.43352539 22.49975586 108.11352539 C19.85975586 108.44352539 17.21975586 108.77352539 14.49975586 109.11352539 C14.56163086 110.20665039 14.62350586 111.29977539 14.68725586 112.42602539 C14.49975586 116.11352539 14.49975586 116.11352539 13.45678711 117.82836914 C10.46609604 119.79231597 7.45087855 119.46692982 3.99975586 119.36352539 C3.34233398 119.35836914 2.68491211 119.35321289 2.00756836 119.34790039 C-3.85440621 119.2580617 -9.66952579 118.6944357 -15.50024414 118.11352539 C-15.46995117 117.43330322 -15.4396582 116.75308105 -15.40844727 116.05224609 C-14.75827655 100.62194464 -14.45636402 85.20652591 -14.46899414 69.76196289 C-14.46950272 69.08953489 -14.47001129 68.4171069 -14.47053528 67.72430229 C-14.47722196 60.88015555 -14.49529197 54.03610988 -14.52829742 47.19203949 C-14.53725283 45.21316703 -14.54372598 43.23428384 -14.5501709 41.25540161 C-14.55827911 38.81363038 -14.57057799 36.37186772 -14.5880127 33.93014526 C-14.60933923 26.64338064 -14.50836432 19.34254801 -13.50024414 12.11352539 C-13.17024414 11.78352539 -12.84024414 11.45352539 -12.50024414 11.11352539 C-10.97505138 11.20290342 -9.45342485 11.35889685 -7.93774414 11.55102539 C-7.11145508 11.65286133 -6.28516602 11.75469727 -5.43383789 11.85961914 C-4.79575195 11.9434082 -4.15766602 12.02719727 -3.50024414 12.11352539 C-3.5118457 11.33106445 -3.52344727 10.54860352 -3.53540039 9.74243164 C-3.54442383 8.73051758 -3.55344727 7.71860352 -3.56274414 6.67602539 C-3.5743457 5.66668945 -3.58594727 4.65735352 -3.59790039 3.61743164 C-3.46630953 0.243442 -3.37173182 0.15309592 0 0 Z " fill="#00E771" transform="translate(854.500244140625,92.886474609375)"/>
<path d="M0 0 C0.99 0 1.98 0 3 0 C3 0.66 3 1.32 3 2 C9.6 2 16.2 2 23 2 C23 1.34 23 0.68 23 0 C23.99 0 24.98 0 26 0 C26.91071616 2.73214847 27.12726901 4.32708023 27.13371277 7.13696289 C27.13797775 7.97816681 27.14224274 8.81937073 27.14663696 9.68606567 C27.14618378 10.60564056 27.14573059 11.52521545 27.14526367 12.47265625 C27.14862228 13.44363251 27.1519809 14.41460876 27.15544128 15.41500854 C27.16495552 18.63085197 27.16689451 21.84664337 27.16796875 25.0625 C27.17118052 27.29305035 27.17454453 29.52360049 27.17805481 31.75415039 C27.18404693 36.43148284 27.18589458 41.1087968 27.18530273 45.78613281 C27.185201 51.78877038 27.19886472 57.79128996 27.21607494 63.79389954 C27.22717465 68.40059965 27.22922258 73.00727103 27.22869301 77.61398315 C27.22987575 79.82763069 27.2343139 82.04127891 27.24202538 84.25491333 C27.25178619 87.34580848 27.24896291 90.43644472 27.24291992 93.52734375 C27.24853943 94.44691864 27.25415894 95.36649353 27.25994873 96.31393433 C27.25575424 97.15513824 27.25155975 97.99634216 27.24723816 98.86303711 C27.24778293 99.59380966 27.24832769 100.32458221 27.24888897 101.07749939 C27 103 27 103 25 106 C21.4375 106.25 21.4375 106.25 18 106 C17.505 105.505 17.505 105.505 17 105 C17.04125 106.051875 17.0825 107.10375 17.125 108.1875 C17.00852125 111.74010173 16.52791932 113.84866641 15 117 C8.50909091 117.12727273 8.50909091 117.12727273 5.5 116.375 C2.02285484 115.85342823 -0.65552009 117.02706039 -4 118 C-6.25 117.625 -6.25 117.625 -8 117 C-8.99 117 -9.98 117 -11 117 C-10.67 82.35 -10.34 47.7 -10 12 C-9.01 12 -8.02 12 -7 12 C-7 12.66 -7 13.32 -7 14 C-3.535 13.505 -3.535 13.505 0 13 C0.10968626 6.92747004 0.10968626 6.92747004 -1 1 C-0.67 0.67 -0.34 0.34 0 0 Z " fill="#FFFFFF" transform="translate(563,92)"/>
<path d="M0 0 C1.06992187 0.01353516 2.13984375 0.02707031 3.2421875 0.04101562 C5.87031511 0.07621376 8.49739194 0.12545307 11.125 0.1875 C11.125 0.8475 11.125 1.5075 11.125 2.1875 C12.1975 2.435 13.27 2.6825 14.375 2.9375 C18.2055041 4.2143347 19.57459859 5.18166977 22.125 8.1875 C22.7025 8.6825 23.28 9.1775 23.875 9.6875 C25.125 11.1875 25.125 11.1875 25.125 15.1875 C25.785 15.1875 26.445 15.1875 27.125 15.1875 C29.45556629 18.68334944 29.53197006 20.66433604 29.8125 24.8125 C29.89886719 25.98039062 29.98523438 27.14828125 30.07421875 28.3515625 C30.09097656 29.28742187 30.10773437 30.22328125 30.125 31.1875 C29.63 31.6825 29.63 31.6825 29.125 32.1875 C28.78573053 34.51997761 28.45259934 36.85335471 28.125 39.1875 C27.63 40.1775 27.63 40.1775 27.125 41.1875 C26.465 41.1875 25.805 41.1875 25.125 41.1875 C25.72683749 43.20795442 26.39806096 45.20861039 27.125 47.1875 C28.115 47.6825 28.115 47.6825 29.125 48.1875 C29.125 48.8475 29.125 49.5075 29.125 50.1875 C30.115 50.6825 30.115 50.6825 31.125 51.1875 C33.75 52.75 33.75 52.75 36.125 55.1875 C36.56949311 57.98834213 36.36331364 60.32773636 36.125 63.1875 C31.835 63.1875 27.545 63.1875 23.125 63.1875 C22.63 61.2075 22.63 61.2075 22.125 59.1875 C21.135 58.8575 20.145 58.5275 19.125 58.1875 C18.465 57.1975 17.805 56.2075 17.125 55.1875 C15.36466377 54.1626247 15.36466377 54.1626247 13.125 54.1875 C12.320625 54.661875 11.51625 55.13625 10.6875 55.625 C3.26732242 58.87946385 -5.37051203 57.85576239 -12.875 55.1875 C-13.535 55.1875 -14.195 55.1875 -14.875 55.1875 C-14.875 54.5275 -14.875 53.8675 -14.875 53.1875 C-15.865 52.8575 -16.855 52.5275 -17.875 52.1875 C-19.5625 50.75 -19.5625 50.75 -20.875 49.1875 C-20.875 48.5275 -20.875 47.8675 -20.875 47.1875 C-21.865 46.8575 -22.855 46.5275 -23.875 46.1875 C-23.875 45.5275 -23.875 44.8675 -23.875 44.1875 C-24.865 43.8575 -25.855 43.5275 -26.875 43.1875 C-29.74333596 38.50606873 -29.20574176 32.9922041 -29.1875 27.6875 C-29.20361328 26.75035156 -29.21972656 25.81320313 -29.23632812 24.84765625 C-29.24256414 16.05487293 -29.24256414 16.05487293 -25.875 12.1875 C-25.215 12.1875 -24.555 12.1875 -23.875 12.1875 C-23.4728125 10.9809375 -23.4728125 10.9809375 -23.0625 9.75 C-22.670625 8.904375 -22.27875 8.05875 -21.875 7.1875 C-20.885 6.8575 -19.895 6.5275 -18.875 6.1875 C-18.545 5.1975 -18.215 4.2075 -17.875 3.1875 C-12.3666125 -0.79077986 -6.48762568 -0.15579889 0 0 Z M-13.875 16.1875 C-13.875 16.8475 -13.875 17.5075 -13.875 18.1875 C-14.535 18.1875 -15.195 18.1875 -15.875 18.1875 C-16.80923645 21.19781744 -16.91949911 22.05400268 -15.875 25.1875 C-16.535 25.1875 -17.195 25.1875 -17.875 25.1875 C-18.24777733 30.28212356 -17.22058918 33.66386373 -14.875 38.1875 C-10.07584681 43.73652088 -5.02804669 45.49992032 2.125 46.1875 C5.61407847 45.47579185 5.61407847 45.47579185 8.125 44.1875 C8.125 43.5275 8.125 42.8675 8.125 42.1875 C9.445 42.1875 10.765 42.1875 12.125 42.1875 C17.20194121 33.45303757 17.20194121 33.45303757 17.8125 23.6875 C16.56038026 19.45643606 14.68761774 16.88118658 11.125 14.1875 C10.135 13.8575 9.145 13.5275 8.125 13.1875 C7.795 12.5275 7.465 11.8675 7.125 11.1875 C-0.99815469 8.47978177 -8.48724879 9.08964345 -13.875 16.1875 Z " fill="#F8EE02" transform="translate(850.875,27.8125)"/>
<path d="M0 0 C3.47213542 2.56276662 4.64566182 5.12020493 6.625 8.9375 C7.285 9.2675 7.945 9.5975 8.625 9.9375 C9.21456456 20.98637648 9.21456456 20.98637648 5.625 25.9375 C3 27.125 3 27.125 0.625 27.9375 C0.13 29.4225 0.13 29.4225 -0.375 30.9375 C-1.365 31.4325 -1.365 31.4325 -2.375 31.9375 C-3.09227778 33.58301962 -3.75825228 35.25172289 -4.375 36.9375 C-4.705 37.5975 -5.035 38.2575 -5.375 38.9375 C-7.9375 39.5625 -7.9375 39.5625 -10.375 39.9375 C-10.375 40.5975 -10.375 41.2575 -10.375 41.9375 C-12.60355574 42.0189222 -14.83297655 42.07688079 -17.0625 42.125 C-18.92455078 42.17720703 -18.92455078 42.17720703 -20.82421875 42.23046875 C-24.57491035 41.92100575 -26.44218955 41.25346695 -29.375 38.9375 C-29.375 38.2775 -29.375 37.6175 -29.375 36.9375 C-30.035 36.9375 -30.695 36.9375 -31.375 36.9375 C-34.77955066 33.00917231 -34.76726317 29.26797167 -34.59765625 24.3125 C-34.3312523 21.47085789 -33.89659832 19.37205732 -32.375 16.9375 C-30.3125 15.8125 -30.3125 15.8125 -28.375 14.9375 C-28.045 13.9475 -27.715 12.9575 -27.375 11.9375 C-26.715 11.628125 -26.055 11.31875 -25.375 11 C-24.715 10.649375 -24.055 10.29875 -23.375 9.9375 C-23.21 9.2775 -23.045 8.6175 -22.875 7.9375 C-22.71 7.2775 -22.545 6.6175 -22.375 5.9375 C-21.05852881 5.23812468 -19.72477849 4.57020867 -18.375 3.9375 C-18.045 2.9475 -17.715 1.9575 -17.375 0.9375 C-12.20983667 -2.49446408 -5.66709345 -1.78408498 0 0 Z " fill="#FFFFFF" transform="translate(583.375,48.0625)"/>
<path d="M0 0 C0.99 0.33 1.98 0.66 3 1 C3 4.3 3 7.6 3 11 C-0.3 11 -3.6 11 -7 11 C-7 11.66 -7 12.32 -7 13 C-7 16 -7 19 -7 22 C-7.99 22 -8.98 22 -10 22 C-10 21.34 -10 20.68 -10 20 C-12.31 20 -14.62 20 -17 20 C-17 20.66 -17 21.32 -17 22 C-32.18 22 -47.36 22 -63 22 C-63 21.34 -63 20.68 -63 20 C-63.66 20 -64.32 20 -65 20 C-65 20.66 -65 21.32 -65 22 C-69.80142856 22.02494747 -74.60281836 22.04297577 -79.40429688 22.05493164 C-81.03353534 22.05992239 -82.66276942 22.06671735 -84.29199219 22.07543945 C-92.93196627 22.12049453 -101.41302461 22.10156149 -110 21 C-110 20.01 -110 19.02 -110 18 C-77 18 -44 18 -10 18 C-10 15.69 -10 13.38 -10 11 C-9.67 9.68 -9.34 8.36 -9 7 C-5.7 7 -2.4 7 1 7 C0.505 3.535 0.505 3.535 0 0 Z " fill="#05DB6D" transform="translate(832,189)"/>
<path d="M0 0 C0.99 0.33 1.98 0.66 3 1 C3 1.66 3 2.32 3 3 C3.99 3 4.98 3 6 3 C6 3.66 6 4.32 6 5 C4.68 5 3.36 5 2 5 C2.00261841 5.88063614 2.00523682 6.76127228 2.00793457 7.66859436 C2.08321543 37.67123446 1.82849153 67.66872234 1.53643799 97.66973877 C1.47475976 104.04739121 1.41521916 110.42506363 1.35546875 116.80273438 C1.23900531 129.2018427 1.12027749 141.60092812 1 154 C1.99 154.33 2.98 154.66 4 155 C3.34 155 2.68 155 2 155 C2 155.66 2 156.32 2 157 C0.68 157 -0.64 157 -2 157 C-2.02341046 144.68870037 -2.04105867 132.37740623 -2.05181217 120.06608868 C-2.05697933 114.34637846 -2.06396138 108.62668373 -2.07543945 102.90698242 C-2.16337751 57.94799274 -2.16337751 57.94799274 -1.22045898 37.31274414 C-0.88242839 29.83115081 -0.92264812 22.36266243 -1 14.875 C-1.02664973 12.22652439 -1.04641544 9.57827767 -1.0625 6.9296875 C-1.07410156 5.80804199 -1.08570313 4.68639648 -1.09765625 3.53076172 C-1 1 -1 1 0 0 Z " fill="#00CB50" transform="translate(1017,56)"/>
<path d="M0 0 C1.98 0.495 1.98 0.495 4 1 C4 1.66 4 2.32 4 3 C4.99 3 5.98 3 7 3 C7 3.66 7 4.32 7 5 C5.68 5 4.36 5 3 5 C3.00222061 5.57101944 3.00444122 6.14203888 3.00672913 6.73036194 C3.13722835 42.26253515 2.93012184 77.78288607 2.5 113.3125 C2.48206327 114.79466948 2.48206327 114.79466948 2.46376419 116.30678177 C2.31519441 128.53793266 2.16053772 140.76900053 2 153 C1.01 153.33 0.02 153.66 -1 154 C-0.98747192 152.70486984 -0.97494385 151.40973969 -0.96203613 150.07536316 C-0.84215217 137.65363363 -0.72450317 125.23188451 -0.60884857 112.81011486 C-0.54937409 106.42947021 -0.48920701 100.04883392 -0.42724609 93.66821289 C-0.12460459 62.44455167 0.081934 31.22520588 0 0 Z " fill="#00DF65" transform="translate(1027,44)"/>
<path d="M0 0 C0.66 0.33 1.32 0.66 2 1 C2.12055077 22.03147264 1.93921151 42.98514255 1 64 C7.93 64.33 14.86 64.66 22 65 C21.67 65.99 21.34 66.98 21 68 C13.66666667 68 6.33333333 68 -1 68 C-3 61.375 -3 61.375 -3 58 C-2.34 57.34 -1.68 56.68 -1 56 C-1.66 54.35 -2.32 52.7 -3 51 C-2.34 50.34 -1.68 49.68 -1 49 C-0.83312552 46.41645782 -0.83312552 46.41645782 -1 44 C-1.66 43.67 -2.32 43.34 -3 43 C-3 40.66666667 -3 38.33333333 -3 36 C-3.020625 34.824375 -3.04125 33.64875 -3.0625 32.4375 C-3 29 -3 29 -2 28 C-2.144375 27.4225 -2.28875 26.845 -2.4375 26.25 C-3.06464191 23.74143235 -3.06448389 21.57935565 -3 19 C-3 17.68 -3 16.36 -3 15 C-2.85446373 13.62260319 -2.68783896 12.24726794 -2.5 10.875 C-1.95734289 7.32059486 -1.95734289 7.32059486 -2 5 C-1.36096883 3.32254318 -0.69658363 1.65438613 0 0 Z M-1 52 C0 54 0 54 0 54 Z M-1 59 C0 61 0 61 0 61 Z " fill="#08DB68" transform="translate(969,145)"/>
<path d="M0 0 C0.66 0 1.32 0 2 0 C2.03092383 9.93748826 2.05109017 19.87497209 2.0625 29.8125 C2.06335602 30.55274162 2.06421204 31.29298325 2.06509399 32.05565643 C2.09399626 60.3807404 1.71524603 88.68310515 1 117 C0.01 117 -0.98 117 -2 117 C-1.85823304 105.562447 -1.71222389 94.12495159 -1.5625 82.6875 C-1.55147877 81.84539223 -1.54045753 81.00328445 -1.52910233 80.13565826 C-1.17812629 53.41931248 -0.7313368 26.70907836 0 0 Z " fill="#03E178" transform="translate(759,55)"/>
<path d="M0 0 C0.99 0.33 1.98 0.66 3 1 C3 4.3 3 7.6 3 11 C-0.3 11 -3.6 11 -7 11 C-7 11.66 -7 12.32 -7 13 C-7 16 -7 19 -7 22 C-7.99 22 -8.98 22 -10 22 C-10 21.34 -10 20.68 -10 20 C-12.31 20 -14.62 20 -17 20 C-17 20.66 -17 21.32 -17 22 C-32.18 22 -47.36 22 -63 22 C-63 21.34 -63 20.68 -63 20 C-51.72326543 18.8437795 -40.5095327 18.88407041 -29.1875 18.9375 C-27.31966267 18.94252761 -25.45182401 18.94708827 -23.58398438 18.95117188 C-19.05595641 18.96207166 -14.52799317 18.97926597 -10 19 C-10.020625 17.7625 -10.04125 16.525 -10.0625 15.25 C-10.11433318 12.1400091 -9.782223 10.12889199 -9 7 C-5.7 7 -2.4 7 1 7 C0.505 3.535 0.505 3.535 0 0 Z " fill="#0ACE6F" transform="translate(832,189)"/>
<path d="M0 0 C5.74820144 2.44604317 5.74820144 2.44604317 6.9375 5.0625 C7 7 7 7 6 9 C-5.33333333 9 -16.66666667 9 -28 9 C-28 8.01 -28 7.02 -28 6 C-28.66 6 -29.32 6 -30 6 C-30.33 4.68 -30.66 3.36 -31 2 C-30.21834473 2.48218994 -30.21834473 2.48218994 -29.42089844 2.97412109 C-26.28597813 4.30257361 -23.66710392 4.3245499 -20.265625 4.4140625 C-18.97011719 4.45273438 -17.67460938 4.49140625 -16.33984375 4.53125 C-14.97656716 4.56270267 -13.61328582 4.59395007 -12.25 4.625 C-10.87106972 4.66320469 -9.49216266 4.70225787 -8.11328125 4.7421875 C-4.74232282 4.83648004 -1.37137022 4.9220822 2 5 C1.34 3.35 0.68 1.7 0 0 Z " fill="#0CD872" transform="translate(1118,205)"/>
<path d="M0 0 C0.33 0 0.66 0 1 0 C1.00586624 0.7722995 1.01173248 1.544599 1.01777649 2.34030151 C1.07562056 9.60967386 1.14764852 16.87870018 1.23571491 24.14776421 C1.28049052 27.88510875 1.31973023 31.62234247 1.34643555 35.35986328 C1.3723976 38.9651249 1.41274812 42.56996169 1.46318626 46.17496109 C1.47990338 47.5520513 1.49138743 48.92921507 1.49761391 50.30639267 C1.50720159 52.23156035 1.53692708 54.1565962 1.56762695 56.08154297 C1.57873001 57.17852509 1.58983307 58.2755072 1.60127258 59.4057312 C1.73285263 60.2618399 1.86443268 61.11794861 2 62 C2.99 62.66 3.98 63.32 5 64 C4.34 64 3.68 64 3 64 C3 64.66 3 65.32 3 66 C1.68 66 0.36 66 -1 66 C-1.02316034 57.83763585 -1.04093395 49.67528541 -1.05181217 41.51289654 C-1.0570329 37.72285998 -1.0641159 33.93284589 -1.07543945 30.14282227 C-1.08629704 26.48591198 -1.09228295 22.82902332 -1.09487724 19.17209816 C-1.0967263 17.77623975 -1.10033699 16.38038253 -1.10573006 14.98453331 C-1.11297844 13.03096036 -1.11340838 11.07736569 -1.11352539 9.1237793 C-1.115746 8.0112529 -1.11796661 6.8987265 -1.12025452 5.75248718 C-1 3 -1 3 0 0 Z " fill="#00B945" transform="translate(1016,147)"/>
<path d="M0 0 C0.66 0 1.32 0 2 0 C3.06927082 3.20781246 3.08634483 5.38936399 3.02172852 8.7565918 C3.00163223 9.93758957 2.98153595 11.11858734 2.96083069 12.33537292 C2.93379562 13.61044205 2.90676056 14.88551117 2.87890625 16.19921875 C2.85529526 17.50454056 2.83168427 18.80986237 2.80735779 20.15473938 C2.74458225 23.62197729 2.67549728 27.08906188 2.60510254 30.55615234 C2.53435999 34.09530669 2.46957849 37.63456958 2.40429688 41.17382812 C2.2753688 48.11600339 2.13977559 55.05803491 2 62 C1.34 62 0.68 62 0 62 C0 41.54 0 21.08 0 0 Z " fill="#00DB60" transform="translate(840,147)"/>
<path d="M0 0 C0.66 0 1.32 0 2 0 C2 1.98 2 3.96 2 6 C2.99 6.33 3.98 6.66 5 7 C3.98828125 8.484375 3.98828125 8.484375 2 10 C-0.69210835 10.24660534 -3.13006796 10.32782214 -5.8125 10.25 C-6.51181641 10.24484375 -7.21113281 10.2396875 -7.93164062 10.234375 C-12.04340115 10.17283321 -15.96567101 9.78533249 -20 9 C-20.33 8.01 -20.66 7.02 -21 6 C-14.07 6 -7.14 6 0 6 C0 4.02 0 2.04 0 0 Z " fill="#07D66A" transform="translate(864,202)"/>
<path d="M0 0 C0.66 0 1.32 0 2 0 C2 11.55 2 23.1 2 35 C0.515 35.495 0.515 35.495 -1 36 C-1.02922653 31.50001382 -1.04687482 27.00005235 -1.0625 22.5 C-1.07087891 21.2315625 -1.07925781 19.963125 -1.08789062 18.65625 C-1.10434137 12.33916501 -1.00091014 6.24189628 0 0 Z " fill="#00DA5F" transform="translate(841,109)"/>
<path d="M0 0 C0.99 0 1.98 0 3 0 C3 0.66 3 1.32 3 2 C3.66 2 4.32 2 5 2 C5 4.97 5 7.94 5 11 C6.65 11.33 8.3 11.66 10 12 C9.67 12.99 9.34 13.98 9 15 C8.34 15 7.68 15 7 15 C7 15.66 7 16.32 7 17 C6.01 16.67 5.02 16.34 4 16 C4 15.34 4 14.68 4 14 C3.01 14 2.02 14 1 14 C-0.04976964 10.85069107 -0.10131595 8.61185544 -0.0625 5.3125 C-0.05347656 4.31863281 -0.04445313 3.32476562 -0.03515625 2.30078125 C-0.02355469 1.54152344 -0.01195312 0.78226562 0 0 Z " fill="#04E26D" transform="translate(875,93)"/>
<path d="M0 0 C0.33 1.32 0.66 2.64 1 4 C-5.93 4 -12.86 4 -20 4 C-20.33 3.01 -20.66 2.02 -21 1 C-13.98194143 -0.10087193 -7.09434233 -0.09733092 0 0 Z " fill="#09D16A" transform="translate(917,208)"/>
<path d="M0 0 C0.33 0 0.66 0 1 0 C1.0292067 3.54164915 1.04686814 7.08326697 1.0625 10.625 C1.07087891 11.62402344 1.07925781 12.62304688 1.08789062 13.65234375 C1.1041087 18.55020275 1.04318537 23.18656199 0 28 C-0.99 27.67 -1.98 27.34 -3 27 C-3 14.52777778 -3 14.52777778 -2.5 10.875 C-1.95734289 7.32059486 -1.95734289 7.32059486 -2 5 C-1.36096883 3.32254318 -0.69658363 1.65438613 0 0 Z " fill="#08D95B" transform="translate(969,145)"/>
<path d="M0 0 C7.92 0 15.84 0 24 0 C24.33 1.32 24.66 2.64 25 4 C21.77113991 4.11667875 18.54282555 4.18740546 15.3125 4.25 C14.40048828 4.28351563 13.48847656 4.31703125 12.54882812 4.3515625 C11.21948242 4.37089844 11.21948242 4.37089844 9.86328125 4.390625 C9.05157471 4.41157227 8.23986816 4.43251953 7.40356445 4.45410156 C5 4 5 4 0 0 Z " fill="#08D16A" transform="translate(1018,209)"/>
<path d="M0 0 C1.32 0.33 2.64 0.66 4 1 C4 1.66 4 2.32 4 3 C4.99 3 5.98 3 7 3 C7 3.66 7 4.32 7 5 C5.68 5 4.36 5 3 5 C3.01160156 5.78761719 3.02320313 6.57523438 3.03515625 7.38671875 C3.1008018 15.31107387 2.72317286 23.10966757 2 31 C1.67 31 1.34 31 1 31 C0.29798179 20.64523146 -0.14809693 10.38324014 0 0 Z " fill="#00D559" transform="translate(1027,44)"/>
<path d="M0 0 C-1.61951281 3.50616176 -3.65984511 6.59026963 -5.875 9.75 C-6.89207031 11.22726563 -6.89207031 11.22726563 -7.9296875 12.734375 C-8.95449219 13.85585937 -8.95449219 13.85585937 -10 15 C-11.32 15 -12.64 15 -14 15 C-14.2475 15.61875 -14.495 16.2375 -14.75 16.875 C-16.20628639 19.35068687 -17.37812506 19.95125002 -20 21 C-18.57849991 17.86847752 -16.86435776 15.41856482 -14.625 12.8125 C-13.74714844 11.77029297 -13.74714844 11.77029297 -12.8515625 10.70703125 C-10.86548775 8.87598765 -9.63765924 8.38925808 -7 8 C-6.9175 7.4225 -6.835 6.845 -6.75 6.25 C-5.66186883 2.98560649 -3.65852651 0 0 0 Z " fill="#03D35B" transform="translate(1103,122)"/>
<path d="M0 0 C18.48 0.33 36.96 0.66 56 1 C56 1.33 56 1.66 56 2 C37.52 2.33 19.04 2.66 0 3 C0 2.01 0 1.02 0 0 Z " fill="#06D060" transform="translate(722,207)"/>
<path d="M0 0 C1.41623216 -0.05447047 2.83308191 -0.09300508 4.25 -0.125 C5.03890625 -0.14820313 5.8278125 -0.17140625 6.640625 -0.1953125 C9.20731941 0.0171622 10.7916067 0.71345895 13 2 C12.67 2.99 12.34 3.98 12 5 C10.20841511 5.02696365 8.41671527 5.04637917 6.625 5.0625 C5.62726562 5.07410156 4.62953125 5.08570313 3.6015625 5.09765625 C1 5 1 5 -1 4 C-0.67 2.68 -0.34 1.36 0 0 Z " fill="#08D971" transform="translate(918,196)"/>
<path d="M0 0 C0.66 0 1.32 0 2 0 C2 0.99 2 1.98 2 3 C2.66 3 3.32 3 4 3 C3.67 2.01 3.34 1.02 3 0 C8.61 0 14.22 0 20 0 C20 0.66 20 1.32 20 2 C13.01940909 2.95812032 6.02673515 3.49656013 -1 4 C-0.67 2.68 -0.34 1.36 0 0 Z " fill="#23C87B" transform="translate(906,90)"/>
<path d="M0 0 C0.99 0.33 1.98 0.66 3 1 C3 4.3 3 7.6 3 11 C-0.66666667 11 -4.33333333 11 -8 11 C-8.33 9.68 -8.66 8.36 -9 7 C-5.7 7 -2.4 7 1 7 C0.67 4.69 0.34 2.38 0 0 Z " fill="#07CB6A" transform="translate(832,189)"/>
<path d="M0 0 C0.66 0 1.32 0 2 0 C-0.5 5 -0.5 5 -3 10 C-3.66 10 -4.32 10 -5 10 C-5.2475 10.639375 -5.495 11.27875 -5.75 11.9375 C-7 14 -7 14 -9.125 14.75 C-10.053125 14.87375 -10.053125 14.87375 -11 15 C-10.40716913 11.39428893 -8.97258223 9.45570562 -6.5625 6.75 C-5.94503906 6.04359375 -5.32757812 5.3371875 -4.69140625 4.609375 C-3 3 -3 3 -1 3 C-0.67 2.01 -0.34 1.02 0 0 Z " fill="#04C14E" transform="translate(1126,96)"/>
<path d="M0 0 C3.96 0 7.92 0 12 0 C11 4 11 4 9 6 C6.03 5.01 3.06 4.02 0 3 C0 2.01 0 1.02 0 0 Z " fill="#05DD68" transform="translate(883,93)"/>
<path d="M0 0 C0.33 0.99 0.66 1.98 1 3 C-0.32 3.99 -1.64 4.98 -3 6 C-2.67 7.32 -2.34 8.64 -2 10 C-2.99 10.66 -3.98 11.32 -5 12 C-5 12.66 -5 13.32 -5 14 C-5.66 14 -6.32 14 -7 14 C-7.33 14.99 -7.66 15.98 -8 17 C-8.66 16.67 -9.32 16.34 -10 16 C-9.34 13.69 -8.68 11.38 -8 9 C-7.01 9 -6.02 9 -5 9 C-5 7.68 -5 6.36 -5 5 C-4.360625 4.731875 -3.72125 4.46375 -3.0625 4.1875 C-0.66868314 3.11332248 -0.66868314 3.11332248 0 0 Z " fill="#01E06A" transform="translate(938,116)"/>
<path d="M0 0 C3.4479635 1.14932117 3.96767838 1.98529269 6 4.875 C7.84615953 7.48077725 9.67801932 9.80241115 12 12 C11.67 12.66 11.34 13.32 11 14 C9.68 13.67 8.36 13.34 7 13 C6.896875 12.360625 6.79375 11.72125 6.6875 11.0625 C6.460625 10.381875 6.23375 9.70125 6 9 C5.01 8.67 4.02 8.34 3 8 C3 6.68 3 5.36 3 4 C2.34 4 1.68 4 1 4 C0.67 2.68 0.34 1.36 0 0 Z " fill="#00C54D" transform="translate(1053,167)"/>
<path d="M0 0 C0.99 0.33 1.98 0.66 3 1 C3.144375 1.598125 3.28875 2.19625 3.4375 2.8125 C3.83309115 5.18288756 3.83309115 5.18288756 6 6.8125 C8.66764344 9.73023501 8.7028631 12.13722032 9 16 C7.109375 15.76953125 7.109375 15.76953125 5 15 C3.953125 13.07421875 3.953125 13.07421875 3.25 10.6875 C3.00765625 9.90761719 2.7653125 9.12773438 2.515625 8.32421875 C2 6 2 6 2 2 C1.34 2 0.68 2 0 2 C0 1.34 0 0.68 0 0 Z " fill="#07C958" transform="translate(998,104)"/>
<path d="M0 0 C5.74820144 2.44604317 5.74820144 2.44604317 6.9375 5.0625 C7 7 7 7 6 9 C4.35 9 2.7 9 1 9 C0.34 7.68 -0.32 6.36 -1 5 C-0.01 5 0.98 5 2 5 C1.34 3.35 0.68 1.7 0 0 Z " fill="#09C660" transform="translate(1118,205)"/>
<path d="M0 0 C1.875 0.1875 1.875 0.1875 4 1 C6.09242143 4.6617375 6.19324053 7.84532871 6 12 C5.34 12 4.68 12 4 12 C3.34 10.35 2.68 8.7 2 7 C2.33 6.67 2.66 6.34 3 6 C1.68 4.68 0.36 3.36 -1 2 C-0.67 1.34 -0.34 0.68 0 0 Z " fill="#0FC05B" transform="translate(963,131)"/>
<path d="M0 0 C3.63 0 7.26 0 11 0 C10.67 1.32 10.34 2.64 10 4 C3.49618902 4.36814024 3.49618902 4.36814024 1.0625 2.5625 C0 1 0 1 0 0 Z " fill="#08CD69" transform="translate(1042,198)"/>
<path d="M0 0 C0.66 0 1.32 0 2 0 C2.03738281 0.62648437 2.07476563 1.25296875 2.11328125 1.8984375 C2.17902344 2.71570313 2.24476563 3.53296875 2.3125 4.375 C2.37050781 5.18710938 2.42851563 5.99921875 2.48828125 6.8359375 C2.82990528 9.37921338 2.82990528 9.37921338 6 11 C5.34 11 4.68 11 4 11 C4 11.66 4 12.32 4 13 C2.68 13 1.36 13 0 13 C0 8.71 0 4.42 0 0 Z " fill="#01C34E" transform="translate(1015,200)"/>
<path d="M0 0 C-0.33 0.99 -0.66 1.98 -1 3 C-1.66 3 -2.32 3 -3 3 C-3 3.66 -3 4.32 -3 5 C-8.75 5.125 -8.75 5.125 -11 4 C-11 3.01 -11 2.02 -11 1 C-7.26513121 0.4254048 -3.78706732 0 0 0 Z " fill="#0DC96E" transform="translate(1005,197)"/>
<path d="M0 0 C0 0.66 0 1.32 0 2 C1.98 2 3.96 2 6 2 C6 2.66 6 3.32 6 4 C3.03 4 0.06 4 -3 4 C-3 4.66 -3 5.32 -3 6 C-3.66 6 -4.32 6 -5 6 C-5 4.35 -5 2.7 -5 1 C-3 0 -3 0 0 0 Z " fill="#00D55B" transform="translate(727,63)"/>
<path d="M0 0 C0.99 0.33 1.98 0.66 3 1 C3.05389087 2.95803507 3.09274217 4.91648909 3.125 6.875 C3.14820313 7.96554688 3.17140625 9.05609375 3.1953125 10.1796875 C3 13 3 13 1 15 C-0.00746004 11.86567988 0.21545863 10.13816549 1 7 C0.59070014 4.94603274 0.59070014 4.94603274 0 3 C0 2.01 0 1.02 0 0 Z " fill="#14CB7B" transform="translate(966,174)"/>
<path d="M0 0 C3.96 0 7.92 0 12 0 C12 0.66 12 1.32 12 2 C9.03 2 6.06 2 3 2 C3 2.66 3 3.32 3 4 C2.01 4 1.02 4 0 4 C0 2.68 0 1.36 0 0 Z " fill="#15D47E" transform="translate(1116,200)"/>
<path d="M0 0 C0 3.77910478 -0.99703962 4.46106101 -3.5 7.1875 C-4.1496875 7.90292969 -4.799375 8.61835937 -5.46875 9.35546875 C-5.9740625 9.89816406 -6.479375 10.44085938 -7 11 C-7.66 10.67 -8.32 10.34 -9 10 C-9 8 -9 8 -7.75 6.625 C-7.1725 6.08875 -6.595 5.5525 -6 5 C-4.9790625 3.948125 -4.9790625 3.948125 -3.9375 2.875 C-2 1 -2 1 0 0 Z " fill="#07C754" transform="translate(1092,101)"/>
<path d="M0 0 C2 1 4 2 6 3 C7.70363822 3.22622081 9.41328701 3.40888473 11.125 3.5625 C12.03507812 3.64628906 12.94515625 3.73007813 13.8828125 3.81640625 C14.58148437 3.87699219 15.28015625 3.93757812 16 4 C16 4.33 16 4.66 16 5 C12.37 5 8.74 5 5 5 C5 5.66 5 6.32 5 7 C4.34 7 3.68 7 3 7 C3 6.01 3 5.02 3 4 C2.34 4 1.68 4 1 4 C0.67 2.68 0.34 1.36 0 0 Z " fill="#05CA59" transform="translate(1087,207)"/>
<path d="M0 0 C0.99 0.33 1.98 0.66 3 1 C3 4.33333333 3 7.66666667 3 11 C2.01 11 1.02 11 0 11 C0 7.37 0 3.74 0 0 Z " fill="#02C054" transform="translate(822,200)"/>
<path d="M0 0 C0.99 0.33 1.98 0.66 3 1 C3 1.66 3 2.32 3 3 C3.99 3 4.98 3 6 3 C6 3.66 6 4.32 6 5 C4.68 5 3.36 5 2 5 C2 5.66 2 6.32 2 7 C1.01 7.33 0.02 7.66 -1 8 C-1.04241723 5.66705225 -1.04092937 3.33297433 -1 1 C-0.67 0.67 -0.34 0.34 0 0 Z " fill="#0DD562" transform="translate(1017,56)"/>
<path d="M0 0 C1.32 0.33 2.64 0.66 4 1 C4 1.66 4 2.32 4 3 C4.99 3 5.98 3 7 3 C7 3.66 7 4.32 7 5 C5.68 5 4.36 5 3 5 C2.67 5.66 2.34 6.32 2 7 C1.34 6.67 0.68 6.34 0 6 C0 4.02 0 2.04 0 0 Z " fill="#10D563" transform="translate(1027,44)"/>
<path d="M0 0 C0.66 0 1.32 0 2 0 C2 3.63 2 7.26 2 11 C1.01 10.67 0.02 10.34 -1 10 C-1 7.69 -1 5.38 -1 3 C-0.34 3 0.32 3 1 3 C0.67 2.01 0.34 1.02 0 0 Z " fill="#00D456" transform="translate(1016,122)"/>
<path d="M0 0 C0 4.33685836 -2.08014014 5.9443327 -5 9 C-5.99 9 -6.98 9 -8 9 C-7.875 7.25 -7.875 7.25 -7 5 C-4 2.8125 -4 2.8125 -1 1 C-0.67 0.67 -0.34 0.34 0 0 Z " fill="#0DBF57" transform="translate(1070,123)"/>
<path d="M0 0 C0.99 0 1.98 0 3 0 C3 0.66 3 1.32 3 2 C4.32 1.67 5.64 1.34 7 1 C7.66 1.99 8.32 2.98 9 4 C5.18510326 5.46726798 2.70988378 4.43336419 -1 3 C-0.67 2.01 -0.34 1.02 0 0 Z " fill="#01B03C" transform="translate(977,89)"/>
<path d="M0 0 C5.28 0 10.56 0 16 0 C16 0.33 16 0.66 16 1 C12.04 1 8.08 1 4 1 C4 1.99 4 2.98 4 4 C2.68 3.34 1.36 2.68 0 2 C0 1.34 0 0.68 0 0 Z " fill="#07D560" transform="translate(1112,199)"/>
<path d="M0 0 C0.66 0.33 1.32 0.66 2 1 C2 4.63 2 8.26 2 12 C1.01 11.34 0.02 10.68 -1 10 C-0.67 6.7 -0.34 3.4 0 0 Z " fill="#16CB79" transform="translate(967,152)"/>
<path d="M0 0 C0.33 0.99 0.66 1.98 1 3 C-0.32 3 -1.64 3 -3 3 C-3.2475 3.61875 -3.495 4.2375 -3.75 4.875 C-5.20628639 7.35068687 -6.37812506 7.95125002 -9 9 C-7.45665977 5.21180126 -4.44676575 0 0 0 Z " fill="#08C453" transform="translate(1092,134)"/>
<path d="M0 0 C0.66 0.33 1.32 0.66 2 1 C1.4409112 4.24271506 0.5867822 5.93057424 -2 8 C-2.66 8 -3.32 8 -4 8 C-3.50168276 4.31245243 -2.89932357 2.39509338 0 0 Z " fill="#03BA4C" transform="translate(1110,113)"/>
<path d="M0 0 C0.99 0 1.98 0 3 0 C2.67 4.29 2.34 8.58 2 13 C0 11 0 11 -0.1953125 8.3984375 C-0.17210937 7.40070313 -0.14890625 6.40296875 -0.125 5.375 C-0.10695313 4.37210937 -0.08890625 3.36921875 -0.0703125 2.3359375 C-0.04710937 1.56507812 -0.02390625 0.79421875 0 0 Z " fill="#01DD5F" transform="translate(875,93)"/>
<path d="M0 0 C0.66 0 1.32 0 2 0 C2.33 2.97 2.66 5.94 3 9 C1.68 9 0.36 9 -1 9 C-0.67 6.03 -0.34 3.06 0 0 Z " fill="#04C24A" transform="translate(892,203)"/>
<path d="M0 0 C0.99 0.66 1.98 1.32 3 2 C3 1.67 3 1.34 3 1 C4.98 1 6.96 1 9 1 C8.67 1.66 8.34 2.32 8 3 C5.93359375 3.4140625 5.93359375 3.4140625 3.4375 3.625 C2.61121094 3.69976562 1.78492188 3.77453125 0.93359375 3.8515625 C-0.02353516 3.92503906 -0.02353516 3.92503906 -1 4 C-1.33 3.01 -1.66 2.02 -2 1 C-1.34 0.67 -0.68 0.34 0 0 Z " fill="#15D66F" transform="translate(896,102)"/>
<path d="M0 0 C0 0.99 0 1.98 0 3 C-3.375 3.125 -3.375 3.125 -7 3 C-7.66 2.34 -8.32 1.68 -9 1 C-5.8035914 -0.06546953 -3.34252724 -0.07427838 0 0 Z " fill="#0FCC82" transform="translate(876,198)"/>
<path d="M0 0 C0.99 0.33 1.98 0.66 3 1 C3 3.64 3 6.28 3 9 C2.01 8.67 1.02 8.34 0 8 C0 5.36 0 2.72 0 0 Z " fill="#17C578" transform="translate(966,164)"/>
<path d="M0 0 C1.0625 1.875 1.0625 1.875 2 4 C1.67 4.66 1.34 5.32 1 6 C0.34 6 -0.32 6 -1 6 C-1 6.66 -1 7.32 -1 8 C-1.66 8 -2.32 8 -3 8 C-3.36923077 3.44615385 -3.36923077 3.44615385 -1.5 1.1875 C-1.005 0.795625 -0.51 0.40375 0 0 Z " fill="#08C657" transform="translate(1059,132)"/>
<path d="M0 0 C1.32 0 2.64 0 4 0 C3.67 1.65 3.34 3.3 3 5 C2.34 5 1.68 5 1 5 C0.67 5.99 0.34 6.98 0 8 C-0.66 7.67 -1.32 7.34 -2 7 C-1.34 4.69 -0.68 2.38 0 0 Z " fill="#07CE5D" transform="translate(930,125)"/>
<path d="M0 0 C2.97 0 5.94 0 9 0 C8.67 0.99 8.34 1.98 8 3 C5.69 3 3.38 3 1 3 C0.67 2.01 0.34 1.02 0 0 Z " fill="#13C77C" transform="translate(982,210)"/>
<path d="M0 0 C1.875 0.3125 1.875 0.3125 4 1 C6 4 6 4 7 7 C4.13302508 5.71480435 2.02392288 4.42870746 0 2 C0 1.34 0 0.68 0 0 Z " fill="#06BF4E" transform="translate(988,94)"/>
<path d="M0 0 C1.98 0 3.96 0 6 0 C6 0.99 6 1.98 6 3 C3.69 3 1.38 3 -1 3 C-0.67 2.01 -0.34 1.02 0 0 Z " fill="#0DD775" transform="translate(828,10)"/>
<path d="M0 0 C1.65 0 3.3 0 5 0 C5 1.32 5 2.64 5 4 C3.35 4 1.7 4 0 4 C0 2.68 0 1.36 0 0 Z " fill="#05C94F" transform="translate(925,197)"/>
<path d="M0 0 C4.8 3.44615385 4.8 3.44615385 5.8125 6.25 C5.874375 6.8275 5.93625 7.405 6 8 C4.35 7.67 2.7 7.34 1 7 C0.67 4.69 0.34 2.38 0 0 Z " fill="#0AC95A" transform="translate(1059,173)"/>
<path d="M0 0 C1.485 0.99 1.485 0.99 3 2 C3.99 2 4.98 2 6 2 C6.33 2.99 6.66 3.98 7 5 C3 5 3 5 0 3 C0 2.01 0 1.02 0 0 Z " fill="#02C04D" transform="translate(955,124)"/>
<path d="M0 0 C0.33 0.99 0.66 1.98 1 3 C-0.3125 5.1875 -0.3125 5.1875 -2 7 C-2.66 7 -3.32 7 -4 7 C-3.6875 4.625 -3.6875 4.625 -3 2 C-2.01 1.34 -1.02 0.68 0 0 Z " fill="#00BD48" transform="translate(1076,116)"/>
<path d="M0 0 C0.66 0 1.32 0 2 0 C2 0.99 2 1.98 2 3 C5.465 2.505 5.465 2.505 9 2 C5.5980513 4.09350689 2.94727588 4.17942163 -1 4 C-0.67 2.68 -0.34 1.36 0 0 Z " fill="#15D66D" transform="translate(906,90)"/>
<path d="M0 0 C0 0.66 0 1.32 0 2 C-2.31 2.66 -4.62 3.32 -7 4 C-6.6875 2.0625 -6.6875 2.0625 -6 0 C-3 -1 -3 -1 0 0 Z " fill="#00B942" transform="translate(955,90)"/>
<path d="M0 0 C1.32 0.33 2.64 0.66 4 1 C4 1.99 4 2.98 4 4 C2.02 4 0.04 4 -2 4 C-2 3.34 -2 2.68 -2 2 C-1.34 2 -0.68 2 0 2 C0 1.34 0 0.68 0 0 Z " fill="#04C74A" transform="translate(928,90)"/>
<path d="M0 0 C1.98 0 3.96 0 6 0 C5.34 1.98 4.68 3.96 4 6 C3.67 5.01 3.34 4.02 3 3 C2.01 3 1.02 3 0 3 C0 2.01 0 1.02 0 0 Z " fill="#04DE78" transform="translate(864,198)"/>
<path d="M0 0 C0.66 0 1.32 0 2 0 C1 2 0 4 -1 6 C-2.32 5.67 -3.64 5.34 -5 5 C-4.360625 4.731875 -3.72125 4.46375 -3.0625 4.1875 C-0.66868314 3.11332248 -0.66868314 3.11332248 0 0 Z " fill="#00CD59" transform="translate(1126,96)"/>
<path d="M0 0 C0.66 0 1.32 0 2 0 C2 1.32 2 2.64 2 4 C-1 6.25 -1 6.25 -4 8 C-2.66666667 5.33333333 -1.33333333 2.66666667 0 0 Z " fill="#02BC44" transform="translate(937,96)"/>
<path d="M0 0 C0.66 0 1.32 0 2 0 C1.42655063 2.86724686 1.1385485 3.8614515 -1 6 C-1.66 5.67 -2.32 5.34 -3 5 C-3 4.01 -3 3.02 -3 2 C-2.01 2 -1.02 2 0 2 C0 1.34 0 0.68 0 0 Z " fill="#0ECA55" transform="translate(893,93)"/>
<path d="M0 0 C2.64 0 5.28 0 8 0 C8 0.33 8 0.66 8 1 C5.36 1 2.72 1 0 1 C0 0.67 0 0.34 0 0 Z " fill="#FFFFFF" transform="translate(563,209)"/>
<path d="M0 0 C0.33 0 0.66 0 1 0 C1 2.64 1 5.28 1 8 C0.67 8 0.34 8 0 8 C0 5.36 0 2.72 0 0 Z " fill="#FFFFFF" transform="translate(476,191)"/>
<path d="M0 0 C2.31 0 4.62 0 7 0 C7 0.33 7 0.66 7 1 C4.69 1 2.38 1 0 1 C0 0.67 0 0.34 0 0 Z " fill="#FFFFFF" transform="translate(617,49)"/>
<path d="M0 0 C0.33 0 0.66 0 1 0 C1 1.98 1 3.96 1 6 C0.67 6 0.34 6 0 6 C0 4.02 0 2.04 0 0 Z " fill="#FFFFFF" transform="translate(476,183)"/>
<path d="M0 0 C0 3 0 3 0 3 Z " fill="#FFFFFF" transform="translate(707,179)"/>
<path d="M0 0 C0.66 0 1.32 0 2 0 C2 0.66 2 1.32 2 2 C1.34 2 0.68 2 0 2 C0 1.34 0 0.68 0 0 Z " fill="#15A754" transform="translate(891,89)"/>
<path d="M0 0 C0.66 0 1.32 0 2 0 C2 0.66 2 1.32 2 2 C1.34 2 0.68 2 0 2 C0 1.34 0 0.68 0 0 Z " fill="#2EC47F" transform="translate(1045,44)"/>
<path d="" fill="#1DCC90" transform="translate(0,0)"/>
<path d="M0 0 C3 1 3 1 3 1 Z " fill="#FFFFFF" transform="translate(625,49)"/>
<path d="M0 0 C3 1 3 1 3 1 Z " fill="#FFFFFF" transform="translate(612,49)"/>
<path d="M0 0 C2 1 2 1 2 1 Z " fill="#11C181" transform="translate(819,210)"/>
<path d="" fill="#FFFFFF" transform="translate(0,0)"/>
<path d="M0 0 C2 1 2 1 2 1 Z " fill="#FFFFFF" transform="translate(606,60)"/>
<path d="M0 0 C2 1 2 1 2 1 Z " fill="#FFFFFF" transform="translate(602,60)"/>
<path d="" fill="#05E46F" transform="translate(0,0)"/>
<path d="" fill="#1BC289" transform="translate(0,0)"/>
<path d="" fill="#11C17B" transform="translate(0,0)"/>
<path d="" fill="#13BF82" transform="translate(0,0)"/>
<path d="" fill="#FFFFFF" transform="translate(0,0)"/>
<path d="" fill="#FFFFFF" transform="translate(0,0)"/>
<path d="" fill="#25AA6E" transform="translate(0,0)"/>
<path d="" fill="#1EBA88" transform="translate(0,0)"/>
<path d="" fill="#22B689" transform="translate(0,0)"/>
<path d="" fill="#FFFFFF" transform="translate(0,0)"/>
<path d="" fill="#FFFFFF" transform="translate(0,0)"/>
<path d="" fill="#03DF4D" transform="translate(0,0)"/>
<path d="" fill="#FFFFFF" transform="translate(0,0)"/>
<path d="" fill="#FFFFFF" transform="translate(0,0)"/>
<path d="" fill="#FFFFFF" transform="translate(0,0)"/>
<path d="" fill="#FFFFFF" transform="translate(0,0)"/>
<path d="" fill="#FFFFFF" transform="translate(0,0)"/>
<path d="" fill="#FFFFFF" transform="translate(0,0)"/>
<path d="" fill="#10FF92" transform="translate(0,0)"/>
<path d="" fill="#00EE70" transform="translate(0,0)"/>
<path d="" fill="#09FF88" transform="translate(0,0)"/>
<path d="" fill="#FFFFFF" transform="translate(0,0)"/>
<path d="" fill="#00F164" transform="translate(0,0)"/>
<path d="" fill="#28FF99" transform="translate(0,0)"/>
<path d="" fill="#00E656" transform="translate(0,0)"/>
<path d="" fill="#00F667" transform="translate(0,0)"/>
<path d="" fill="#07FF79" transform="translate(0,0)"/>
<path d="" fill="#03FF6D" transform="translate(0,0)"/>
<path d="" fill="#07FF8C" transform="translate(0,0)"/>
<path d="" fill="#1FFF9B" transform="translate(0,0)"/>
<path d="" fill="#0CFF80" transform="translate(0,0)"/>
<path d="" fill="#12FF89" transform="translate(0,0)"/>
<path d="" fill="#00E867" transform="translate(0,0)"/>
<path d="" fill="#25FF8B" transform="translate(0,0)"/>
<path d="" fill="#0FFF87" transform="translate(0,0)"/>
<path d="" fill="#06FF7F" transform="translate(0,0)"/>
<path d="" fill="#00EC6C" transform="translate(0,0)"/>
<path d="" fill="#1BFF8D" transform="translate(0,0)"/>
<path d="" fill="#0DFF8A" transform="translate(0,0)"/>
<path d="" fill="#00E862" transform="translate(0,0)"/>
<path d="" fill="#00FE6C" transform="translate(0,0)"/>
<path d="" fill="#00E66A" transform="translate(0,0)"/>
<path d="" fill="#23BC78" transform="translate(0,0)"/>
<path d="" fill="#FFFFFF" transform="translate(0,0)"/>
<path d="" fill="#17FF8B" transform="translate(0,0)"/>
<path d="" fill="#00F765" transform="translate(0,0)"/>
<path d="" fill="#15FF85" transform="translate(0,0)"/>
<path d="" fill="#11FF85" transform="translate(0,0)"/>
<path d="" fill="#0FFF80" transform="translate(0,0)"/>
<path d="" fill="#00E769" transform="translate(0,0)"/>
<path d="" fill="#13FF89" transform="translate(0,0)"/>
<path d="" fill="#09FF7D" transform="translate(0,0)"/>
<path d="" fill="#00F66D" transform="translate(0,0)"/>
<path d="" fill="#0AFF8B" transform="translate(0,0)"/>
<path d="" fill="#00F84D" transform="translate(0,0)"/>
<path d="" fill="#00D83A" transform="translate(0,0)"/>
<path d="" fill="#2FFF90" transform="translate(0,0)"/>
<path d="" fill="#00F952" transform="translate(0,0)"/>
<path d="" fill="#00F573" transform="translate(0,0)"/>
<path d="" fill="#00FF5C" transform="translate(0,0)"/>
<path d="" fill="#0CFF93" transform="translate(0,0)"/>
<path d="" fill="#00F344" transform="translate(0,0)"/>
<path d="" fill="#10FF81" transform="translate(0,0)"/>
<path d="" fill="#0CFF91" transform="translate(0,0)"/>
<path d="" fill="#03FF7C" transform="translate(0,0)"/>
<path d="" fill="#00E963" transform="translate(0,0)"/>
<path d="" fill="#00F678" transform="translate(0,0)"/>
<path d="" fill="#1AFF8D" transform="translate(0,0)"/>
<path d="" fill="#00F061" transform="translate(0,0)"/>
<path d="" fill="#0EFF8F" transform="translate(0,0)"/>
<path d="" fill="#1FFF80" transform="translate(0,0)"/>
<path d="" fill="#FFFFFF" transform="translate(0,0)"/>
<path d="" fill="#2FB575" transform="translate(0,0)"/>
<path d="" fill="#31BE7C" transform="translate(0,0)"/>
<path d="" fill="#1ACC71" transform="translate(0,0)"/>
</svg>
