<?xml version="1.0" encoding="UTF-8"?>
<svg version="1.1" xmlns="http://www.w3.org/2000/svg" width="772" height="344">
<path d="M0 0 C1.11308155 0.00081715 1.11308155 0.00081715 2.2486496 0.00165081 C3.10550858 -0.0025462 3.96236755 -0.0067432 4.84519196 -0.01106739 C6.26735771 -0.00263435 6.26735771 -0.00263435 7.71825409 0.00596905 C9.22501457 0.00315552 9.22501457 0.00315552 10.76221466 0.00028515 C14.16365021 -0.00341662 17.56488307 0.00748752 20.96630096 0.01842022 C23.41376989 0.01927993 25.8612392 0.01935629 28.30870819 0.01871014 C34.32385795 0.01975746 40.33891869 0.0307198 46.35404253 0.04630488 C51.26987935 0.05879863 56.1857049 0.0666951 61.10155487 0.07164288 C134.13056608 0.14725047 207.15839362 0.69275766 280.18505096 1.24888897 C280.18505096 4.54888897 280.18505096 7.84888897 280.18505096 11.24888897 C261.68505975 11.28057885 243.185065 11.30032754 224.68505096 11.31138897 C223.62781822 11.31204042 223.62781822 11.31204042 222.54922724 11.31270504 C185.2174548 11.33506533 147.88721865 11.26580727 110.55614471 11.02623272 C109.78805457 11.02132863 109.01996443 11.01642455 108.22859883 11.01137185 C74.54715782 10.79524754 40.86612313 10.51227956 7.18505096 10.24888897 C7.18505096 90.43888897 7.18505096 170.62888897 7.18505096 253.24888897 C27.31891815 253.23728741 47.45278534 253.22568584 68.19676971 253.21373272 C81.79247294 253.20783904 95.38817533 253.20217966 108.98387909 253.19810772 C110.28547039 253.19771354 110.28547039 253.19771354 111.61335647 253.1973114 C124.74950834 253.19335628 137.88566031 253.18998673 151.02181244 253.18703222 C153.8613561 253.1863915 156.70089976 253.18573239 159.54044342 253.1850729 C266.96895825 253.16053666 374.3967641 253.25872599 571.75788742 253.73986751 C575.19665799 253.74891952 578.63542859 253.75795616 582.0741992 253.76699114 C640.11117258 253.91957942 698.14812328 254.07981703 756.18505096 254.24888897 C756.17995484 253.60976777 756.17485872 252.97064656 756.16960818 252.31215805 C756.04301553 236.41700923 755.91887308 220.52184316 755.7971378 204.62665647 C755.7382031 196.93840286 755.67856254 189.25015618 755.61701202 181.56192303 C755.16855103 125.45658622 755.06387499 69.35611178 755.18505096 13.24888897 C753.93214767 13.25110958 752.67924438 13.25333019 751.38837433 13.2556181 C734.75810855 13.28401925 718.12783689 13.301118 701.49755096 13.31138897 C700.47405509 13.31204042 700.47405509 13.31204042 699.42988253 13.31270504 C650.24227746 13.34313684 601.05868564 13.12186796 551.87255096 12.74888897 C551.0832861 12.74291525 550.29402123 12.73694154 549.48083925 12.7307868 C529.3821737 12.57850176 509.28358214 12.41800639 489.18505096 12.24888897 C489.18505096 8.94888897 489.18505096 5.64888897 489.18505096 2.24888897 C551.48007147 2.12691487 613.77566308 2.1768297 676.07010555 2.48621368 C677.8302936 2.49493685 679.5904817 2.50364804 681.35066986 2.51234722 C682.65362636 2.51878999 682.65362636 2.51878999 683.98290521 2.52536291 C690.13333209 2.55499322 696.28375705 2.57668892 702.43422699 2.59504986 C709.98320791 2.61770059 717.53205304 2.65082061 725.08092523 2.69749022 C728.97251975 2.72127868 732.86398409 2.74020394 736.75564957 2.74652004 C740.34026706 2.75251787 743.92453211 2.77230166 747.50901926 2.80316842 C749.43491534 2.81615449 751.36089325 2.81437174 753.28683186 2.81216621 C754.42437255 2.82470468 755.56191324 2.83724314 756.73392487 2.85016155 C757.72092219 2.85477052 758.70791952 2.85937948 759.72482586 2.86412811 C762.18505096 3.24888897 762.18505096 3.24888897 764.00082588 4.47023678 C765.55585424 6.80581861 765.56897332 8.30625336 765.58377838 11.10605145 C765.60258749 12.61475685 765.60258749 12.61475685 765.62177658 14.15394115 C765.61962206 15.81440346 765.61962206 15.81440346 765.61742401 17.50841045 C765.62760433 18.68050816 765.63778465 19.85260586 765.64827347 21.06022167 C765.67341839 24.31059756 765.68513231 27.56070313 765.69111133 30.8111608 C765.7006875 34.29548138 765.72728577 37.77967659 765.75171661 41.26391888 C765.79646237 48.04787236 765.82497028 54.83180047 765.84749275 61.61586052 C765.86596707 67.10164175 765.89021514 72.58736891 765.91857147 78.07310772 C765.92258 78.85071166 765.92658854 79.6283156 765.93071854 80.42948329 C765.93885512 82.00555439 765.94699796 83.58162545 765.95514703 85.15769649 C766.02917989 99.63679619 766.08428901 114.11591629 766.12964654 128.59513164 C766.16577296 140.11535488 766.21201576 151.6354818 766.2675705 163.15562725 C766.33313161 176.81194756 766.38109096 190.4682114 766.41420746 204.12465191 C766.42679602 209.20710931 766.44555005 214.28948825 766.4693222 219.37190533 C766.49638114 225.31012772 766.50877952 231.24819629 766.50931358 237.18647861 C766.51186168 239.35112957 766.51951867 241.51578135 766.53261757 243.68039417 C766.54947813 246.60901175 766.54796539 249.53704082 766.54149628 252.46568584 C766.55532364 253.74944434 766.55532364 253.74944434 766.56943035 255.05913734 C766.52858435 260.76884146 766.52858435 260.76884146 764.95698309 262.9649694 C762.65595161 264.63226766 761.29652505 264.62282454 758.46664429 264.62082577 C757.48792132 264.6274154 756.50919836 264.63400502 755.50081712 264.64079434 C754.42035086 264.63273815 753.3398846 264.62468196 752.22667694 264.61638165 C751.07721106 264.61965243 749.92774518 264.62292322 748.74344701 264.62629312 C745.53047432 264.63234746 742.31785285 264.62482535 739.10491119 264.61175357 C735.61139989 264.60081797 732.11791432 264.6072208 728.62439442 264.61143494 C722.47981718 264.61640403 716.33533029 264.61005908 710.19076729 264.59645557 C701.00510785 264.57614108 691.81949731 264.57290663 682.63381828 264.57293669 C666.11099274 264.57237467 649.58822024 264.55419566 633.0654164 264.52870689 C618.5291755 264.50630496 603.99294163 264.48946319 589.45668793 264.47804546 C587.50336621 264.4764891 585.5500445 264.47493132 583.59672278 264.47337216 C580.64806326 264.47102378 577.69940374 264.46867753 574.7507442 264.46634318 C536.01083449 264.43544176 497.27097436 264.38271332 458.53110301 264.32086742 C424.96852063 264.26732916 391.40593981 264.22497288 357.84333345 264.18969813 C313.75267013 264.14326717 269.66204525 264.08393456 225.57142448 264.00674915 C222.08190296 264.00065433 218.59238144 263.99456361 215.1028599 263.98848011 C212.78433307 263.98443652 210.46580625 263.98038257 208.14727946 263.97631823 C190.76892441 263.94600272 173.39056966 263.92303453 156.0121994 263.90355206 C136.16888331 263.8812381 116.32561798 263.84803992 96.4823454 263.80058867 C85.29727981 263.7741357 74.11227183 263.75599882 62.92717648 263.74947145 C55.43682032 263.7442624 47.9465389 263.72821971 40.45622282 263.70319823 C36.17213657 263.68919208 31.88818413 263.68004626 27.60407352 263.6838851 C23.70856547 263.68727245 19.81334743 263.67706896 15.91789893 263.65565444 C14.51006402 263.6503605 13.10219916 263.65017699 11.69436433 263.65549307 C9.79280256 263.66195162 7.8912036 263.64838139 5.98968792 263.63364983 C4.93311621 263.63175122 3.8765445 263.62985262 2.78795546 263.62789649 C0.18505096 263.24888897 0.18505096 263.24888897 -1.65334213 261.99939382 C-3.11459602 259.79733045 -3.19523859 258.49136054 -3.20529652 255.85605049 C-3.21598646 254.95259468 -3.22667639 254.04913888 -3.23769027 253.11830562 C-3.23420693 252.12454373 -3.2307236 251.13078183 -3.2271347 250.10690594 C-3.23519266 249.05219729 -3.24325062 247.99748863 -3.25155276 246.91081911 C-3.27497959 243.35928653 -3.27694509 239.80806195 -3.27906036 236.25645733 C-3.29134423 233.71741387 -3.30491428 231.17837636 -3.31967926 228.63934612 C-3.35214975 222.44875149 -3.37065353 216.25824904 -3.38260672 210.06758492 C-3.39703841 202.86329751 -3.42662469 195.65909656 -3.45669969 188.4548604 C-3.50976292 175.60424559 -3.54800309 162.75362827 -3.57837677 149.9029417 C-3.60787795 137.42338511 -3.64930731 124.94393968 -3.70337677 112.46446514 C-3.76219503 98.88484957 -3.81476837 85.30523847 -3.85610408 71.72555739 C-3.86051356 70.27863347 -3.86492455 68.83170956 -3.86933708 67.38478565 C-3.87149765 66.67281159 -3.87365823 65.96083753 -3.87588427 65.2272885 C-3.89151501 60.20124302 -3.91145777 55.17522503 -3.93290901 50.14920139 C-3.96154472 43.39006721 -3.9792877 36.63098721 -3.9896431 29.87179661 C-3.99504617 27.38444815 -4.00389702 24.89710456 -4.01635933 22.40978146 C-4.03273182 19.02775907 -4.03685303 15.6459449 -4.03768158 12.26388836 C-4.04535185 11.26789574 -4.05302212 10.27190312 -4.06092483 9.24572891 C-4.05857603 8.34488085 -4.05622723 7.44403279 -4.05380726 6.51588631 C-4.05597824 5.7345292 -4.05814923 4.9531721 -4.060386 4.14813751 C-3.71257327 1.4566814 -2.70744166 0.37127895 0 0 Z " fill="#808C36" transform="translate(3.8149490356445313,77.75111103057861)"/>
<path d="M0 0 C4.53904366 -0.02291161 9.07788802 -0.04283781 13.61694336 -0.05493164 C15.16219766 -0.0599714 16.70744716 -0.0668032 18.25268555 -0.07543945 C20.46925029 -0.08752076 22.68575218 -0.09323173 24.90234375 -0.09765625 C25.5971434 -0.10281754 26.29194305 -0.10797882 27.00779724 -0.11329651 C28.6722933 -0.11349277 30.33665499 -0.06189129 32 0 C33 1 33 1 33.084198 2.91992188 C33.05774704 4.1815918 33.05774704 4.1815918 33.03076172 5.46875 C33.01520233 6.42064209 32.99964294 7.37253418 32.98361206 8.35327148 C32.96581696 9.39169189 32.94802185 10.4301123 32.9296875 11.5 C32.91877833 13.68878884 32.91107038 15.87759553 32.90625 18.06640625 C32.89841451 21.52626507 32.87540651 24.98186903 32.79785156 28.44091797 C31.80462792 41.66291009 31.80462792 41.66291009 36.35961914 53.46484375 C39.15566353 55.77448731 41.75183561 57.40974993 45 59 C51.10940412 62.80754427 51.10940412 62.80754427 53 65 C53.64205456 68.11268049 53.50002488 70.87484453 53 74 C52.34 74 51.68 74 51 74 C51 74.66 51 75.32 51 76 C48.03 75.505 48.03 75.505 45 75 C44.67 74.01 44.34 73.02 44 72 C42.37667033 70.61423077 40.71275535 69.27358732 39 68 C39.00444122 68.90788773 39.00888245 69.81577545 39.01345825 70.75117493 C39.05350511 79.30030895 39.0839692 87.84941155 39.10362434 96.39861774 C39.11406888 100.79402474 39.12824027 105.18935435 39.15087891 109.5847168 C39.17258344 113.82517955 39.18456358 118.06556777 39.18975449 122.30608177 C39.19345454 123.92523561 39.20067969 125.54438529 39.21146011 127.16350746 C39.22594339 129.4285125 39.22797929 131.69320818 39.22705078 133.95825195 C39.231492 135.24842728 39.23593323 136.5386026 39.24050903 137.86787415 C39 141 39 141 37 144 C33.98434011 144.30395558 31.17785453 144.41986545 28.16015625 144.3984375 C27.28225937 144.40130768 26.40436249 144.40417786 25.49986267 144.40713501 C23.64125932 144.40917849 21.7826346 144.40362885 19.92407227 144.39111328 C17.07714719 144.37508248 14.23164596 144.39094221 11.38476562 144.41015625 C9.58072603 144.40817349 7.77668732 144.40432914 5.97265625 144.3984375 C5.11946304 144.40451019 4.26626984 144.41058289 3.38722229 144.4168396 C-2.57002544 144.34590245 -2.57002544 144.34590245 -4.72177124 142.61488342 C-6.45546341 140.4245785 -6.42746581 138.9353186 -6.51171875 136.16015625 C-6.56513428 134.70246826 -6.56513428 134.70246826 -6.61962891 133.21533203 C-6.6532251 131.65468018 -6.6532251 131.65468018 -6.6875 130.0625 C-6.72020996 128.9988623 -6.75291992 127.93522461 -6.78662109 126.83935547 C-6.98548528 119.76968094 -7.09162439 112.69735642 -7.125 105.625 C-7.12975342 104.78203369 -7.13450684 103.93906738 -7.1394043 103.07055664 C-7.12302458 97.24604915 -7.12302458 97.24604915 -6 95 C-15.9 95 -25.8 95 -36 95 C-35.96519531 98.21363281 -35.93039062 101.42726563 -35.89453125 104.73828125 C-35.87114441 107.84593822 -35.85292283 110.95358545 -35.83520508 114.0612793 C-35.82010556 116.22343321 -35.79962429 118.38555643 -35.77368164 120.54760742 C-35.73734983 123.652909 -35.72028538 126.75780614 -35.70703125 129.86328125 C-35.69154739 130.83211746 -35.67606354 131.80095367 -35.66011047 132.79914856 C-35.65988388 133.6998558 -35.65965729 134.60056305 -35.65942383 135.52856445 C-35.65276199 136.32132278 -35.64610016 137.11408112 -35.63923645 137.93086243 C-36.10015626 140.5744402 -36.83682516 141.44037826 -39 143 C-42.04862525 143.29847993 -44.88860095 143.42021845 -47.9375 143.3984375 C-48.81398193 143.40130768 -49.69046387 143.40417786 -50.59350586 143.40713501 C-52.44613288 143.40917598 -54.29878142 143.40364378 -56.15136719 143.39111328 C-58.98942179 143.37505984 -61.82605227 143.39096055 -64.6640625 143.41015625 C-66.46354481 143.40817382 -68.26302624 143.40433016 -70.0625 143.3984375 C-70.91255615 143.40451019 -71.7626123 143.41058289 -72.63842773 143.4168396 C-78.44377419 143.34742913 -78.44377419 143.34742913 -80.72651672 141.92158508 C-82.69252954 138.95502795 -82.35854063 136.39347731 -82.34057617 132.86645508 C-82.34101425 132.14425278 -82.34145233 131.42205048 -82.34190369 130.67796326 C-82.33981414 128.29154395 -82.31647613 125.90582777 -82.29296875 123.51953125 C-82.28737336 121.86472457 -82.283103 120.20991292 -82.28010559 118.55509949 C-82.26865224 114.20006586 -82.23918098 109.84533249 -82.20599365 105.49041748 C-82.17530326 101.04638735 -82.16160247 96.60230869 -82.14648438 92.15820312 C-82.11431162 83.43866431 -82.06310952 74.71936951 -82 66 C-84.49552484 66.78130071 -84.49552484 66.78130071 -87 68 C-87.33 68.99 -87.66 69.98 -88 71 C-91.44107266 73.29404844 -92.96839809 73.26293056 -97 73 C-98 72 -98 72 -98.53515625 68.35546875 C-98.49694286 65.6350392 -98.29017268 64.37430137 -96.60888672 62.20556641 C-94.62690204 60.44489902 -92.58363225 58.86868224 -90.4375 57.3125 C-89.73302734 56.77044922 -89.02855469 56.22839844 -88.30273438 55.66992188 C-86.22354831 54.08130875 -84.11749246 52.53704277 -82 51 C-81.00057373 50.25435791 -81.00057373 50.25435791 -79.98095703 49.49365234 C-75.24123945 46 -75.24123945 46 -73 46 C-73 45.34 -73 44.68 -73 44 C-71.35 43.34 -69.7 42.68 -68 42 C-68 41.34 -68 40.68 -68 40 C-66.35546875 38.52734375 -66.35546875 38.52734375 -64.1875 36.9375 C-63.47980469 36.41027344 -62.77210938 35.88304687 -62.04296875 35.33984375 C-60 34 -60 34 -57 33 C-57 32.34 -57 31.68 -57 31 C-55.35 30.34 -53.7 29.68 -52 29 C-52 28.34 -52 27.68 -52 27 C-50.35 26.34 -48.7 25.68 -47 25 C-47 24.34 -47 23.68 -47 23 C-45.35 22.34 -43.7 21.68 -42 21 C-42 20.34 -42 19.68 -42 19 C-40.32210126 17.64240067 -38.58056912 16.36288195 -36.8125 15.125 C-32.54282747 12.12133576 -32.54282747 12.12133576 -28.57421875 8.7421875 C-25.04859166 6.35610301 -23.18907691 6.32202507 -19 7 C-16.29508585 8.51661986 -14.02545081 10.41094113 -11.6875 12.4375 C-10.46309079 13.45805336 -9.2378677 14.47763127 -8.01171875 15.49609375 C-7.01785156 16.32238281 -6.02398437 17.14867188 -5 18 C-4.34 18.33 -3.68 18.66 -3 19 C-3 19.66 -3 20.32 -3 21 C-2.34 21 -1.68 21 -1 21 C-0.67 14.07 -0.34 7.14 0 0 Z M9 8 C7.45597315 21.17408343 7.45597315 21.17408343 11.0859375 33.39453125 C14.82207206 36.69788776 18.54950278 38.77475139 23 41 C23 30.11 23 19.22 23 8 C18.38 8 13.76 8 9 8 Z M-23 17 C-23.84820312 17.73863281 -24.69640625 18.47726563 -25.5703125 19.23828125 C-33.29538226 25.93222939 -41.15425155 32.39756 -49.24462891 38.64453125 C-51.06583831 40.05083926 -52.88265305 41.4627003 -54.69921875 42.875 C-55.88253052 43.79203064 -57.06611422 44.70871052 -58.25 45.625 C-59.07383179 46.26429443 -59.07383179 46.26429443 -59.91430664 46.91650391 C-63.76700165 49.88350083 -63.76700165 49.88350083 -66 51 C-66 51.66 -66 52.32 -66 53 C-66.804375 53.28875 -67.60875 53.5775 -68.4375 53.875 C-71.1326468 54.73262568 -71.1326468 54.73262568 -72 57 C-72.09275395 59.41094362 -72.12584719 61.79268319 -72.11352539 64.20361328 C-72.11367142 64.9451767 -72.11381744 65.68674011 -72.1139679 66.45077515 C-72.11327 68.90731713 -72.10548334 71.36378373 -72.09765625 73.8203125 C-72.09579163 75.5213924 -72.09436794 77.22247284 -72.09336853 78.92355347 C-72.08954678 83.40506467 -72.0797194 87.88654357 -72.06866455 92.36804199 C-72.05844308 96.9393673 -72.05386933 101.51069781 -72.04882812 106.08203125 C-72.03809684 115.05470399 -72.0205028 124.02734426 -72 133 C-63.42 133 -54.84 133 -46 133 C-45.95101562 129.77476562 -45.90203125 126.54953125 -45.8515625 123.2265625 C-45.79759484 120.11225635 -45.74027079 116.99802889 -45.68261719 113.88378906 C-45.64427009 111.71490307 -45.60942745 109.54595223 -45.578125 107.37695312 C-45.53259862 104.26408668 -45.47458427 101.15166894 -45.4140625 98.0390625 C-45.40251129 97.065065 -45.39096008 96.0910675 -45.37905884 95.08755493 C-45.35918915 94.18677216 -45.33931946 93.28598938 -45.31884766 92.35791016 C-45.30552399 91.56293121 -45.29220032 90.76795227 -45.2784729 89.94888306 C-45 88 -45 88 -43 86 C-41.08908081 85.75949097 -41.08908081 85.75949097 -38.73388672 85.77294922 C-37.85312469 85.77310028 -36.97236267 85.77325134 -36.06491089 85.77340698 C-34.63672531 85.78889084 -34.63672531 85.78889084 -33.1796875 85.8046875 C-31.71899338 85.80893234 -31.71899338 85.80893234 -30.22879028 85.81326294 C-27.11073651 85.82448087 -23.99296732 85.8495883 -20.875 85.875 C-18.76432706 85.88502772 -16.65364962 85.89415393 -14.54296875 85.90234375 C-9.36188165 85.92442542 -4.18096115 85.95791871 1 86 C2.48217413 88.96434825 2.1012203 91.96458841 2.0625 95.2109375 C2.05682007 96.29600082 2.05682007 96.29600082 2.05102539 97.40298462 C2.03475157 100.49480247 2.00702089 103.58648745 1.97949219 106.67822266 C1.96108333 108.93912101 1.94918076 111.19999578 1.9375 113.4609375 C1.92920166 114.13643646 1.92090332 114.81193542 1.91235352 115.50790405 C1.88162458 121.77182867 2.47257022 127.67084259 3 134 C11.91 134 20.82 134 30 134 C30.02111762 126.73788576 30.04113536 119.4758863 30.05175018 112.21376801 C30.05697543 108.83007456 30.06449303 105.44642673 30.07543945 102.06274414 C30.09936742 94.46913238 30.09456555 86.87690957 30.02813721 79.2835083 C30.01050641 77.22605961 29.99864741 75.16854446 29.99530029 73.11102295 C29.98481991 70.71662084 29.93667829 68.32701864 29.87109375 65.93359375 C29.84845459 64.68505615 29.82581543 63.43651855 29.80249023 62.15014648 C28.66570944 57.68775447 26.77977983 56.54399589 23 54 C22.34 54 21.68 54 21 54 C21 53.34 21 52.68 21 52 C19.35 51.34 17.7 50.68 16 50 C16 49.34 16 48.68 16 48 C15.195625 47.731875 14.39125 47.46375 13.5625 47.1875 C12.716875 46.795625 11.87125 46.40375 11 46 C10.505 44.515 10.505 44.515 10 43 C8.07842863 41.49853075 8.07842863 41.49853075 5.75 40.125 C1.96146402 37.79848294 -0.88621238 35.16980779 -4 32 C-6.10731079 30.09968754 -8.26837682 28.26666703 -10.4375 26.4375 C-10.98470703 25.96892578 -11.53191406 25.50035156 -12.09570312 25.01757812 C-15.58322694 22.06659643 -19.1535135 19.46569647 -23 17 Z " fill="#FEF000" transform="translate(409,0)"/>
<path d="M0 0 C9.24 0 18.48 0 28 0 C27.67 0.99 27.34 1.98 27 3 C25.33927151 3.68132451 23.672233 4.34742127 22 5 C19.62962388 8.55556418 19.65510696 11.17934798 19.5859375 15.29296875 C19.55032715 16.58485107 19.5147168 17.8767334 19.47802734 19.20776367 C19.44402832 20.85107666 19.4100293 22.49438965 19.375 24.1875 C19.25125 29.405625 19.1275 34.62375 19 40 C33.52 40 48.04 40 63 40 C62.896875 34.8025 62.79375 29.605 62.6875 24.25 C62.66260498 22.61579102 62.63770996 20.98158203 62.61206055 19.29785156 C62.57894775 18.0084668 62.54583496 16.71908203 62.51171875 15.390625 C62.48553467 14.07094727 62.45935059 12.75126953 62.43237305 11.39160156 C61.98376997 7.87268912 61.49137798 6.46126283 59 4 C56.41501488 2.73152315 56.41501488 2.73152315 54 2 C54 1.34 54 0.68 54 0 C63.24 0 72.48 0 82 0 C82 0.99 82 1.98 82 3 C80.865625 3.433125 79.73125 3.86625 78.5625 4.3125 C77.386875 4.869375 76.21125 5.42625 75 6 C73.85915203 9.4225439 73.8590427 12.07681523 73.83886719 15.68701172 C73.83390228 16.36216827 73.82893738 17.03732483 73.82382202 17.73294067 C73.80922402 19.96520001 73.80240254 22.19738829 73.796875 24.4296875 C73.7911218 25.98283897 73.78536409 27.53599041 73.77960205 29.08914185 C73.76909893 32.34572683 73.76325169 35.60228718 73.75976562 38.85888672 C73.75428093 43.0274607 73.73025077 47.19570805 73.70179367 51.36417961 C73.68315111 54.57269232 73.67796085 57.78112658 73.67642975 60.98968887 C73.67340656 62.52625439 73.66538927 64.06281864 73.65224457 65.5993309 C73.63514888 67.75120513 73.63707234 69.90228423 73.64355469 72.05419922 C73.63990906 73.27759003 73.63626343 74.50098083 73.63250732 75.76144409 C74.03476334 79.30635445 74.82074392 81.19706594 77 84 C79.59122743 84.88658466 79.59122743 84.88658466 82 85 C82 85.99 82 86.98 82 88 C72.76 88 63.52 88 54 88 C54.495 86.515 54.495 86.515 55 85 C56.98723268 84.29618843 58.98777953 83.6288189 61 83 C62.60970654 79.78058692 62.24242971 76.25204413 62.31640625 72.7109375 C62.33505737 71.98559814 62.3537085 71.26025879 62.3729248 70.51293945 C62.44128272 67.80041824 62.50139299 65.08769425 62.5625 62.375 C62.706875 56.31125 62.85125 50.2475 63 44 C48.48 44 33.96 44 19 44 C19.1546875 53.0646875 19.1546875 53.0646875 19.3125 62.3125 C19.33739502 64.21684814 19.36229004 66.12119629 19.38793945 68.08325195 C19.42022574 69.59328699 19.45359894 71.10329935 19.48828125 72.61328125 C19.49764709 73.78860413 19.49764709 73.78860413 19.50720215 74.9876709 C19.57551039 79.2208805 19.57551039 79.2208805 21.36401367 82.94995117 C23.47454309 84.30458287 25.63891773 85.17043055 28 86 C28 86.66 28 87.32 28 88 C18.76 88 9.52 88 0 88 C0 87.01 0 86.02 0 85 C0.94875 84.7525 1.8975 84.505 2.875 84.25 C5.98856225 83.33116009 5.98856225 83.33116009 7.17814636 81.34690857 C8.27341515 78.21922794 8.26213483 75.51440727 8.2746582 72.19946289 C8.27976913 71.52416031 8.28488007 70.84885773 8.29014587 70.15309143 C8.30401819 67.92618894 8.30308695 65.69959675 8.30078125 63.47265625 C8.30466947 61.92093288 8.3090044 60.36921056 8.31376648 58.81748962 C8.32122359 55.56684925 8.32094112 52.31631749 8.31567383 49.06567383 C8.30987965 44.90494568 8.32681108 40.74466276 8.3500185 36.58400822 C8.36476735 33.37977001 8.36562599 30.17563874 8.36250877 26.9713726 C8.3630214 25.43760738 8.36824823 23.90383607 8.37832069 22.37010384 C8.39069065 20.22308747 8.38389105 18.07693472 8.37231445 15.92993164 C8.37294388 14.70955704 8.3735733 13.48918243 8.3742218 12.23182678 C7.96463938 8.69462123 7.17378732 6.79889714 5 4 C2.40877257 3.11341534 2.40877257 3.11341534 0 3 C0 2.01 0 1.02 0 0 Z " fill="#808C36" transform="translate(154,166)"/>
<path d="M0 0 C10.36328892 8.00464564 16.22094482 19.10403269 17.96875 32.078125 C18.94074352 46.17203107 15.86755802 58.07697492 7.1875 69.25 C-0.31518082 77.73987567 -9.4071368 83.79054674 -20.91015625 84.6328125 C-33.4901685 85.15082128 -43.93038985 82.37327587 -53.8125 74.25 C-62.52645701 66.1821049 -68.58605541 55.0259652 -69.11328125 42.98046875 C-69.13277246 41.46626624 -69.13622763 39.95178633 -69.125 38.4375 C-69.11936035 37.64142334 -69.1137207 36.84534668 -69.10791016 36.02514648 C-68.85943848 23.97180996 -64.45165244 13.02801063 -56.3125 4 C-40.55894801 -10.80711767 -17.47875636 -11.91840031 0 0 Z M-48.8125 6.25 C-58.31057846 18.5248391 -58.69601704 33.37132755 -57.8125 48.25 C-56.38162897 57.61378834 -52.45579912 67.84734836 -44.8046875 73.81640625 C-37.23385789 79.14165081 -30.060717 81.3150279 -20.8125 80.25 C-11.38029499 78.05615844 -4.45296535 73.44704851 1 65.4375 C8.96316774 51.36119339 8.42688525 33.74477168 4.4765625 18.5078125 C1.86924918 10.82939438 -3.27868724 3.9949122 -10.2578125 -0.23046875 C-23.45679432 -6.26366671 -38.77441104 -5.12825267 -48.8125 6.25 Z " fill="#808C36" transform="translate(598.8125,171.75)"/>
<path d="M0 0 C2.31 0 4.62 0 7 0 C10.29137117 7.83541841 12.98463931 15.81260758 15.58984375 23.8984375 C16.02011765 25.22317431 16.45083662 26.54776663 16.88197327 27.8722229 C18.69349256 33.44011825 20.49652949 39.01075082 22.29760742 44.58203125 C23.40678694 48.01197774 24.52089408 51.44029457 25.63772774 54.86775589 C26.25790128 56.77611048 26.87244334 58.68629232 27.48680115 60.5965271 C31.06176459 73.73291529 31.06176459 73.73291529 38 85 C40.06874034 85.6425235 40.06874034 85.6425235 42 86 C42 86.99 42 87.98 42 89 C32.76 89 23.52 89 14 89 C14.495 87.515 14.495 87.515 15 86 C18.5625 84.8125 18.5625 84.8125 22 84 C21.42689423 77.7103455 19.94741176 72.16127486 17.9375 66.1875 C17.38020681 64.51562044 16.82665035 62.84248935 16.27734375 61.16796875 C16.03234131 60.43860107 15.78733887 59.7092334 15.53491211 58.95776367 C15 57 15 57 15 54 C1.635 54.495 1.635 54.495 -12 55 C-13.175625 58.83625 -14.35125 62.6725 -15.5625 66.625 C-15.93705322 67.82334473 -16.31160645 69.02168945 -16.69750977 70.25634766 C-17.12761353 71.6956665 -17.12761353 71.6956665 -17.56640625 73.1640625 C-17.86490479 74.13811035 -18.16340332 75.1121582 -18.47094727 76.11572266 C-19.07699597 79.41976481 -18.89051226 81.76794214 -18 85 C-15.53744315 86.45291273 -15.53744315 86.45291273 -13 87 C-13 87.66 -13 88.32 -13 89 C-19.93 89 -26.86 89 -34 89 C-34 88.01 -34 87.02 -34 86 C-33.0925 85.835 -32.185 85.67 -31.25 85.5 C-26.7689955 83.43184408 -25.76565088 80.38361602 -24 76 C-22.24081064 70.91443172 -20.67670329 65.77525028 -19.12109375 60.625 C-18.66385991 59.13081158 -18.20592607 57.63683721 -17.74732971 56.14306641 C-16.54730229 52.22879764 -15.35527126 48.31214335 -14.16540527 44.39477539 C-12.25997451 38.12599447 -10.34281065 31.86079654 -8.42469978 25.59588623 C-7.76015235 23.42100983 -7.09933133 21.24502901 -6.43907166 19.06884766 C-4.47934814 12.63295533 -2.47787117 6.25776838 0 0 Z M0 12 C-3.63 24.21 -7.26 36.42 -11 49 C-3.41 49 4.18 49 12 49 C10.28032473 40.38345192 10.28032473 40.38345192 7.8359375 32.1171875 C7.23652344 30.33828125 7.23652344 30.33828125 6.625 28.5234375 C6.2125 27.31945312 5.8 26.11546875 5.375 24.875 C4.95476562 23.63234375 4.53453125 22.3896875 4.1015625 21.109375 C3.07319168 18.07100666 2.03923423 15.03466615 1 12 C0.67 12 0.34 12 0 12 Z " fill="#808C36" transform="translate(317,165)"/>
<path d="M0 0 C9.24 0 18.48 0 28 0 C28 0.99 28 1.98 28 3 C26.02 3.66 24.04 4.32 22 5 C21.8224188 9.82475377 22.2426358 13.5680285 23.8359375 18.11889648 C24.23635254 19.27957138 24.63676758 20.44024628 25.04931641 21.63609314 C25.48679199 22.86864334 25.92426758 24.10119354 26.375 25.37109375 C26.82434969 26.66113473 27.2727399 27.95151029 27.72021484 29.24220276 C28.89435224 32.62061247 30.08138157 35.99434917 31.27124023 39.36724854 C32.48558777 42.81695156 33.68756778 46.2709564 34.890625 49.72460938 C37.24839781 56.48732051 39.61981972 63.2451383 42 70 C45.24180194 60.32653332 48.47325642 50.6497114 51.68563843 40.96643066 C53.23232775 36.30496314 54.7904826 31.64755243 56.35546875 26.9921875 C56.98793599 25.07844095 57.61953798 23.16440808 58.25 21.25 C58.68034546 19.98808838 58.68034546 19.98808838 59.11938477 18.70068359 C60.77747468 13.59991822 61.26949597 9.36541981 61 4 C59.02 3.67 57.04 3.34 55 3 C55 2.01 55 1.02 55 0 C62.26 0 69.52 0 77 0 C77 0.99 77 1.98 77 3 C76.2575 3.226875 75.515 3.45375 74.75 3.6875 C69.47550388 6.20487315 67.49380056 10.68643916 65.5761261 15.92576599 C65.17299446 17.07819542 65.17299446 17.07819542 64.76171875 18.25390625 C64.46641769 19.07693741 64.17111664 19.89996857 63.86686707 20.74794006 C59.96491234 31.7374628 56.39805469 42.84183193 52.8125 53.9375 C51.76017904 57.18177229 50.70680668 60.42570168 49.65324402 63.66957092 C49.00555506 65.66505489 48.3587593 67.66082912 47.71308899 69.65696716 C45.51370167 76.45090658 43.26745572 83.22848511 41 90 C40.01 90 39.02 90 38 90 C37.60988991 88.89817635 37.60988991 88.89817635 37.2118988 87.77409363 C34.72825027 80.7599844 32.24342168 73.74629476 29.75735378 66.73304272 C28.48010975 63.12978453 27.20328045 59.52638064 25.92749023 55.92260742 C23.27222276 48.42295642 20.61153538 40.92530652 17.93604088 33.43284416 C16.56800534 29.60034289 15.2128778 25.76351386 13.86376953 21.92431641 C13.2548424 20.21625354 12.64536008 18.50838843 12.03515625 16.80078125 C11.77874863 16.06006882 11.522341 15.31935638 11.25816345 14.55619812 C9.75886771 10.40736477 8.06707915 7.19249734 5 4 C2.36539052 3.12056596 2.36539052 3.12056596 0 3 C0 2.01 0 1.02 0 0 Z " fill="#808C36" transform="translate(404,166)"/>
<path d="M0 0 C1.21429688 -0.02578125 2.42859375 -0.0515625 3.6796875 -0.078125 C7.40641091 0.27680104 9.19218588 0.96950219 12.125 3.25 C15.96765383 8.32456344 17.26319937 12.74349991 17.25 19 C17.25386719 20.81757812 17.25386719 20.81757812 17.2578125 22.671875 C17.125 26.25 17.125 26.25 16.5546875 29.515625 C15.89729974 32.33300876 15.89729974 32.33300876 17.125 35.25 C18.115 35.58 19.105 35.91 20.125 36.25 C20.50633299 38.2414056 20.83825582 40.24279077 21.125 42.25 C20.125 43.25 20.125 43.25 16.75 43.5625 C13.125 43.25 13.125 43.25 11.1875 41.375 C10.125 39.25 10.125 39.25 10.125 37.25 C9.2896875 37.72179687 9.2896875 37.72179687 8.4375 38.203125 C5.9201691 39.3427275 3.8671267 39.71575516 1.125 40 C0.279375 40.09796875 -0.56625 40.1959375 -1.4375 40.296875 C-4.25562889 40.24268021 -5.54434648 39.82117376 -7.875 38.25 C-9.76171875 36.19140625 -9.76171875 36.19140625 -11.5625 33.8125 C-12.16449219 33.03003906 -12.76648438 32.24757813 -13.38671875 31.44140625 C-17.20469519 25.81966141 -16.60882219 18.75247994 -15.875 12.25 C-14.37909915 8.21201449 -12.56655952 4.62263541 -9.875 1.25 C-6.42834258 0.10111419 -3.63148095 0.0460653 0 0 Z M-5.875 9.25 C-8.44133849 13.82551138 -9.06055304 17.97174573 -8.3125 23.125 C-6.81513908 26.38013244 -5.81841718 28.20596029 -2.875 30.25 C1.08015279 30.7443941 3.79629081 30.44667853 7.125 28.25 C9.3553234 23.91412653 10.38816963 19.67111598 9.5 14.875 C7.25405709 10.36364413 7.25405709 10.36364413 3.375 7.375 C-0.36227845 7.16737342 -2.48071428 7.58371428 -5.875 9.25 Z " fill="#FCEF00" transform="translate(384.875,30.75)"/>
<path d="" fill="#FFF000" transform="translate(0,0)"/>
</svg>
