<?xml version="1.0" encoding="UTF-8"?>
<svg version="1.1" xmlns="http://www.w3.org/2000/svg" width="772" height="344">
<path d="M0 0 C0.77279297 -0.00322266 1.54558594 -0.00644531 2.34179688 -0.00976562 C7.97892689 0.04265063 12.95509631 0.75879816 18.0625 3.3125 C19.5606501 3.98331348 21.06089601 4.64945408 22.5625 5.3125 C24.7511977 6.27893794 26.92252343 7.24251171 29.0625 8.3125 C29.47314453 11.17993164 29.47314453 11.17993164 29.6953125 14.97265625 C29.73687469 15.63712265 29.77843689 16.30158905 29.82125854 16.9861908 C29.95235319 19.11536112 30.07006083 21.245037 30.1875 23.375 C30.27386116 24.81580813 30.36108945 26.25656457 30.44921875 27.69726562 C30.66372308 31.23513171 30.86622589 34.7735705 31.0625 38.3125 C35.4889912 36.89366387 39.29174533 35.22380769 43.3125 32.875 C44.34890625 32.27816406 45.3853125 31.68132813 46.453125 31.06640625 C49.27056577 29.41327456 49.27056577 29.41327456 51.0625 26.3125 C51.0625 26.9725 51.0625 27.6325 51.0625 28.3125 C52.30257812 28.69019531 53.54265625 29.06789063 54.8203125 29.45703125 C61.87571432 31.80745007 68.41291372 35.25312693 75.0625 38.54882812 C76.04992187 39.03158203 77.03734375 39.51433594 78.0546875 40.01171875 C78.94526855 40.45346436 79.83584961 40.89520996 80.75341797 41.3503418 C83.10711538 42.50481462 83.10711538 42.50481462 86.0625 42.3125 C86.105221 43.97861905 86.10313832 45.64632885 86.0625 47.3125 C85.7325 47.6425 85.4025 47.9725 85.0625 48.3125 C84.89270364 51.15507589 84.78826889 53.97463074 84.72680664 56.8203125 C84.70417252 57.71308395 84.68153839 58.60585541 84.65821838 59.52568054 C84.46073474 67.78446969 84.34554492 76.04481665 84.25499821 84.30540466 C84.19320039 89.85681424 84.1046741 95.40488852 83.95141602 100.95458984 C83.80391774 106.31831043 83.725661 111.67899709 83.69528008 117.0446167 C83.67200035 119.08626395 83.62442343 121.12778899 83.55171394 123.16827393 C82.80235886 133.63443185 82.80235886 133.63443185 86.40893555 143.06818962 C93.15642425 149.24386291 101.3943884 151.65842114 110.4375 151.375 C111.3759375 151.38208984 112.314375 151.38917969 113.28125 151.39648438 C115.54496744 151.40803395 117.80001588 151.38018669 120.0625 151.3125 C120.0625 153.2925 120.0625 155.2725 120.0625 157.3125 C38.5525 157.3125 -42.9575 157.3125 -126.9375 157.3125 C-126.9375 155.3325 -126.9375 153.3525 -126.9375 151.3125 C-126.35895264 151.31886475 -125.78040527 151.32522949 -125.18432617 151.33178711 C-112.99061046 151.37182219 -104.63641657 151.19528478 -94.9375 143.3125 C-93.9475 142.9825 -92.9575 142.6525 -91.9375 142.3125 C-91.9752504 141.20717926 -92.01300079 140.10185852 -92.05189514 138.96304321 C-92.39732327 128.51878041 -92.65170856 118.07568242 -92.81830692 107.62699318 C-92.90684909 102.25524592 -93.02676972 96.88812586 -93.2199707 91.51904297 C-93.40546056 86.33145662 -93.50646846 81.14830035 -93.55041313 75.95765305 C-93.58169813 73.9835364 -93.64281026 72.00964881 -93.73491096 70.03743362 C-94.29989447 57.43126162 -94.29989447 57.43126162 -91.9375 52.3125 C-87.43737942 47.4639374 -81.15805874 44.39648706 -74.9375 42.3125 C-74.2775 42.3125 -73.6175 42.3125 -72.9375 42.3125 C-72.9375 41.6525 -72.9375 40.9925 -72.9375 40.3125 C-71.9475 40.3125 -70.9575 40.3125 -69.9375 40.3125 C-69.9375 39.6525 -69.9375 38.9925 -69.9375 38.3125 C-64.00311592 35.23541196 -59.63876536 33.82513525 -52.9375 34.3125 C-53.2675 35.6325 -53.5975 36.9525 -53.9375 38.3125 C-47.0075 41.9425 -40.0775 45.5725 -32.9375 49.3125 C-32.9375 38.4225 -32.9375 27.5325 -32.9375 16.3125 C-33.9275 15.9825 -34.9175 15.6525 -35.9375 15.3125 C-35.6075 13.9925 -35.2775 12.6725 -34.9375 11.3125 C-34.35339355 11.51391602 -33.76928711 11.71533203 -33.16748047 11.92285156 C-30.43954983 12.39950771 -29.60561936 11.94206526 -27.2578125 10.546875 C-26.57589844 10.15113281 -25.89398438 9.75539063 -25.19140625 9.34765625 C-24.48886719 8.92355469 -23.78632813 8.49945313 -23.0625 8.0625 C-20.98889672 6.84295967 -18.9133574 5.62711978 -16.83325195 4.41870117 C-15.21001335 3.47151584 -13.59795079 2.505222 -11.98828125 1.53515625 C-7.90200388 -0.10249396 -4.35738426 -0.09040216 0 0 Z M4.0625 12.3125 C4.0625 12.9725 4.0625 13.6325 4.0625 14.3125 C5.0525 14.6425 6.0425 14.9725 7.0625 15.3125 C6.7325 14.3225 6.4025 13.3325 6.0625 12.3125 C5.4025 12.3125 4.7425 12.3125 4.0625 12.3125 Z M11.0625 14.3125 C11.0625 15.3025 11.0625 16.2925 11.0625 17.3125 C11.7225 17.3125 12.3825 17.3125 13.0625 17.3125 C12.7325 16.3225 12.4025 15.3325 12.0625 14.3125 C11.7325 14.3125 11.4025 14.3125 11.0625 14.3125 Z M18.0625 18.3125 C18.0625 18.9725 18.0625 19.6325 18.0625 20.3125 C18.7225 20.3125 19.3825 20.3125 20.0625 20.3125 C20.0625 19.6525 20.0625 18.9925 20.0625 18.3125 C19.4025 18.3125 18.7425 18.3125 18.0625 18.3125 Z M4.0625 19.3125 C4.3925 20.3025 4.7225 21.2925 5.0625 22.3125 C5.7225 22.3125 6.3825 22.3125 7.0625 22.3125 C7.0625 21.6525 7.0625 20.9925 7.0625 20.3125 C6.0725 19.9825 5.0825 19.6525 4.0625 19.3125 Z M11.0625 22.3125 C11.3925 23.3025 11.7225 24.2925 12.0625 25.3125 C12.0625 24.3225 12.0625 23.3325 12.0625 22.3125 C11.7325 22.3125 11.4025 22.3125 11.0625 22.3125 Z M18.0625 25.3125 C18.3925 26.3025 18.7225 27.2925 19.0625 28.3125 C19.0625 27.3225 19.0625 26.3325 19.0625 25.3125 C18.7325 25.3125 18.4025 25.3125 18.0625 25.3125 Z M4.0625 27.3125 C4.3925 28.3025 4.7225 29.2925 5.0625 30.3125 C5.7225 30.3125 6.3825 30.3125 7.0625 30.3125 C7.0625 29.6525 7.0625 28.9925 7.0625 28.3125 C6.0725 27.9825 5.0825 27.6525 4.0625 27.3125 Z M11.0625 30.3125 C11.3925 31.3025 11.7225 32.2925 12.0625 33.3125 C12.3925 32.3225 12.7225 31.3325 13.0625 30.3125 C12.4025 30.3125 11.7425 30.3125 11.0625 30.3125 Z M18.0625 33.3125 C18.3925 34.3025 18.7225 35.2925 19.0625 36.3125 C19.0625 35.3225 19.0625 34.3325 19.0625 33.3125 C18.7325 33.3125 18.4025 33.3125 18.0625 33.3125 Z M4.0625 35.3125 C4.0625 35.9725 4.0625 36.6325 4.0625 37.3125 C5.0525 37.6425 6.0425 37.9725 7.0625 38.3125 C6.7325 37.3225 6.4025 36.3325 6.0625 35.3125 C5.4025 35.3125 4.7425 35.3125 4.0625 35.3125 Z M11.0625 37.3125 C11.0625 38.3025 11.0625 39.2925 11.0625 40.3125 C11.7225 40.3125 12.3825 40.3125 13.0625 40.3125 C12.7325 39.3225 12.4025 38.3325 12.0625 37.3125 C11.7325 37.3125 11.4025 37.3125 11.0625 37.3125 Z M18.0625 40.3125 C18.3925 41.3025 18.7225 42.2925 19.0625 43.3125 C19.0625 42.3225 19.0625 41.3325 19.0625 40.3125 C18.7325 40.3125 18.4025 40.3125 18.0625 40.3125 Z M4.0625 43.3125 C4.3925 43.9725 4.7225 44.6325 5.0625 45.3125 C5.7225 45.3125 6.3825 45.3125 7.0625 45.3125 C7.0625 44.6525 7.0625 43.9925 7.0625 43.3125 C6.0725 43.3125 5.0825 43.3125 4.0625 43.3125 Z M61.0625 43.3125 C61.0625 44.3025 61.0625 45.2925 61.0625 46.3125 C61.7225 46.3125 62.3825 46.3125 63.0625 46.3125 C62.7325 45.3225 62.4025 44.3325 62.0625 43.3125 C61.7325 43.3125 61.4025 43.3125 61.0625 43.3125 Z M11.0625 45.3125 C11.3925 46.3025 11.7225 47.2925 12.0625 48.3125 C12.0625 47.3225 12.0625 46.3325 12.0625 45.3125 C11.7325 45.3125 11.4025 45.3125 11.0625 45.3125 Z M67.0625 46.3125 C67.0625 46.9725 67.0625 47.6325 67.0625 48.3125 C68.0525 48.6425 69.0425 48.9725 70.0625 49.3125 C69.7325 48.3225 69.4025 47.3325 69.0625 46.3125 C68.4025 46.3125 67.7425 46.3125 67.0625 46.3125 Z M18.0625 48.3125 C18.3925 49.3025 18.7225 50.2925 19.0625 51.3125 C19.0625 50.3225 19.0625 49.3325 19.0625 48.3125 C18.7325 48.3125 18.4025 48.3125 18.0625 48.3125 Z M74.0625 49.3125 C74.3925 50.3025 74.7225 51.2925 75.0625 52.3125 C75.7225 52.3125 76.3825 52.3125 77.0625 52.3125 C76.7325 51.3225 76.4025 50.3325 76.0625 49.3125 C75.4025 49.3125 74.7425 49.3125 74.0625 49.3125 Z M4.0625 50.3125 C4.3925 51.3025 4.7225 52.2925 5.0625 53.3125 C5.7225 53.3125 6.3825 53.3125 7.0625 53.3125 C6.7325 52.3225 6.4025 51.3325 6.0625 50.3125 C5.4025 50.3125 4.7425 50.3125 4.0625 50.3125 Z M61.0625 51.3125 C61.3925 52.3025 61.7225 53.2925 62.0625 54.3125 C62.0625 53.3225 62.0625 52.3325 62.0625 51.3125 C61.7325 51.3125 61.4025 51.3125 61.0625 51.3125 Z M11.0625 53.3125 C11.0625 53.9725 11.0625 54.6325 11.0625 55.3125 C11.7225 55.3125 12.3825 55.3125 13.0625 55.3125 C13.0625 54.6525 13.0625 53.9925 13.0625 53.3125 C12.4025 53.3125 11.7425 53.3125 11.0625 53.3125 Z M67.0625 54.3125 C67.0625 54.9725 67.0625 55.6325 67.0625 56.3125 C68.0525 56.6425 69.0425 56.9725 70.0625 57.3125 C69.7325 56.3225 69.4025 55.3325 69.0625 54.3125 C68.4025 54.3125 67.7425 54.3125 67.0625 54.3125 Z M18.0625 56.3125 C18.0625 56.9725 18.0625 57.6325 18.0625 58.3125 C18.7225 58.3125 19.3825 58.3125 20.0625 58.3125 C20.0625 57.6525 20.0625 56.9925 20.0625 56.3125 C19.4025 56.3125 18.7425 56.3125 18.0625 56.3125 Z M74.0625 57.3125 C74.0625 57.9725 74.0625 58.6325 74.0625 59.3125 C74.7225 59.3125 75.3825 59.3125 76.0625 59.3125 C76.0625 58.6525 76.0625 57.9925 76.0625 57.3125 C75.4025 57.3125 74.7425 57.3125 74.0625 57.3125 Z M-75.9375 58.3125 C-75.6075 58.9725 -75.2775 59.6325 -74.9375 60.3125 C-74.6075 59.6525 -74.2775 58.9925 -73.9375 58.3125 C-74.5975 58.3125 -75.2575 58.3125 -75.9375 58.3125 Z M4.0625 58.3125 C4.3925 58.9725 4.7225 59.6325 5.0625 60.3125 C5.7225 59.9825 6.3825 59.6525 7.0625 59.3125 C6.0725 58.9825 5.0825 58.6525 4.0625 58.3125 Z M61.0625 59.3125 C61.3925 60.3025 61.7225 61.2925 62.0625 62.3125 C62.3925 61.3225 62.7225 60.3325 63.0625 59.3125 C62.4025 59.3125 61.7425 59.3125 61.0625 59.3125 Z M-80.9375 60.3125 C-81.9275 60.8075 -81.9275 60.8075 -82.9375 61.3125 C-82.9375 61.9725 -82.9375 62.6325 -82.9375 63.3125 C-81.9475 62.9825 -80.9575 62.6525 -79.9375 62.3125 C-80.2675 61.6525 -80.5975 60.9925 -80.9375 60.3125 Z M11.0625 61.3125 C11.7225 61.9725 12.3825 62.6325 13.0625 63.3125 C13.0625 62.6525 13.0625 61.9925 13.0625 61.3125 C12.4025 61.3125 11.7425 61.3125 11.0625 61.3125 Z M67.0625 61.3125 C67.7225 62.6325 68.3825 63.9525 69.0625 65.3125 C69.0625 64.3225 69.0625 63.3325 69.0625 62.3125 C68.4025 61.9825 67.7425 61.6525 67.0625 61.3125 Z M18.0625 63.3125 C18.3925 64.3025 18.7225 65.2925 19.0625 66.3125 C19.0625 65.3225 19.0625 64.3325 19.0625 63.3125 C18.7325 63.3125 18.4025 63.3125 18.0625 63.3125 Z M74.0625 64.3125 C74.0625 65.3025 74.0625 66.2925 74.0625 67.3125 C75.0525 67.6425 76.0425 67.9725 77.0625 68.3125 C76.4025 66.9925 75.7425 65.6725 75.0625 64.3125 C74.7325 64.3125 74.4025 64.3125 74.0625 64.3125 Z M4.0625 65.3125 C4.3925 66.3025 4.7225 67.2925 5.0625 68.3125 C5.7225 68.3125 6.3825 68.3125 7.0625 68.3125 C7.0625 67.6525 7.0625 66.9925 7.0625 66.3125 C6.0725 65.9825 5.0825 65.6525 4.0625 65.3125 Z M-75.9375 66.3125 C-75.9375 66.9725 -75.9375 67.6325 -75.9375 68.3125 C-75.2775 68.3125 -74.6175 68.3125 -73.9375 68.3125 C-73.9375 67.6525 -73.9375 66.9925 -73.9375 66.3125 C-74.5975 66.3125 -75.2575 66.3125 -75.9375 66.3125 Z M61.0625 67.3125 C61.7225 67.9725 62.3825 68.6325 63.0625 69.3125 C63.0625 68.6525 63.0625 67.9925 63.0625 67.3125 C62.4025 67.3125 61.7425 67.3125 61.0625 67.3125 Z M11.0625 68.3125 C11.3925 69.3025 11.7225 70.2925 12.0625 71.3125 C12.0625 70.3225 12.0625 69.3325 12.0625 68.3125 C11.7325 68.3125 11.4025 68.3125 11.0625 68.3125 Z M-80.9375 68.3125 C-81.9275 68.8075 -81.9275 68.8075 -82.9375 69.3125 C-82.9375 69.9725 -82.9375 70.6325 -82.9375 71.3125 C-81.9475 70.9825 -80.9575 70.6525 -79.9375 70.3125 C-80.2675 69.6525 -80.5975 68.9925 -80.9375 68.3125 Z M67.0625 69.3125 C67.3925 70.3025 67.7225 71.2925 68.0625 72.3125 C68.7225 72.3125 69.3825 72.3125 70.0625 72.3125 C70.0625 71.6525 70.0625 70.9925 70.0625 70.3125 C69.0725 69.9825 68.0825 69.6525 67.0625 69.3125 Z M18.0625 71.3125 C18.3925 72.3025 18.7225 73.2925 19.0625 74.3125 C19.0625 73.3225 19.0625 72.3325 19.0625 71.3125 C18.7325 71.3125 18.4025 71.3125 18.0625 71.3125 Z M74.0625 72.3125 C74.3925 73.3025 74.7225 74.2925 75.0625 75.3125 C75.7225 75.3125 76.3825 75.3125 77.0625 75.3125 C76.7325 74.3225 76.4025 73.3325 76.0625 72.3125 C75.4025 72.3125 74.7425 72.3125 74.0625 72.3125 Z M-74.9375 73.3125 C-74.9375 76.3125 -74.9375 76.3125 -74.9375 76.3125 Z M4.0625 73.3125 C4.0625 73.9725 4.0625 74.6325 4.0625 75.3125 C5.0525 75.6425 6.0425 75.9725 7.0625 76.3125 C6.7325 75.3225 6.4025 74.3325 6.0625 73.3125 C5.4025 73.3125 4.7425 73.3125 4.0625 73.3125 Z M61.0625 74.3125 C61.0625 75.3025 61.0625 76.2925 61.0625 77.3125 C61.7225 77.3125 62.3825 77.3125 63.0625 77.3125 C62.7325 76.3225 62.4025 75.3325 62.0625 74.3125 C61.7325 74.3125 61.4025 74.3125 61.0625 74.3125 Z M-81.9375 76.3125 C-82.2675 77.3025 -82.5975 78.2925 -82.9375 79.3125 C-81.9475 78.9825 -80.9575 78.6525 -79.9375 78.3125 C-79.9375 77.6525 -79.9375 76.9925 -79.9375 76.3125 C-80.5975 76.3125 -81.2575 76.3125 -81.9375 76.3125 Z M11.0625 76.3125 C11.0625 76.9725 11.0625 77.6325 11.0625 78.3125 C11.7225 78.3125 12.3825 78.3125 13.0625 78.3125 C13.0625 77.6525 13.0625 76.9925 13.0625 76.3125 C12.4025 76.3125 11.7425 76.3125 11.0625 76.3125 Z M67.0625 77.3125 C67.0625 77.9725 67.0625 78.6325 67.0625 79.3125 C68.0525 79.6425 69.0425 79.9725 70.0625 80.3125 C69.7325 79.3225 69.4025 78.3325 69.0625 77.3125 C68.4025 77.3125 67.7425 77.3125 67.0625 77.3125 Z M18.0625 79.3125 C18.0625 79.9725 18.0625 80.6325 18.0625 81.3125 C18.7225 81.3125 19.3825 81.3125 20.0625 81.3125 C20.0625 80.6525 20.0625 79.9925 20.0625 79.3125 C19.4025 79.3125 18.7425 79.3125 18.0625 79.3125 Z M74.0625 80.3125 C74.0625 80.9725 74.0625 81.6325 74.0625 82.3125 C75.0525 82.6425 76.0425 82.9725 77.0625 83.3125 C76.7325 82.3225 76.4025 81.3325 76.0625 80.3125 C75.4025 80.3125 74.7425 80.3125 74.0625 80.3125 Z M-75.9375 81.3125 C-75.6075 82.3025 -75.2775 83.2925 -74.9375 84.3125 C-74.6075 83.3225 -74.2775 82.3325 -73.9375 81.3125 C-74.5975 81.3125 -75.2575 81.3125 -75.9375 81.3125 Z M61.0625 82.3125 C61.0625 82.9725 61.0625 83.6325 61.0625 84.3125 C61.7225 84.3125 62.3825 84.3125 63.0625 84.3125 C63.0625 83.6525 63.0625 82.9925 63.0625 82.3125 C62.4025 82.3125 61.7425 82.3125 61.0625 82.3125 Z M-81.9375 84.3125 C-81.9375 85.3025 -81.9375 86.2925 -81.9375 87.3125 C-81.2775 86.9825 -80.6175 86.6525 -79.9375 86.3125 C-79.9375 85.6525 -79.9375 84.9925 -79.9375 84.3125 C-80.5975 84.3125 -81.2575 84.3125 -81.9375 84.3125 Z M67.0625 84.3125 C67.7225 85.6325 68.3825 86.9525 69.0625 88.3125 C69.3925 87.3225 69.7225 86.3325 70.0625 85.3125 C69.0725 84.9825 68.0825 84.6525 67.0625 84.3125 Z M74.0625 87.3125 C74.3925 88.3025 74.7225 89.2925 75.0625 90.3125 C75.7225 89.9825 76.3825 89.6525 77.0625 89.3125 C76.0725 88.6525 75.0825 87.9925 74.0625 87.3125 Z M-74.9375 89.3125 C-74.9375 92.3125 -74.9375 92.3125 -74.9375 92.3125 Z M-43.9375 90.3125 C-43.9375 96.5825 -43.9375 102.8525 -43.9375 109.3125 C-43.6075 109.3125 -43.2775 109.3125 -42.9375 109.3125 C-42.9375 103.0425 -42.9375 96.7725 -42.9375 90.3125 C-43.2675 90.3125 -43.5975 90.3125 -43.9375 90.3125 Z M-27.9375 90.3125 C-27.9375 92.9525 -27.9375 95.5925 -27.9375 98.3125 C-26.9475 97.6525 -25.9575 96.9925 -24.9375 96.3125 C-25.5975 96.3125 -26.2575 96.3125 -26.9375 96.3125 C-26.9375 94.3325 -26.9375 92.3525 -26.9375 90.3125 C-27.2675 90.3125 -27.5975 90.3125 -27.9375 90.3125 Z M61.0625 90.3125 C61.0625 90.9725 61.0625 91.6325 61.0625 92.3125 C61.7225 92.3125 62.3825 92.3125 63.0625 92.3125 C63.0625 91.6525 63.0625 90.9925 63.0625 90.3125 C62.4025 90.3125 61.7425 90.3125 61.0625 90.3125 Z M-81.9375 92.3125 C-81.9375 93.3025 -81.9375 94.2925 -81.9375 95.3125 C-81.2775 94.9825 -80.6175 94.6525 -79.9375 94.3125 C-79.9375 93.6525 -79.9375 92.9925 -79.9375 92.3125 C-80.5975 92.3125 -81.2575 92.3125 -81.9375 92.3125 Z M67.0625 92.3125 C67.3925 93.3025 67.7225 94.2925 68.0625 95.3125 C68.7225 95.3125 69.3825 95.3125 70.0625 95.3125 C70.0625 94.6525 70.0625 93.9925 70.0625 93.3125 C69.0725 92.9825 68.0825 92.6525 67.0625 92.3125 Z M74.0625 95.3125 C74.3925 96.3025 74.7225 97.2925 75.0625 98.3125 C75.7225 98.3125 76.3825 98.3125 77.0625 98.3125 C77.0625 97.6525 77.0625 96.9925 77.0625 96.3125 C76.0725 95.9825 75.0825 95.6525 74.0625 95.3125 Z M-75.9375 97.3125 C-75.6075 98.3025 -75.2775 99.2925 -74.9375 100.3125 C-74.6075 99.3225 -74.2775 98.3325 -73.9375 97.3125 C-74.5975 97.3125 -75.2575 97.3125 -75.9375 97.3125 Z M-7.75 99.4375 C-10.07722157 101.43226135 -10.62792428 102.31993471 -10.9375 105.3125 C-12.2575 105.3125 -13.5775 105.3125 -14.9375 105.3125 C-17.52181566 106.75991101 -17.52181566 106.75991101 -20.0625 108.6875 C-20.93132812 109.31398438 -21.80015625 109.94046875 -22.6953125 110.5859375 C-24.97749258 112.26660029 -24.97749258 112.26660029 -26.9375 114.3125 C-28.26847974 114.98385322 -29.60229797 115.6495839 -30.9375 116.3125 C-33.92132039 118.2156699 -36.83806121 120.19194497 -39.7421875 122.21484375 C-42.9375 124.3125 -42.9375 124.3125 -45.9453125 125.69140625 C-49.22216374 127.14917441 -49.22216374 127.14917441 -52.9375 131.3125 C-52.9375 137.9125 -52.9375 144.5125 -52.9375 151.3125 C-20.5975 151.3125 11.7425 151.3125 45.0625 151.3125 C45.3925 147.6825 45.7225 144.0525 46.0625 140.3125 C46.330625 138.600625 46.59875 136.88875 46.875 135.125 C47.01204527 132.6503771 47.01204527 132.6503771 46.0625 130.3125 C41.40183937 125.89600341 36.59560054 122.3125 30.0625 122.3125 C30.0625 121.3225 30.0625 120.3325 30.0625 119.3125 C28.17540871 117.61224157 28.17540871 117.61224157 25.75 116.125 C24.94949219 115.59519531 24.14898437 115.06539062 23.32421875 114.51953125 C21.04866165 113.07708726 21.04866165 113.07708726 18.0625 113.3125 C18.0625 112.6525 18.0625 111.9925 18.0625 111.3125 C15.788646 109.62677233 15.788646 109.62677233 12.9375 107.9375 C6.7012921 104.09676249 6.7012921 104.09676249 3.75 102 C-1.70079364 98.52226214 -1.70079364 98.52226214 -7.75 99.4375 Z M-81.9375 100.3125 C-81.9375 101.3025 -81.9375 102.2925 -81.9375 103.3125 C-81.2775 102.9825 -80.6175 102.6525 -79.9375 102.3125 C-79.9375 101.6525 -79.9375 100.9925 -79.9375 100.3125 C-80.5975 100.3125 -81.2575 100.3125 -81.9375 100.3125 Z " fill="#FAED07" transform="translate(392.9375,-0.3125)"/>
<path d="M0 0 C1.11308155 0.00081715 1.11308155 0.00081715 2.2486496 0.00165081 C3.10550858 -0.0025462 3.96236755 -0.0067432 4.84519196 -0.01106739 C6.26735771 -0.00263435 6.26735771 -0.00263435 7.71825409 0.00596905 C9.22501457 0.00315552 9.22501457 0.00315552 10.76221466 0.00028515 C14.16365021 -0.00341662 17.56488307 0.00748752 20.96630096 0.01842022 C23.41376989 0.01927993 25.8612392 0.01935629 28.30870819 0.01871014 C34.32385795 0.01975746 40.33891869 0.0307198 46.35404253 0.04630488 C51.26987935 0.05879863 56.1857049 0.0666951 61.10155487 0.07164288 C134.13056608 0.14725047 207.15839362 0.69275766 280.18505096 1.24888897 C280.18505096 4.54888897 280.18505096 7.84888897 280.18505096 11.24888897 C261.68505975 11.28057885 243.185065 11.30032754 224.68505096 11.31138897 C223.62781822 11.31204042 223.62781822 11.31204042 222.54922724 11.31270504 C185.2174548 11.33506533 147.88721865 11.26580727 110.55614471 11.02623272 C109.78805457 11.02132863 109.01996443 11.01642455 108.22859883 11.01137185 C74.54715782 10.79524754 40.86612313 10.51227956 7.18505096 10.24888897 C7.18505096 90.43888897 7.18505096 170.62888897 7.18505096 253.24888897 C27.31891815 253.23728741 47.45278534 253.22568584 68.19676971 253.21373272 C81.79247294 253.20783904 95.38817533 253.20217966 108.98387909 253.19810772 C110.28547039 253.19771354 110.28547039 253.19771354 111.61335647 253.1973114 C124.74950834 253.19335628 137.88566031 253.18998673 151.02181244 253.18703222 C153.8613561 253.1863915 156.70089976 253.18573239 159.54044342 253.1850729 C266.96895825 253.16053666 374.3967641 253.25872599 571.75788742 253.73986751 C575.19665799 253.74891952 578.63542859 253.75795616 582.0741992 253.76699114 C640.11117258 253.91957942 698.14812328 254.07981703 756.18505096 254.24888897 C756.17995484 253.60976777 756.17485872 252.97064656 756.16960818 252.31215805 C756.04301553 236.41700923 755.91887308 220.52184316 755.7971378 204.62665647 C755.7382031 196.93840286 755.67856254 189.25015618 755.61701202 181.56192303 C755.16855103 125.45658622 755.06387499 69.35611178 755.18505096 13.24888897 C753.93214767 13.25110958 752.67924438 13.25333019 751.38837433 13.2556181 C734.75810855 13.28401925 718.12783689 13.301118 701.49755096 13.31138897 C700.47405509 13.31204042 700.47405509 13.31204042 699.42988253 13.31270504 C650.24227746 13.34313684 601.05868564 13.12186796 551.87255096 12.74888897 C551.0832861 12.74291525 550.29402123 12.73694154 549.48083925 12.7307868 C529.3821737 12.57850176 509.28358214 12.41800639 489.18505096 12.24888897 C489.18505096 8.94888897 489.18505096 5.64888897 489.18505096 2.24888897 C551.48007147 2.12691487 613.77566308 2.1768297 676.07010555 2.48621368 C677.8302936 2.49493685 679.5904817 2.50364804 681.35066986 2.51234722 C682.65362636 2.51878999 682.65362636 2.51878999 683.98290521 2.52536291 C690.13333209 2.55499322 696.28375705 2.57668892 702.43422699 2.59504986 C709.98320791 2.61770059 717.53205304 2.65082061 725.08092523 2.69749022 C728.97251975 2.72127868 732.86398409 2.74020394 736.75564957 2.74652004 C740.34026706 2.75251787 743.92453211 2.77230166 747.50901926 2.80316842 C749.43491534 2.81615449 751.36089325 2.81437174 753.28683186 2.81216621 C754.42437255 2.82470468 755.56191324 2.83724314 756.73392487 2.85016155 C757.72092219 2.85477052 758.70791952 2.85937948 759.72482586 2.86412811 C762.18505096 3.24888897 762.18505096 3.24888897 764.00082588 4.47023678 C765.55585424 6.80581861 765.56897332 8.30625336 765.58377838 11.10605145 C765.60258749 12.61475685 765.60258749 12.61475685 765.62177658 14.15394115 C765.61962206 15.81440346 765.61962206 15.81440346 765.61742401 17.50841045 C765.62760433 18.68050816 765.63778465 19.85260586 765.64827347 21.06022167 C765.67341839 24.31059756 765.68513231 27.56070313 765.69111133 30.8111608 C765.7006875 34.29548138 765.72728577 37.77967659 765.75171661 41.26391888 C765.79646237 48.04787236 765.82497028 54.83180047 765.84749275 61.61586052 C765.86596707 67.10164175 765.89021514 72.58736891 765.91857147 78.07310772 C765.92258 78.85071166 765.92658854 79.6283156 765.93071854 80.42948329 C765.93885512 82.00555439 765.94699796 83.58162545 765.95514703 85.15769649 C766.02917989 99.63679619 766.08428901 114.11591629 766.12964654 128.59513164 C766.16577296 140.11535488 766.21201576 151.6354818 766.2675705 163.15562725 C766.33313161 176.81194756 766.38109096 190.4682114 766.41420746 204.12465191 C766.42679602 209.20710931 766.44555005 214.28948825 766.4693222 219.37190533 C766.49638114 225.31012772 766.50877952 231.24819629 766.50931358 237.18647861 C766.51186168 239.35112957 766.51951867 241.51578135 766.53261757 243.68039417 C766.54947813 246.60901175 766.54796539 249.53704082 766.54149628 252.46568584 C766.55532364 253.74944434 766.55532364 253.74944434 766.56943035 255.05913734 C766.52858435 260.76884146 766.52858435 260.76884146 764.95698309 262.9649694 C762.65595161 264.63226766 761.29652505 264.62282454 758.46664429 264.62082577 C757.48792132 264.6274154 756.50919836 264.63400502 755.50081712 264.64079434 C754.42035086 264.63273815 753.3398846 264.62468196 752.22667694 264.61638165 C751.07721106 264.61965243 749.92774518 264.62292322 748.74344701 264.62629312 C745.53047432 264.63234746 742.31785285 264.62482535 739.10491119 264.61175357 C735.61139989 264.60081797 732.11791432 264.6072208 728.62439442 264.61143494 C722.47981718 264.61640403 716.33533029 264.61005908 710.19076729 264.59645557 C701.00510785 264.57614108 691.81949731 264.57290663 682.63381828 264.57293669 C666.11099274 264.57237467 649.58822024 264.55419566 633.0654164 264.52870689 C618.5291755 264.50630496 603.99294163 264.48946319 589.45668793 264.47804546 C587.50336621 264.4764891 585.5500445 264.47493132 583.59672278 264.47337216 C580.64806326 264.47102378 577.69940374 264.46867753 574.7507442 264.46634318 C536.01083449 264.43544176 497.27097436 264.38271332 458.53110301 264.32086742 C424.96852063 264.26732916 391.40593981 264.22497288 357.84333345 264.18969813 C313.75267013 264.14326717 269.66204525 264.08393456 225.57142448 264.00674915 C222.08190296 264.00065433 218.59238144 263.99456361 215.1028599 263.98848011 C212.78433307 263.98443652 210.46580625 263.98038257 208.14727946 263.97631823 C190.76892441 263.94600272 173.39056966 263.92303453 156.0121994 263.90355206 C136.16888331 263.8812381 116.32561798 263.84803992 96.4823454 263.80058867 C85.29727981 263.7741357 74.11227183 263.75599882 62.92717648 263.74947145 C55.43682032 263.7442624 47.9465389 263.72821971 40.45622282 263.70319823 C36.17213657 263.68919208 31.88818413 263.68004626 27.60407352 263.6838851 C23.70856547 263.68727245 19.81334743 263.67706896 15.91789893 263.65565444 C14.51006402 263.6503605 13.10219916 263.65017699 11.69436433 263.65549307 C9.79280256 263.66195162 7.8912036 263.64838139 5.98968792 263.63364983 C4.93311621 263.63175122 3.8765445 263.62985262 2.78795546 263.62789649 C0.18505096 263.24888897 0.18505096 263.24888897 -1.65334213 261.99939382 C-3.11459602 259.79733045 -3.19523859 258.49136054 -3.20529652 255.85605049 C-3.21598646 254.95259468 -3.22667639 254.04913888 -3.23769027 253.11830562 C-3.23420693 252.12454373 -3.2307236 251.13078183 -3.2271347 250.10690594 C-3.23519266 249.05219729 -3.24325062 247.99748863 -3.25155276 246.91081911 C-3.27497959 243.35928653 -3.27694509 239.80806195 -3.27906036 236.25645733 C-3.29134423 233.71741387 -3.30491428 231.17837636 -3.31967926 228.63934612 C-3.35214975 222.44875149 -3.37065353 216.25824904 -3.38260672 210.06758492 C-3.39703841 202.86329751 -3.42662469 195.65909656 -3.45669969 188.4548604 C-3.50976292 175.60424559 -3.54800309 162.75362827 -3.57837677 149.9029417 C-3.60787795 137.42338511 -3.64930731 124.94393968 -3.70337677 112.46446514 C-3.76219503 98.88484957 -3.81476837 85.30523847 -3.85610408 71.72555739 C-3.86051356 70.27863347 -3.86492455 68.83170956 -3.86933708 67.38478565 C-3.87149765 66.67281159 -3.87365823 65.96083753 -3.87588427 65.2272885 C-3.89151501 60.20124302 -3.91145777 55.17522503 -3.93290901 50.14920139 C-3.96154472 43.39006721 -3.9792877 36.63098721 -3.9896431 29.87179661 C-3.99504617 27.38444815 -4.00389702 24.89710456 -4.01635933 22.40978146 C-4.03273182 19.02775907 -4.03685303 15.6459449 -4.03768158 12.26388836 C-4.04535185 11.26789574 -4.05302212 10.27190312 -4.06092483 9.24572891 C-4.05857603 8.34488085 -4.05622723 7.44403279 -4.05380726 6.51588631 C-4.05597824 5.7345292 -4.05814923 4.9531721 -4.060386 4.14813751 C-3.71257327 1.4566814 -2.70744166 0.37127895 0 0 Z " fill="#808C36" transform="translate(3.8149490356445313,77.75111103057861)"/>
<path d="M0 0 C0.77279297 -0.00322266 1.54558594 -0.00644531 2.34179688 -0.00976562 C7.97892689 0.04265063 12.95509631 0.75879816 18.0625 3.3125 C19.5606501 3.98331348 21.06089601 4.64945408 22.5625 5.3125 C24.7511977 6.27893794 26.92252343 7.24251171 29.0625 8.3125 C29.47314453 11.17993164 29.47314453 11.17993164 29.6953125 14.97265625 C29.73687469 15.63712265 29.77843689 16.30158905 29.82125854 16.9861908 C29.95235319 19.11536112 30.07006083 21.245037 30.1875 23.375 C30.27386116 24.81580813 30.36108945 26.25656457 30.44921875 27.69726562 C30.66372308 31.23513171 30.86622589 34.7735705 31.0625 38.3125 C35.4889912 36.89366387 39.29174533 35.22380769 43.3125 32.875 C44.34890625 32.27816406 45.3853125 31.68132813 46.453125 31.06640625 C49.27056577 29.41327456 49.27056577 29.41327456 51.0625 26.3125 C51.0625 26.9725 51.0625 27.6325 51.0625 28.3125 C51.7225 28.3125 52.3825 28.3125 53.0625 28.3125 C53.0625 58.3425 53.0625 88.3725 53.0625 119.3125 C42.0625 113.3125 42.0625 113.3125 38.0625 110.3125 C38.0625 109.6525 38.0625 108.9925 38.0625 108.3125 C37.51207031 108.21839844 36.96164062 108.12429687 36.39453125 108.02734375 C33.42188061 107.11612923 31.31344831 105.63714911 28.75 103.875 C27.69296875 103.15570313 26.6359375 102.43640625 25.546875 101.6953125 C24.98291016 101.30891602 24.41894531 100.92251953 23.83789062 100.52441406 C20.74054834 98.41011165 17.62012125 96.3304781 14.5 94.25 C13.87109863 93.83000732 13.24219727 93.41001465 12.59423828 92.97729492 C7.13484849 89.34029672 1.61829517 85.80075393 -3.9375 82.3125 C-9.41369702 85.24162864 -14.45427353 88.69561534 -19.49291992 92.31420898 C-23.72480783 95.3125 -23.72480783 95.3125 -25.9375 95.3125 C-25.9375 93.3325 -25.9375 91.3525 -25.9375 89.3125 C-26.68 89.4775 -27.4225 89.6425 -28.1875 89.8125 C-33.44159401 90.51304587 -38.64501749 90.38957499 -43.9375 90.3125 C-43.72867187 92.21322266 -43.72867187 92.21322266 -43.515625 94.15234375 C-42.52672338 107.08502217 -42.52672338 107.08502217 -45.06689453 111.09570312 C-48.18541386 114.31276894 -51.85008317 116.49039852 -55.9375 118.3125 C-56.9275 118.3125 -57.9175 118.3125 -58.9375 118.3125 C-58.9375 91.2525 -58.9375 64.1925 -58.9375 36.3125 C-55.32522997 37.21556751 -52.95122574 38.2584073 -49.734375 40.03515625 C-48.85104492 40.51992432 -47.96771484 41.00469238 -47.05761719 41.50415039 C-45.94547852 42.12153076 -44.83333984 42.73891113 -43.6875 43.375 C-38.36625 46.3140625 -38.36625 46.3140625 -32.9375 49.3125 C-32.9375 38.4225 -32.9375 27.5325 -32.9375 16.3125 C-33.9275 15.9825 -34.9175 15.6525 -35.9375 15.3125 C-35.6075 13.9925 -35.2775 12.6725 -34.9375 11.3125 C-34.35339355 11.51391602 -33.76928711 11.71533203 -33.16748047 11.92285156 C-30.43954983 12.39950771 -29.60561936 11.94206526 -27.2578125 10.546875 C-26.57589844 10.15113281 -25.89398438 9.75539063 -25.19140625 9.34765625 C-24.48886719 8.92355469 -23.78632813 8.49945313 -23.0625 8.0625 C-20.98889672 6.84295967 -18.9133574 5.62711978 -16.83325195 4.41870117 C-15.21001335 3.47151584 -13.59795079 2.505222 -11.98828125 1.53515625 C-7.90200388 -0.10249396 -4.35738426 -0.09040216 0 0 Z M4.0625 12.3125 C4.0625 12.9725 4.0625 13.6325 4.0625 14.3125 C5.0525 14.6425 6.0425 14.9725 7.0625 15.3125 C6.7325 14.3225 6.4025 13.3325 6.0625 12.3125 C5.4025 12.3125 4.7425 12.3125 4.0625 12.3125 Z M11.0625 14.3125 C11.0625 15.3025 11.0625 16.2925 11.0625 17.3125 C11.7225 17.3125 12.3825 17.3125 13.0625 17.3125 C12.7325 16.3225 12.4025 15.3325 12.0625 14.3125 C11.7325 14.3125 11.4025 14.3125 11.0625 14.3125 Z M18.0625 18.3125 C18.0625 18.9725 18.0625 19.6325 18.0625 20.3125 C18.7225 20.3125 19.3825 20.3125 20.0625 20.3125 C20.0625 19.6525 20.0625 18.9925 20.0625 18.3125 C19.4025 18.3125 18.7425 18.3125 18.0625 18.3125 Z M4.0625 19.3125 C4.3925 20.3025 4.7225 21.2925 5.0625 22.3125 C5.7225 22.3125 6.3825 22.3125 7.0625 22.3125 C7.0625 21.6525 7.0625 20.9925 7.0625 20.3125 C6.0725 19.9825 5.0825 19.6525 4.0625 19.3125 Z M11.0625 22.3125 C11.3925 23.3025 11.7225 24.2925 12.0625 25.3125 C12.0625 24.3225 12.0625 23.3325 12.0625 22.3125 C11.7325 22.3125 11.4025 22.3125 11.0625 22.3125 Z M18.0625 25.3125 C18.3925 26.3025 18.7225 27.2925 19.0625 28.3125 C19.0625 27.3225 19.0625 26.3325 19.0625 25.3125 C18.7325 25.3125 18.4025 25.3125 18.0625 25.3125 Z M4.0625 27.3125 C4.3925 28.3025 4.7225 29.2925 5.0625 30.3125 C5.7225 30.3125 6.3825 30.3125 7.0625 30.3125 C7.0625 29.6525 7.0625 28.9925 7.0625 28.3125 C6.0725 27.9825 5.0825 27.6525 4.0625 27.3125 Z M11.0625 30.3125 C11.3925 31.3025 11.7225 32.2925 12.0625 33.3125 C12.3925 32.3225 12.7225 31.3325 13.0625 30.3125 C12.4025 30.3125 11.7425 30.3125 11.0625 30.3125 Z M18.0625 33.3125 C18.3925 34.3025 18.7225 35.2925 19.0625 36.3125 C19.0625 35.3225 19.0625 34.3325 19.0625 33.3125 C18.7325 33.3125 18.4025 33.3125 18.0625 33.3125 Z M4.0625 35.3125 C4.0625 35.9725 4.0625 36.6325 4.0625 37.3125 C5.0525 37.6425 6.0425 37.9725 7.0625 38.3125 C6.7325 37.3225 6.4025 36.3325 6.0625 35.3125 C5.4025 35.3125 4.7425 35.3125 4.0625 35.3125 Z M11.0625 37.3125 C11.0625 38.3025 11.0625 39.2925 11.0625 40.3125 C11.7225 40.3125 12.3825 40.3125 13.0625 40.3125 C12.7325 39.3225 12.4025 38.3325 12.0625 37.3125 C11.7325 37.3125 11.4025 37.3125 11.0625 37.3125 Z M18.0625 40.3125 C18.3925 41.3025 18.7225 42.2925 19.0625 43.3125 C19.0625 42.3225 19.0625 41.3325 19.0625 40.3125 C18.7325 40.3125 18.4025 40.3125 18.0625 40.3125 Z M4.0625 43.3125 C4.3925 43.9725 4.7225 44.6325 5.0625 45.3125 C5.7225 45.3125 6.3825 45.3125 7.0625 45.3125 C7.0625 44.6525 7.0625 43.9925 7.0625 43.3125 C6.0725 43.3125 5.0825 43.3125 4.0625 43.3125 Z M11.0625 45.3125 C11.3925 46.3025 11.7225 47.2925 12.0625 48.3125 C12.0625 47.3225 12.0625 46.3325 12.0625 45.3125 C11.7325 45.3125 11.4025 45.3125 11.0625 45.3125 Z M18.0625 48.3125 C18.3925 49.3025 18.7225 50.2925 19.0625 51.3125 C19.0625 50.3225 19.0625 49.3325 19.0625 48.3125 C18.7325 48.3125 18.4025 48.3125 18.0625 48.3125 Z M4.0625 50.3125 C4.3925 51.3025 4.7225 52.2925 5.0625 53.3125 C5.7225 53.3125 6.3825 53.3125 7.0625 53.3125 C6.7325 52.3225 6.4025 51.3325 6.0625 50.3125 C5.4025 50.3125 4.7425 50.3125 4.0625 50.3125 Z M11.0625 53.3125 C11.0625 53.9725 11.0625 54.6325 11.0625 55.3125 C11.7225 55.3125 12.3825 55.3125 13.0625 55.3125 C13.0625 54.6525 13.0625 53.9925 13.0625 53.3125 C12.4025 53.3125 11.7425 53.3125 11.0625 53.3125 Z M18.0625 56.3125 C18.0625 56.9725 18.0625 57.6325 18.0625 58.3125 C18.7225 58.3125 19.3825 58.3125 20.0625 58.3125 C20.0625 57.6525 20.0625 56.9925 20.0625 56.3125 C19.4025 56.3125 18.7425 56.3125 18.0625 56.3125 Z M4.0625 58.3125 C4.3925 58.9725 4.7225 59.6325 5.0625 60.3125 C5.7225 59.9825 6.3825 59.6525 7.0625 59.3125 C6.0725 58.9825 5.0825 58.6525 4.0625 58.3125 Z M11.0625 61.3125 C11.7225 61.9725 12.3825 62.6325 13.0625 63.3125 C13.0625 62.6525 13.0625 61.9925 13.0625 61.3125 C12.4025 61.3125 11.7425 61.3125 11.0625 61.3125 Z M18.0625 63.3125 C18.3925 64.3025 18.7225 65.2925 19.0625 66.3125 C19.0625 65.3225 19.0625 64.3325 19.0625 63.3125 C18.7325 63.3125 18.4025 63.3125 18.0625 63.3125 Z M4.0625 65.3125 C4.3925 66.3025 4.7225 67.2925 5.0625 68.3125 C5.7225 68.3125 6.3825 68.3125 7.0625 68.3125 C7.0625 67.6525 7.0625 66.9925 7.0625 66.3125 C6.0725 65.9825 5.0825 65.6525 4.0625 65.3125 Z M11.0625 68.3125 C11.3925 69.3025 11.7225 70.2925 12.0625 71.3125 C12.0625 70.3225 12.0625 69.3325 12.0625 68.3125 C11.7325 68.3125 11.4025 68.3125 11.0625 68.3125 Z M18.0625 71.3125 C18.3925 72.3025 18.7225 73.2925 19.0625 74.3125 C19.0625 73.3225 19.0625 72.3325 19.0625 71.3125 C18.7325 71.3125 18.4025 71.3125 18.0625 71.3125 Z M4.0625 73.3125 C4.0625 73.9725 4.0625 74.6325 4.0625 75.3125 C5.0525 75.6425 6.0425 75.9725 7.0625 76.3125 C6.7325 75.3225 6.4025 74.3325 6.0625 73.3125 C5.4025 73.3125 4.7425 73.3125 4.0625 73.3125 Z M11.0625 76.3125 C11.0625 76.9725 11.0625 77.6325 11.0625 78.3125 C11.7225 78.3125 12.3825 78.3125 13.0625 78.3125 C13.0625 77.6525 13.0625 76.9925 13.0625 76.3125 C12.4025 76.3125 11.7425 76.3125 11.0625 76.3125 Z M18.0625 79.3125 C18.0625 79.9725 18.0625 80.6325 18.0625 81.3125 C18.7225 81.3125 19.3825 81.3125 20.0625 81.3125 C20.0625 80.6525 20.0625 79.9925 20.0625 79.3125 C19.4025 79.3125 18.7425 79.3125 18.0625 79.3125 Z " fill="#F2E713" transform="translate(392.9375,-0.3125)"/>
<path d="M0 0 C0.44223669 10.46521276 0.77877477 20.92817242 0.98443127 31.40085888 C1.08320319 36.26565379 1.21681974 41.12401693 1.43334961 45.98510742 C2.79985972 77.4473745 2.79985972 77.4473745 -1.89398193 85.07965088 C-6.66485474 90.0227842 -12.3764949 93.20250281 -19 95 C-19.66 95 -20.32 95 -21 95 C-21 93.02 -21 91.04 -21 89 C-21.7425 89.165 -22.485 89.33 -23.25 89.5 C-28.50409401 90.20054587 -33.70751749 90.07707499 -39 90 C-38.79117187 91.90072266 -38.79117187 91.90072266 -38.578125 93.83984375 C-37.58922338 106.77252217 -37.58922338 106.77252217 -40.12939453 110.78320312 C-43.24791386 114.00026894 -46.91258317 116.17789852 -51 118 C-51.99 118 -52.98 118 -54 118 C-54 90.94 -54 63.88 -54 36 C-50.38772997 36.90306751 -48.01372574 37.9459073 -44.796875 39.72265625 C-43.91354492 40.20742432 -43.03021484 40.69219238 -42.12011719 41.19165039 C-41.00797852 41.80903076 -39.89583984 42.42641113 -38.75 43.0625 C-33.42875 46.0015625 -33.42875 46.0015625 -28 49 C-28 38.11 -28 27.22 -28 16 C-28.99 15.67 -29.98 15.34 -31 15 C-30.67 13.68 -30.34 12.36 -30 11 C-29.41589355 11.20141602 -28.83178711 11.40283203 -28.22998047 11.61035156 C-25.50204983 12.08700771 -24.66811936 11.62956526 -22.3203125 10.234375 C-21.63839844 9.83863281 -20.95648438 9.44289063 -20.25390625 9.03515625 C-19.55136719 8.61105469 -18.84882813 8.18695313 -18.125 7.75 C-16.7325071 6.9310385 -15.33928866 6.11330925 -13.9453125 5.296875 C-13.27532227 4.90435547 -12.60533203 4.51183594 -11.91503906 4.10742188 C-4.81216931 0 -4.81216931 0 0 0 Z " fill="#808D38" transform="translate(388,0)"/>
<path d="M0 0 C9.24 0 18.48 0 28 0 C27.67 0.99 27.34 1.98 27 3 C25.33927151 3.68132451 23.672233 4.34742127 22 5 C19.62962388 8.55556418 19.65510696 11.17934798 19.5859375 15.29296875 C19.55032715 16.58485107 19.5147168 17.8767334 19.47802734 19.20776367 C19.44402832 20.85107666 19.4100293 22.49438965 19.375 24.1875 C19.25125 29.405625 19.1275 34.62375 19 40 C33.52 40 48.04 40 63 40 C62.896875 34.8025 62.79375 29.605 62.6875 24.25 C62.66260498 22.61579102 62.63770996 20.98158203 62.61206055 19.29785156 C62.57894775 18.0084668 62.54583496 16.71908203 62.51171875 15.390625 C62.48553467 14.07094727 62.45935059 12.75126953 62.43237305 11.39160156 C61.98376997 7.87268912 61.49137798 6.46126283 59 4 C56.41501488 2.73152315 56.41501488 2.73152315 54 2 C54 1.34 54 0.68 54 0 C63.24 0 72.48 0 82 0 C82 0.99 82 1.98 82 3 C80.865625 3.433125 79.73125 3.86625 78.5625 4.3125 C77.386875 4.869375 76.21125 5.42625 75 6 C73.85915203 9.4225439 73.8590427 12.07681523 73.83886719 15.68701172 C73.83390228 16.36216827 73.82893738 17.03732483 73.82382202 17.73294067 C73.80922402 19.96520001 73.80240254 22.19738829 73.796875 24.4296875 C73.7911218 25.98283897 73.78536409 27.53599041 73.77960205 29.08914185 C73.76909893 32.34572683 73.76325169 35.60228718 73.75976562 38.85888672 C73.75428093 43.0274607 73.73025077 47.19570805 73.70179367 51.36417961 C73.68315111 54.57269232 73.67796085 57.78112658 73.67642975 60.98968887 C73.67340656 62.52625439 73.66538927 64.06281864 73.65224457 65.5993309 C73.63514888 67.75120513 73.63707234 69.90228423 73.64355469 72.05419922 C73.63990906 73.27759003 73.63626343 74.50098083 73.63250732 75.76144409 C74.03476334 79.30635445 74.82074392 81.19706594 77 84 C79.59122743 84.88658466 79.59122743 84.88658466 82 85 C82 85.99 82 86.98 82 88 C72.76 88 63.52 88 54 88 C54.495 86.515 54.495 86.515 55 85 C56.98723268 84.29618843 58.98777953 83.6288189 61 83 C62.60970654 79.78058692 62.24242971 76.25204413 62.31640625 72.7109375 C62.33505737 71.98559814 62.3537085 71.26025879 62.3729248 70.51293945 C62.44128272 67.80041824 62.50139299 65.08769425 62.5625 62.375 C62.706875 56.31125 62.85125 50.2475 63 44 C48.48 44 33.96 44 19 44 C19.1546875 53.0646875 19.1546875 53.0646875 19.3125 62.3125 C19.33739502 64.21684814 19.36229004 66.12119629 19.38793945 68.08325195 C19.42022574 69.59328699 19.45359894 71.10329935 19.48828125 72.61328125 C19.49764709 73.78860413 19.49764709 73.78860413 19.50720215 74.9876709 C19.57551039 79.2208805 19.57551039 79.2208805 21.36401367 82.94995117 C23.47454309 84.30458287 25.63891773 85.17043055 28 86 C28 86.66 28 87.32 28 88 C18.76 88 9.52 88 0 88 C0 87.01 0 86.02 0 85 C0.94875 84.7525 1.8975 84.505 2.875 84.25 C5.98856225 83.33116009 5.98856225 83.33116009 7.17814636 81.34690857 C8.27341515 78.21922794 8.26213483 75.51440727 8.2746582 72.19946289 C8.27976913 71.52416031 8.28488007 70.84885773 8.29014587 70.15309143 C8.30401819 67.92618894 8.30308695 65.69959675 8.30078125 63.47265625 C8.30466947 61.92093288 8.3090044 60.36921056 8.31376648 58.81748962 C8.32122359 55.56684925 8.32094112 52.31631749 8.31567383 49.06567383 C8.30987965 44.90494568 8.32681108 40.74466276 8.3500185 36.58400822 C8.36476735 33.37977001 8.36562599 30.17563874 8.36250877 26.9713726 C8.3630214 25.43760738 8.36824823 23.90383607 8.37832069 22.37010384 C8.39069065 20.22308747 8.38389105 18.07693472 8.37231445 15.92993164 C8.37294388 14.70955704 8.3735733 13.48918243 8.3742218 12.23182678 C7.96463938 8.69462123 7.17378732 6.79889714 5 4 C2.40877257 3.11341534 2.40877257 3.11341534 0 3 C0 2.01 0 1.02 0 0 Z " fill="#808C36" transform="translate(168,167)"/>
<path d="M0 0 C0.33 0.66 0.66 1.32 1 2 C1.66 2 2.32 2 3 2 C3 32.03 3 62.06 3 93 C-8 87 -8 87 -12 84 C-12 83.34 -12 82.68 -12 82 C-12.53625 81.9175 -13.0725 81.835 -13.625 81.75 C-19.87194391 79.77728087 -19.87194391 79.77728087 -22 77 C-22.94015101 72.48645741 -22.81569632 68.00175942 -22.76171875 63.40625 C-22.76322171 62.05391094 -22.76665306 60.70157277 -22.77192688 59.34924316 C-22.77625584 56.51770605 -22.75944327 53.68730882 -22.72729492 50.85595703 C-22.68751013 47.23045299 -22.69681294 43.60708583 -22.72152996 39.98151398 C-22.73572789 37.18978424 -22.72561537 34.39855187 -22.70801735 31.6068573 C-22.69934041 29.62158654 -22.70972618 27.6362621 -22.72038269 25.65100098 C-22.69189995 23.83892151 -22.69189995 23.83892151 -22.6628418 21.99023438 C-22.65584763 20.92752319 -22.64885345 19.86481201 -22.64164734 18.76989746 C-21.78158338 15.05712748 -20.11926402 14.05466955 -17 12 C-15.70511091 11.21001752 -14.38798944 10.45477007 -13.046875 9.74609375 C-11.995 9.17665039 -11.995 9.17665039 -10.921875 8.59570312 C-9.460167 7.81621316 -7.99658314 7.04023178 -6.53125 6.26757812 C-5.83515625 5.88923828 -5.1390625 5.51089844 -4.421875 5.12109375 C-3.47199707 4.61727173 -3.47199707 4.61727173 -2.50292969 4.10327148 C-0.67340146 2.98290587 -0.67340146 2.98290587 0 0 Z " fill="#828E37" transform="translate(443,26)"/>
<path d="M0 0 C2.31 0 4.62 0 7 0 C10.29137117 7.83541841 12.98463931 15.81260758 15.58984375 23.8984375 C16.02011765 25.22317431 16.45083662 26.54776663 16.88197327 27.8722229 C18.69349256 33.44011825 20.49652949 39.01075082 22.29760742 44.58203125 C23.40678694 48.01197774 24.52089408 51.44029457 25.63772774 54.86775589 C26.25790128 56.77611048 26.87244334 58.68629232 27.48680115 60.5965271 C31.06176459 73.73291529 31.06176459 73.73291529 38 85 C40.06874034 85.6425235 40.06874034 85.6425235 42 86 C42 86.99 42 87.98 42 89 C32.76 89 23.52 89 14 89 C14.495 87.515 14.495 87.515 15 86 C18.5625 84.8125 18.5625 84.8125 22 84 C21.42689423 77.7103455 19.94741176 72.16127486 17.9375 66.1875 C17.38020681 64.51562044 16.82665035 62.84248935 16.27734375 61.16796875 C16.03234131 60.43860107 15.78733887 59.7092334 15.53491211 58.95776367 C15 57 15 57 15 54 C1.635 54.495 1.635 54.495 -12 55 C-13.175625 58.83625 -14.35125 62.6725 -15.5625 66.625 C-15.93705322 67.82334473 -16.31160645 69.02168945 -16.69750977 70.25634766 C-17.12761353 71.6956665 -17.12761353 71.6956665 -17.56640625 73.1640625 C-17.86490479 74.13811035 -18.16340332 75.1121582 -18.47094727 76.11572266 C-19.07699597 79.41976481 -18.89051226 81.76794214 -18 85 C-15.53744315 86.45291273 -15.53744315 86.45291273 -13 87 C-13 87.66 -13 88.32 -13 89 C-19.93 89 -26.86 89 -34 89 C-34 88.01 -34 87.02 -34 86 C-33.0925 85.835 -32.185 85.67 -31.25 85.5 C-26.7689955 83.43184408 -25.76565088 80.38361602 -24 76 C-22.24081064 70.91443172 -20.67670329 65.77525028 -19.12109375 60.625 C-18.66385991 59.13081158 -18.20592607 57.63683721 -17.74732971 56.14306641 C-16.54730229 52.22879764 -15.35527126 48.31214335 -14.16540527 44.39477539 C-12.25997451 38.12599447 -10.34281065 31.86079654 -8.42469978 25.59588623 C-7.76015235 23.42100983 -7.09933133 21.24502901 -6.43907166 19.06884766 C-4.47934814 12.63295533 -2.47787117 6.25776838 0 0 Z M0 12 C-3.63 24.21 -7.26 36.42 -11 49 C-3.41 49 4.18 49 12 49 C10.28032473 40.38345192 10.28032473 40.38345192 7.8359375 32.1171875 C7.23652344 30.33828125 7.23652344 30.33828125 6.625 28.5234375 C6.2125 27.31945312 5.8 26.11546875 5.375 24.875 C4.95476563 23.63234375 4.53453125 22.3896875 4.1015625 21.109375 C3.07319168 18.07100666 2.03923423 15.03466615 1 12 C0.67 12 0.34 12 0 12 Z " fill="#808C36" transform="translate(571,166)"/>
<path d="M0 0 C2.31 0 4.62 0 7 0 C10.29137117 7.83541841 12.98463931 15.81260758 15.58984375 23.8984375 C16.02011765 25.22317431 16.45083662 26.54776663 16.88197327 27.8722229 C18.69349256 33.44011825 20.49652949 39.01075082 22.29760742 44.58203125 C23.40678694 48.01197774 24.52089408 51.44029457 25.63772774 54.86775589 C26.25790128 56.77611048 26.87244334 58.68629232 27.48680115 60.5965271 C31.06176459 73.73291529 31.06176459 73.73291529 38 85 C40.06874034 85.6425235 40.06874034 85.6425235 42 86 C42 86.99 42 87.98 42 89 C32.76 89 23.52 89 14 89 C14.495 87.515 14.495 87.515 15 86 C18.5625 84.8125 18.5625 84.8125 22 84 C21.42689423 77.7103455 19.94741176 72.16127486 17.9375 66.1875 C17.38020681 64.51562044 16.82665035 62.84248935 16.27734375 61.16796875 C16.03234131 60.43860107 15.78733887 59.7092334 15.53491211 58.95776367 C15 57 15 57 15 54 C1.635 54.495 1.635 54.495 -12 55 C-13.175625 58.83625 -14.35125 62.6725 -15.5625 66.625 C-15.93705322 67.82334473 -16.31160645 69.02168945 -16.69750977 70.25634766 C-17.12761353 71.6956665 -17.12761353 71.6956665 -17.56640625 73.1640625 C-17.86490479 74.13811035 -18.16340332 75.1121582 -18.47094727 76.11572266 C-19.07699597 79.41976481 -18.89051226 81.76794214 -18 85 C-15.53744315 86.45291273 -15.53744315 86.45291273 -13 87 C-13 87.66 -13 88.32 -13 89 C-19.93 89 -26.86 89 -34 89 C-34 88.01 -34 87.02 -34 86 C-33.0925 85.835 -32.185 85.67 -31.25 85.5 C-26.7689955 83.43184408 -25.76565088 80.38361602 -24 76 C-22.24081064 70.91443172 -20.67670329 65.77525028 -19.12109375 60.625 C-18.66385991 59.13081158 -18.20592607 57.63683721 -17.74732971 56.14306641 C-16.54730229 52.22879764 -15.35527126 48.31214335 -14.16540527 44.39477539 C-12.25997451 38.12599447 -10.34281065 31.86079654 -8.42469978 25.59588623 C-7.76015235 23.42100983 -7.09933133 21.24502901 -6.43907166 19.06884766 C-4.47934814 12.63295533 -2.47787117 6.25776838 0 0 Z M0 12 C-3.63 24.21 -7.26 36.42 -11 49 C-3.41 49 4.18 49 12 49 C10.28032473 40.38345192 10.28032473 40.38345192 7.8359375 32.1171875 C7.23652344 30.33828125 7.23652344 30.33828125 6.625 28.5234375 C6.2125 27.31945312 5.8 26.11546875 5.375 24.875 C4.95476562 23.63234375 4.53453125 22.3896875 4.1015625 21.109375 C3.07319168 18.07100666 2.03923423 15.03466615 1 12 C0.67 12 0.34 12 0 12 Z " fill="#808C36" transform="translate(331,166)"/>
<path d="M0 0 C9.24 0 18.48 0 28 0 C28 0.99 28 1.98 28 3 C26.02 3.66 24.04 4.32 22 5 C21.8224188 9.82475377 22.2426358 13.5680285 23.8359375 18.11889648 C24.23635254 19.27957138 24.63676758 20.44024628 25.04931641 21.63609314 C25.48679199 22.86864334 25.92426758 24.10119354 26.375 25.37109375 C26.82434969 26.66113473 27.2727399 27.95151029 27.72021484 29.24220276 C28.89435224 32.62061247 30.08138157 35.99434917 31.27124023 39.36724854 C32.48558777 42.81695156 33.68756778 46.2709564 34.890625 49.72460938 C37.24839781 56.48732051 39.61981972 63.2451383 42 70 C45.24180194 60.32653332 48.47325642 50.6497114 51.68563843 40.96643066 C53.23232775 36.30496314 54.7904826 31.64755243 56.35546875 26.9921875 C56.98793599 25.07844095 57.61953798 23.16440808 58.25 21.25 C58.68034546 19.98808838 58.68034546 19.98808838 59.11938477 18.70068359 C60.77747468 13.59991822 61.26949597 9.36541981 61 4 C59.02 3.67 57.04 3.34 55 3 C55 2.01 55 1.02 55 0 C62.26 0 69.52 0 77 0 C77 0.99 77 1.98 77 3 C76.2575 3.226875 75.515 3.45375 74.75 3.6875 C69.47550388 6.20487315 67.49380056 10.68643916 65.5761261 15.92576599 C65.17299446 17.07819542 65.17299446 17.07819542 64.76171875 18.25390625 C64.46641769 19.07693741 64.17111664 19.89996857 63.86686707 20.74794006 C59.96491234 31.7374628 56.39805469 42.84183193 52.8125 53.9375 C51.76017904 57.18177229 50.70680668 60.42570168 49.65324402 63.66957092 C49.00555506 65.66505489 48.3587593 67.66082912 47.71308899 69.65696716 C45.51370167 76.45090658 43.26745572 83.22848511 41 90 C40.01 90 39.02 90 38 90 C37.60988991 88.89817635 37.60988991 88.89817635 37.2118988 87.77409363 C34.72825027 80.7599844 32.24342168 73.74629476 29.75735378 66.73304272 C28.48010975 63.12978453 27.20328045 59.52638064 25.92749023 55.92260742 C23.27222276 48.42295642 20.61153538 40.92530652 17.93604088 33.43284416 C16.56800534 29.60034289 15.2128778 25.76351386 13.86376953 21.92431641 C13.2548424 20.21625354 12.64536008 18.50838843 12.03515625 16.80078125 C11.77874863 16.06006882 11.522341 15.31935638 11.25816345 14.55619812 C9.75886771 10.40736477 8.06707915 7.19249734 5 4 C2.36539052 3.12056596 2.36539052 3.12056596 0 3 C0 2.01 0 1.02 0 0 Z " fill="#808C36" transform="translate(418,167)"/>
<path d="M0 0 C7.59 0 15.18 0 23 0 C23 5.94 23 11.88 23 18 C21.164375 17.979375 19.32875 17.95875 17.4375 17.9375 C13.89397745 17.92915248 10.495022 17.96597546 7 18.5625 C4 19 4 19 0 18 C0 12.06 0 6.12 0 0 Z " fill="#DCEACB" transform="translate(378,121)"/>
<path d="M0 0 C1.36125 0.7115625 1.36125 0.7115625 2.75 1.4375 C5.77349886 3.02981738 5.77349886 3.02981738 8.3125 3.5625 C8.869375 3.706875 9.42625 3.85125 10 4 C10.33 4.66 10.66 5.32 11 6 C13.02463255 6.65213292 13.02463255 6.65213292 15 7 C15 7.99 15 8.98 15 10 C13.35 9.67 11.7 9.34 10 9 C10 11.31 10 13.62 10 16 C8.68 15.67 7.36 15.34 6 15 C6 13.68 6 12.36 6 11 C5.34 10.67 4.68 10.34 4 10 C4 10.99 4 11.98 4 13 C3.01 12.67 2.02 12.34 1 12 C1.66 12 2.32 12 3 12 C2.01 11.01 1.02 10.02 0 9 C-0.33 9.66 -0.66 10.32 -1 11 C-1.02688151 9.35425434 -1.04634123 7.70838587 -1.0625 6.0625 C-1.07410156 5.14597656 -1.08570313 4.22945312 -1.09765625 3.28515625 C-1 1 -1 1 0 0 Z M0 2 C0.33 2.66 0.66 3.32 1 4 C1.66 4 2.32 4 3 4 C3 3.34 3 2.68 3 2 C2.01 2 1.02 2 0 2 Z M7 4 C7.33 4.99 7.66 5.98 8 7 C8 6.01 8 5.02 8 4 C7.67 4 7.34 4 7 4 Z M7 12 C7 12.66 7 13.32 7 14 C7.66 14 8.32 14 9 14 C9 13.34 9 12.68 9 12 C8.34 12 7.68 12 7 12 Z " fill="#CECE5C" transform="translate(397,41)"/>
<path d="M0 0 C3.63 0 7.26 0 11 0 C11 2.64 11 5.28 11 8 C7.37 8 3.74 8 0 8 C0 5.36 0 2.72 0 0 Z " fill="#97A960" transform="translate(390,121)"/>
<path d="M0 0 C-0.54723683 3.37462715 -1.0549 5.08235 -3 8 C-2.01 8 -1.02 8 0 8 C0 9.32 0 10.64 0 12 C-0.804375 12.12375 -1.60875 12.2475 -2.4375 12.375 C-3.283125 12.58125 -4.12875 12.7875 -5 13 C-5.33 13.66 -5.66 14.32 -6 15 C-6.66 14.67 -7.32 14.34 -8 14 C-7.67 13.34 -7.34 12.68 -7 12 C-7.66 12 -8.32 12 -9 12 C-9 11.01 -9 10.02 -9 9 C-9.66 8.67 -10.32 8.34 -11 8 C-10.67 6.68 -10.34 5.36 -10 4 C-8.68 3.67 -7.36 3.34 -6 3 C-5.67 3.66 -5.34 4.32 -5 5 C-4.814375 4.0409375 -4.814375 4.0409375 -4.625 3.0625 C-4.41875 2.381875 -4.2125 1.70125 -4 1 C-2 0 -2 0 0 0 Z M-3 2 C-3 2.66 -3 3.32 -3 4 C-2.34 4 -1.68 4 -1 4 C-1 3.34 -1 2.68 -1 2 C-1.66 2 -2.32 2 -3 2 Z M-8 4 C-8.99 4.495 -8.99 4.495 -10 5 C-10 5.66 -10 6.32 -10 7 C-9.01 6.67 -8.02 6.34 -7 6 C-7.33 5.34 -7.66 4.68 -8 4 Z M-2 9 C-2 12 -2 12 -2 12 Z " fill="#CDCD5C" transform="translate(320,64)"/>
<path d="M0 0 C1.32 0.66 2.64 1.32 4 2 C4.20638953 28.17654243 4.20638953 28.17654243 3 38 C2.67 38 2.34 38 2 38 C2 27.11 2 16.22 2 5 C1.01 4.67 0.02 4.34 -1 4 C-0.67 2.68 -0.34 1.36 0 0 Z " fill="#C7D7BE" transform="translate(358,11)"/>
<path d="M0 0 C2.97 0 5.94 0 9 0 C9 2.31 9 4.62 9 7 C6.03 7 3.06 7 0 7 C0 4.69 0 2.38 0 0 Z " fill="#82933D" transform="translate(391,131)"/>
<path d="M0 0 C2.97 0 5.94 0 9 0 C9 2.31 9 4.62 9 7 C6.03 7 3.06 7 0 7 C0 4.69 0 2.38 0 0 Z " fill="#82923C" transform="translate(379,131)"/>
<path d="M0 0 C2.97 0 5.94 0 9 0 C9 2.31 9 4.62 9 7 C6.03 7 3.06 7 0 7 C0 4.69 0 2.38 0 0 Z " fill="#81913B" transform="translate(379,122)"/>
<path d="M0 0 C1.32 0.33 2.64 0.66 4 1 C3.34 1 2.68 1 2 1 C2 2.32 2 3.64 2 5 C2.99 5 3.98 5 5 5 C4.67 5.99 4.34 6.98 4 8 C3.34 8 2.68 8 2 8 C2.66 10.31 3.32 12.62 4 15 C3.01 15.33 2.02 15.66 1 16 C0.67 16.66 0.34 17.32 0 18 C-1.4606285 15.35261084 -2 14.10551666 -2 11 C-1.34 11 -0.68 11 0 11 C-0.37125 9.9275 -0.7425 8.855 -1.125 7.75 C-2 4 -2 4 -1.125 1.5625 C-0.75375 1.046875 -0.3825 0.53125 0 0 Z " fill="#F7EB02" transform="translate(401,51)"/>
<path d="M0 0 C0.33 0 0.66 0 1 0 C1.98702603 5.21592201 2.41816705 10.39840644 2.75 15.6875 C2.81832031 16.54150391 2.88664062 17.39550781 2.95703125 18.27539062 C3.00730469 19.09587891 3.05757813 19.91636719 3.109375 20.76171875 C3.16061523 21.50381592 3.21185547 22.24591309 3.26464844 23.01049805 C3 25 3 25 0 28 C0 18.76 0 9.52 0 0 Z " fill="#EAE667" transform="translate(421,14)"/>
<path d="M0 0 C5.75685551 2.50529823 11.40472761 5.15149769 17 8 C17 8.66 17 9.32 17 10 C11.12524968 8.46745644 5.60526694 6.32330984 0 4 C0 2.68 0 1.36 0 0 Z " fill="#FBEF22" transform="translate(423,118)"/>
<path d="M0 0 C0.99 0 1.98 0 3 0 C3 1.32 3 2.64 3 4 C1.35 4.33 -0.3 4.66 -2 5 C-2 5.66 -2 6.32 -2 7 C-3.98 7.33 -5.96 7.66 -8 8 C-7.67 6.68 -7.34 5.36 -7 4 C-6.67 4.66 -6.34 5.32 -6 6 C-5.34 6 -4.68 6 -4 6 C-4 5.34 -4 4.68 -4 4 C-4.66 3.67 -5.32 3.34 -6 3 C-4.68 3 -3.36 3 -2 3 C-1.34 2.01 -0.68 1.02 0 0 Z M1 1 C1 4 1 4 1 4 Z " fill="#BDC17E" transform="translate(317,88)"/>
<path d="M0 0 C0.66 0 1.32 0 2 0 C2.79953138 3.28696233 3.09658936 4.71023192 2 8 C2 9.32 2 10.64 2 12 C0.68 11.67 -0.64 11.34 -2 11 C-1.67 8.36 -1.34 5.72 -1 3 C-0.34 3 0.32 3 1 3 C0.67 2.01 0.34 1.02 0 0 Z M-1 8 C-0.67 8.99 -0.34 9.98 0 11 C0 10.01 0 9.02 0 8 C-0.33 8 -0.66 8 -1 8 Z " fill="#C8CB76" transform="translate(405,14)"/>
<path d="M0 0 C1.98 0 3.96 0 6 0 C6 1.98 6 3.96 6 6 C7.65 5.34 9.3 4.68 11 4 C9.35 6.31 7.7 8.62 6 11 C5.01 10.67 4.02 10.34 3 10 C3.66 9.01 4.32 8.02 5 7 C5.16699232 3.87478167 5.16699232 3.87478167 5 1 C3.35 1 1.7 1 0 1 C0 0.67 0 0.34 0 0 Z " fill="#EAED80" transform="translate(361,89)"/>
<path d="M0 0 C0.66 0 1.32 0 2 0 C2 4 2 8 2 12 C0.68 11.67 -0.64 11.34 -2 11 C-2 8.69 -2 6.38 -2 4 C-1.01 3.67 -0.02 3.34 1 3 C0.67 2.01 0.34 1.02 0 0 Z M-1 8 C-1 8.66 -1 9.32 -1 10 C-0.34 10 0.32 10 1 10 C1 9.34 1 8.68 1 8 C0.34 8 -0.32 8 -1 8 Z " fill="#CACC78" transform="translate(455,74)"/>
<path d="M0 0 C1.28317892 3.84953676 1.06643637 6.94738135 1 11 C0.34 10.67 -0.32 10.34 -1 10 C-1 9.34 -1 8.68 -1 8 C-1.66 7.67 -2.32 7.34 -3 7 C-3.33 7.66 -3.66 8.32 -4 9 C-4 7.68 -4 6.36 -4 5 C-3.34 4.67 -2.68 4.34 -2 4 C-2 3.01 -2 2.02 -2 1 C-1.34 1.33 -0.68 1.66 0 2 C0 1.34 0 0.68 0 0 Z " fill="#C1C362" transform="translate(400,28)"/>
<path d="M0 0 C0.53625 0.226875 1.0725 0.45375 1.625 0.6875 C-2.03791938 3.16535723 -4.9859185 4.17714169 -9.375 4.6875 C-7.60317726 1.14385451 -3.87334298 -0.50965039 0 0 Z " fill="#84AC8B" transform="translate(386.375,0.3125)"/>
<path d="M0 0 C4.875 1.75 4.875 1.75 6 4 C4.1875 4.6875 4.1875 4.6875 2 5 C0.25 3.5625 0.25 3.5625 -1 2 C-0.67 1.34 -0.34 0.68 0 0 Z " fill="#F3E819" transform="translate(456,126)"/>
<path d="M0 0 C2.31 0.66 4.62 1.32 7 2 C7.33 3.32 7.66 4.64 8 6 C7.34 6 6.68 6 6 6 C6 5.34 6 4.68 6 4 C5.195625 3.71125 4.39125 3.4225 3.5625 3.125 C1 2 1 2 0 0 Z " fill="#FBEF19" transform="translate(405,107)"/>
<path d="M0 0 C4.875 1.75 4.875 1.75 6 4 C5.67 4.66 5.34 5.32 5 6 C3.0625 5.25 3.0625 5.25 1 4 C0.25 1.875 0.25 1.875 0 0 Z " fill="#F1E718" transform="translate(449,121)"/>
<path d="M0 0 C2.64 0 5.28 0 8 0 C8 0.33 8 0.66 8 1 C5.36 1 2.72 1 0 1 C0 0.67 0 0.34 0 0 Z " fill="#FFFFFE" transform="translate(501,159)"/>
<path d="M0 0 C2.64 0 5.28 0 8 0 C8 0.33 8 0.66 8 1 C5.36 1 2.72 1 0 1 C0 0.67 0 0.34 0 0 Z " fill="#FFFFFF" transform="translate(323,159)"/>
<path d="M0 0 C1.98 0 3.96 0 6 0 C6 0.33 6 0.66 6 1 C4.02 1 2.04 1 0 1 C0 0.67 0 0.34 0 0 Z " fill="#FFFFFF" transform="translate(397,159)"/>
<path d="M0 0 C0.99 0.33 1.98 0.66 3 1 C1.02 1.99 1.02 1.99 -1 3 C-0.67 2.01 -0.34 1.02 0 0 Z " fill="#FFFEFA" transform="translate(295,142)"/>
<path d="M0 0 C1.32 0.33 2.64 0.66 4 1 C3.01 1.495 3.01 1.495 2 2 C1.34 1.34 0.68 0.68 0 0 Z " fill="#FFFEF9" transform="translate(481,142)"/>
<path d="M0 0 C0.99 0 1.98 0 3 0 C2.67 0.99 2.34 1.98 2 3 C2 2.34 2 1.68 2 1 C1.34 0.67 0.68 0.34 0 0 Z " fill="#FEFEFA" transform="translate(432,29)"/>
<path d="M0 0 C0.66 0.66 1.32 1.32 2 2 C1.01 1.67 0.02 1.34 -1 1 C-0.67 0.67 -0.34 0.34 0 0 Z " fill="#FDFFF8" transform="translate(398,104)"/>
<path d="M0 0 C0.66 0.33 1.32 0.66 2 1 C1.01 1 0.02 1 -1 1 C-0.67 0.67 -0.34 0.34 0 0 Z " fill="#FCFEFC" transform="translate(355,44)"/>
<path d="M0 0 C0.66 0 1.32 0 2 0 C2 0.66 2 1.32 2 2 C1.34 2 0.68 2 0 2 C0 1.34 0 0.68 0 0 Z " fill="#FAFFFE" transform="translate(363,8)"/>
<path d="M0 0 C0.66 0.66 1.32 1.32 2 2 C1.34 2 0.68 2 0 2 C0 1.34 0 0.68 0 0 Z " fill="#FBFDF6" transform="translate(382,118)"/>
<path d="M0 0 C0.33 0.66 0.66 1.32 1 2 C0.34 1.67 -0.32 1.34 -1 1 C-0.67 0.67 -0.34 0.34 0 0 Z " fill="#FFFFFC" transform="translate(386,118)"/>
<path d="M0 0 C0.99 0.495 0.99 0.495 2 1 C1.01 1.495 1.01 1.495 0 2 C0 1.34 0 0.68 0 0 Z " fill="#FCFFFD" transform="translate(379,0)"/>
<path d="M0 0 C2 1 2 1 2 1 Z " fill="#FFFFFF" transform="translate(474,159)"/>
<path d="M0 0 C2 1 2 1 2 1 Z " fill="#FFFFFF" transform="translate(409,159)"/>
<path d="M0 0 C2 1 2 1 2 1 Z " fill="#FFFFFF" transform="translate(296,159)"/>
<path d="M0 0 C2 1 2 1 2 1 Z " fill="#FDFFFB" transform="translate(490,148)"/>
<path d="M0 0 C2 1 2 1 2 1 Z " fill="#FEFFFA" transform="translate(398,119)"/>
<path d="M0 0 C2 1 2 1 2 1 Z " fill="#FFFFFF" transform="translate(392,119)"/>
<path d="M0 0 C2 1 2 1 2 1 Z " fill="#FDFFFA" transform="translate(389,119)"/>
<path d="M0 0 C2 1 2 1 2 1 Z " fill="#FCFFFB" transform="translate(352,43)"/>
<path d="M0 0 C2 1 2 1 2 1 Z " fill="#F7FFFC" transform="translate(345,40)"/>
<path d="M0 0 C2 1 2 1 2 1 Z " fill="#FEFDF9" transform="translate(340,37)"/>
<path d="M0 0 C2 1 2 1 2 1 Z " fill="#FBFFFE" transform="translate(427,35)"/>
<path d="M0 0 C2 1 2 1 2 1 Z " fill="#FEFFFC" transform="translate(429,34)"/>
<path d="" fill="#FDFFFB" transform="translate(0,0)"/>
<path d="" fill="#FBFFFE" transform="translate(0,0)"/>
<path d="" fill="#FFFFF9" transform="translate(0,0)"/>
<path d="" fill="#FFFFFF" transform="translate(0,0)"/>
<path d="" fill="#FFFFFB" transform="translate(0,0)"/>
<path d="" fill="#FFFEFA" transform="translate(0,0)"/>
<path d="" fill="#FFFFFB" transform="translate(0,0)"/>
<path d="" fill="#F9FFFD" transform="translate(0,0)"/>
<path d="" fill="#FFFFFB" transform="translate(0,0)"/>
<path d="" fill="#FBFFFB" transform="translate(0,0)"/>
<path d="" fill="#FDFFFB" transform="translate(0,0)"/>
<path d="" fill="#FFFFFA" transform="translate(0,0)"/>
<path d="" fill="#F9FFFF" transform="translate(0,0)"/>
<path d="" fill="#FFFAFC" transform="translate(0,0)"/>
<path d="" fill="#FAFEF9" transform="translate(0,0)"/>
<path d="" fill="#FFFAF4" transform="translate(0,0)"/>
</svg>
